<?xml version="1.0" encoding="UTF-8"?>
<svg width="20px" height="21px" viewBox="0 0 20 21" version="1.1" xmlns="http://www.w3.org/2000/svg" xmlns:xlink="http://www.w3.org/1999/xlink">
    <!-- Generator: Sketch 64 (93537) - https://sketch.com -->
    <title>global</title>
    <desc>Created with Sketch.</desc>
    <g id="global" stroke="none" stroke-width="1" fill="none" fill-rule="evenodd">
        <g fill-rule="nonzero">
            <path d="M18.969958,0.966890756 C18.3540461,0.347967835 17.5168811,6.31595365e-06 16.6437185,6.31595365e-06 C15.7705559,6.31595365e-06 14.9333908,0.347967835 14.317479,0.966890756 C13.7241492,1.56502327 13.3676242,2.35787177 13.3139076,3.19865546 C13.3101261,3.25537815 13.3083613,3.31210084 13.3077311,3.3692437 C9.34265564,1.35857102 4.50585128,2.49379289 1.84936357,6.05857913 C-0.80712414,9.62336538 -0.512101351,14.5828378 2.54827121,17.8075467 C5.60864378,21.0322557 10.5459222,21.5860493 14.2446612,19.1194814 C17.9434003,16.6529135 19.3298345,11.882043 17.5291176,7.81731092 L19.2722689,5.48697479 C19.7787815,4.81168067 20.0278151,3.99890756 19.9735714,3.19907563 C19.9199281,2.35814248 19.5633826,1.56513266 18.969958,0.966890756 Z" id="Path"></path>
            <path d="M8.09718487,2.94957983 L9.13407563,4.44487395 C9.39087307,4.81324204 9.37844813,5.30576309 9.10340336,5.66071429 L8.7994958,6.055 C8.64758483,6.25116191 8.40340822,6.35256405 8.15722689,6.32172269 L7.81268908,6.27764706 C7.31778973,6.21414385 6.83275069,6.45210001 6.58008403,6.88235294 C6.43649205,7.12689396 6.16087482,7.26220628 5.87957983,7.2262605 L5.08357143,7.12516807 C4.5996729,7.06218332 4.12176285,7.27823042 3.84936975,7.68310924 C3.59415736,8.05972488 3.58656676,8.55182663 3.83004202,8.93613445 L4.35588235,9.76647059 C4.65542617,10.2357565 5.26525291,10.396164 5.75693277,10.135 L6.29831933,9.84508403 C6.60723891,9.68067397 6.97962744,9.6897092 7.28021008,9.86890756 L8.30768908,10.4854202 C8.34687579,10.5089143 8.39170502,10.5213305 8.43739496,10.5213445 C8.91002141,10.5219019 9.35357812,10.7495817 9.62953782,11.1332773 L10.1466387,11.8541176 C10.1819328,11.9033193 10.2196639,11.9515966 10.2587815,11.997605 L10.9164706,12.7713025 C10.9763213,12.8417535 11.0046739,12.9336603 10.9949153,13.0255853 C10.9851566,13.1175104 10.93814,13.201416 10.8648319,13.2577311 L9.86810924,14.0230672 C9.60369574,14.2253755 9.40908581,14.5052301 9.31147059,14.8235294 L8.97953782,15.9007143 C8.95330328,15.9861606 8.91032566,16.0655314 8.85310924,16.1342017 L8.52995798,16.5228571 C8.28971105,16.8112356 8.1409458,17.1647232 8.10268908,17.5381092 C8.0834253,17.7248417 7.96372621,17.8861486 7.79058824,17.9586975 C7.71783303,17.989221 7.63511298,17.9847917 7.56603329,17.9466734 C7.4969536,17.9085551 7.44910234,17.840935 7.43613445,17.7631092 L7.13172269,15.9366387 C7.09377621,15.7102235 7.00128125,15.4964497 6.86222689,15.3137815 L5.74689076,13.8515966 C5.64639703,13.7200504 5.57208374,13.5704397 5.52798319,13.4108824 L5.15991597,12.0828151 C5.02779686,11.6106573 4.65785013,11.2423052 4.18512605,11.1122269 L4.10508403,11.0903361 C3.94253002,11.0458853 3.7933281,10.962319 3.6705042,10.8469328 L2.98394958,10.2007143 C2.87432916,10.097581 2.78026642,9.97907557 2.70470588,9.84890756 C2.37781319,9.28614997 1.72978644,8.99288412 1.0912605,9.1187395 L0.850756303,9.16621849 C1.78571429,5.87596639 4.6257563,3.3794958 8.09718487,2.94957983 Z" id="Path" fill="#04E192"></path>
            <path d="M9.16567227,20.1680672 C4.40029412,20.1680672 0.523361185,16.2911345 0.523361185,11.5257563 C0.523361185,10.9142533 0.588032415,10.304465 0.716638655,9.70663866 L1.18907563,9.61344538 C1.61642172,9.52916704 2.05014927,9.72544141 2.26890756,10.1021008 C2.36897194,10.274438 2.49351946,10.4313396 2.63865546,10.5678992 L3.32508403,11.2142857 C3.50805696,11.3862072 3.73034086,11.5107145 3.97252101,11.5769328 L4.05260504,11.5988235 C4.35390277,11.6817704 4.58969668,11.9165439 4.67394958,12.217479 L5.04201681,13.5453782 C5.10321634,13.7668896 5.20638732,13.9745866 5.34592437,14.1571849 L6.46121849,15.6193697 C6.55054149,15.7366663 6.60994332,15.8739582 6.63428571,16.0193697 L6.93869748,17.8457983 C6.97660065,18.0758621 7.1178522,18.2758654 7.32199483,18.3885232 C7.52613745,18.501181 7.77065187,18.5140659 7.9855042,18.4234874 C8.3287141,18.2797268 8.56598552,17.9599753 8.60411765,17.5898319 C8.63219874,17.3159195 8.74133138,17.0566052 8.91756303,16.845042 L9.24071429,16.4564286 C9.34053944,16.3366227 9.41552507,16.1981492 9.46130252,16.0490756 L9.79323529,14.9718908 C9.86015251,14.7534473 9.99367495,14.561383 10.1751261,14.422563 L11.1718067,13.6572269 C11.3546253,13.5168336 11.4718804,13.3076179 11.4962109,13.0783998 C11.5205414,12.8491817 11.4498189,12.6200131 11.3005462,12.4443697 L10.6428571,11.6707563 C10.6126471,11.6352101 10.5835294,11.5979412 10.5562605,11.559958 L10.0391176,10.8391176 C9.68317589,10.3441064 9.11863457,10.0411508 8.50936975,10.0181933 L7.53953782,9.4362605 C7.0866475,9.16628332 6.5255865,9.15265915 6.06012605,9.40033613 L5.5187395,9.6902521 C5.260117,9.82764887 4.93932979,9.7432822 4.78176471,9.49642857 L4.25592437,8.66605042 C4.11978698,8.45122521 4.12402808,8.17611497 4.26672269,7.96558824 C4.43307674,7.71861401 4.72471146,7.58685134 5.02,7.6252521 L5.81596639,7.72638655 C6.29733619,7.78782876 6.76895948,7.55626553 7.01470588,7.13781513 C7.16511706,6.88160625 7.45393851,6.73991558 7.74861345,6.77777311 L8.09336134,6.82180672 C8.51705848,6.87483918 8.93729377,6.70035608 9.19882353,6.36281513 L9.50273109,5.96848739 C9.91240496,5.43981032 9.93090644,4.70621914 9.54840336,4.15756303 L8.67483193,2.89773109 C8.83735294,2.88857143 9.00088235,2.88348729 9.16567227,2.88348729 C10.632266,2.88326067 12.0747869,3.2563152 13.357395,3.96752101 C13.4319252,4.37957239 13.5778275,4.77544661 13.7885294,5.13731092 L13.1404622,6.24516807 C12.9389726,6.59823595 12.9832948,7.04019258 13.2508824,7.34621849 C13.44807,7.57179516 13.7215598,7.71667892 14.0189496,7.75310924 L14.1436975,7.76848739 C14.3919919,7.79913013 14.5988946,7.97324003 14.6715126,8.21264706 C14.7399709,8.4398011 14.6700934,8.68602881 14.492521,8.84336134 L13.2566807,9.935 C13.0041575,10.1581905 12.8595166,10.4789892 12.8594538,10.8160084 L12.8594538,11.1056723 C12.8586639,11.453328 13.0352037,11.7773882 13.3277311,11.9652521 C13.47426,12.059316 13.5696306,12.2153151 13.5865546,12.3886134 L13.6154622,12.6778151 C13.6623186,13.1612659 14.0693701,13.5296563 14.555084,13.5281933 L15.2785714,13.5281933 C15.8890897,13.5280837 16.4417993,13.1670403 16.6872269,12.6080252 L16.7306723,12.5090756 C16.8183246,12.3073352 17.0135497,12.1734208 17.2333193,12.1642857 L17.4036134,12.1565126 C17.4309664,12.1552521 17.4582353,12.1532773 17.4855042,12.1505462 L17.7871008,12.1202101 C17.4805882,16.6092437 13.7310924,20.1680672 9.16567227,20.1680672 Z" id="Path" fill="#04E192"></path>
            <path d="M17.8079649,11.5257563 C17.8079649,11.5544538 17.8071429,11.5829832 17.8068487,11.6115966 L17.434958,11.6489916 C17.4167227,11.6508403 17.3984034,11.6521429 17.3803361,11.6531933 L17.2103361,11.6608824 C16.7987139,11.6780329 16.4330782,11.9288668 16.2689076,12.3067227 L16.2254622,12.4056723 C16.060445,12.7814358 15.6888883,13.0241615 15.2784874,13.0241615 L14.5551261,13.0241615 C14.3287804,13.0248071 14.1390997,12.8531445 14.1172269,12.6278571 L14.0882773,12.3386134 C14.0564642,12.0124218 13.876954,11.7187862 13.6011345,11.5417647 C13.4527908,11.4465246 13.3632593,11.2822093 13.3636542,11.1059244 L13.3636542,10.8162605 C13.3636542,10.6237912 13.4463101,10.440589 13.5905462,10.3131513 L14.8263866,9.22151261 C15.1514769,8.93339314 15.2794122,8.48256871 15.1541176,8.06663866 C15.0235055,7.63633796 14.6515926,7.32341857 14.2052941,7.26831933 L14.0805462,7.25298319 C13.9062325,7.23163479 13.7459323,7.14669691 13.6303782,7.01445378 C13.5045803,6.87102542 13.483179,6.66375324 13.5770168,6.49764706 L14.1008403,5.60172269 L16.4418487,8.73109244 C16.4894461,8.79472129 16.5642569,8.8321852 16.6437185,8.8321852 C16.7231801,8.8321852 16.7979909,8.79472129 16.8455882,8.73109244 L17.1794958,8.2847479 C17.5971112,9.31412561 17.810555,10.4148943 17.8079649,11.5257563 L17.8079649,11.5257563 Z" id="Path" fill="#04E192"></path>
            <path d="M18.8687395,5.18487395 L16.6437395,8.15936975 L14.4205462,5.18735294 C13.9869328,4.59268908 13.772605,3.89836134 13.8170168,3.23197479 C13.8627459,2.5126741 14.1675867,1.83431301 14.675084,1.32252101 C15.1963549,0.798804076 15.9048195,0.504376464 16.6437395,0.504376464 C17.3826594,0.504376464 18.0911241,0.798804076 18.612395,1.32252101 C19.1199915,1.83447904 19.4248757,2.5130312 19.4705882,3.23252101 C19.5168067,3.91252101 19.3029412,4.6057563 18.8687395,5.18487395 Z" id="Path" fill="#04E192"></path>
            <path d="M16.6054202,1.86029412 C15.7537878,1.86029412 15.0634034,2.55067856 15.0634034,3.40231092 C15.0634034,4.25394329 15.7537878,4.94432773 16.6054202,4.94432773 C17.4570525,4.94432773 18.147437,4.25394329 18.147437,3.40231092 C18.1464645,2.5510817 17.4566494,1.86126661 16.6054202,1.86029412 Z M17.3356303,4.13697479 C16.9838597,4.48538692 16.4350089,4.53691881 16.0245326,4.26007444 C15.6140563,3.98323007 15.4561879,3.4550537 15.6474156,2.99836396 C15.8386434,2.54167422 16.3257496,2.28356534 16.8110177,2.38179212 C17.2962857,2.4800189 17.6446681,2.90724536 17.6432397,3.40235294 C17.6431135,3.67851893 17.5323196,3.94311671 17.3356303,4.13697479 L17.3356303,4.13697479 Z" id="Shape" fill="#FFFFFF"></path>
        </g>
    </g>
</svg>