<svg id="OBJECT" xmlns="http://www.w3.org/2000/svg" xmlns:xlink="http://www.w3.org/1999/xlink" viewBox="0 0 634.59 454.38"><defs><clipPath id="clip-path" transform="translate(-57.23 -23.96)"><path d="M488.84,248.48l-12.86-35c1-3.72,1.79-7.48,2.41-11.3,4.26-26.2-3.45-57.24-26.42-69.21-9.7-5.06-20.66-6-31.7-6.68l-5.93-16.46-33,8.8c-21.27-12-28.11-39.73-42.51-59.93C320.41,32.77,287,19.3,256.45,25.42S199.8,57,192.09,88.1c-3.52,14.17-3.45,29-5.4,43.48a110.4,110.4,0,0,1-2.05,11.16L163.82,65.85,108.87,30.47l-8.74,55.41,46,97.41c-14.55,4.08-30.69,5.35-44.24,12.29-31,15.86-33.66,52.84-27.17,83.73,7.48,35.61,13.07,69.59,31.5,101.43a197.43,197.43,0,0,0,39.65,48.88c41.5,36.79,99.24,53.8,153,43.41,45.57-8.8,87.28-37.55,112.55-77.49l27.3-14.74A108,108,0,0,0,488.84,248.48Z" fill="none"/></clipPath></defs><title>person_fight_virus</title><path d="M359.29,318.42c-18.74-5.52-37.77,6.81-52.59,19.53S276,365.31,256.41,365.38c-19.75.07-35.88-14.76-50.89-27.6s-34.4-25.24-53.24-19.33c-7,2.19-13.08,6.77-20,9.17-14.33,4.95-30.6-.19-42.61-9.46a77.64,77.64,0,0,1-8.31-7.48c5.38,24.29,12,47.71,24.93,70.06a197.43,197.43,0,0,0,39.65,48.88c41.5,36.79,99.24,53.8,153,43.41S401.07,424.5,423.42,373c.9-2.07,1.75-4.16,2.57-6.25a124.47,124.47,0,0,1-34.9-23.55C381.31,333.73,372.32,322.26,359.29,318.42Z" transform="translate(-57.23 -23.96)" fill="#d1f4f5"/><path d="M478.39,202.13c4.26-26.2-3.45-57.24-26.42-69.21-21.51-11.21-49.13-2.41-70.35-14.19-21.48-11.93-28.31-39.8-42.77-60.08C320.41,32.77,287,19.3,256.45,25.42S199.8,57,192.09,88.1c-3.52,14.17-3.45,29-5.4,43.48S180.33,161,169.9,170.94c-17.85,17-46.23,13.51-68,24.64-31,15.86-33.66,52.84-27.17,83.73,2.22,10.61,4.29,21.07,6.57,31.37a77.64,77.64,0,0,0,8.31,7.48c12,9.27,28.28,14.41,42.61,9.46,6.95-2.4,13-7,20-9.17,18.84-5.91,38.24,6.48,53.24,19.33s31.14,27.67,50.89,27.6c19.54-.07,35.46-14.71,50.29-27.43s33.85-25.05,52.59-19.53c13,3.84,22,15.31,31.8,24.74A124.47,124.47,0,0,0,426,366.71c11.3-28.95,15.67-60.48,26.07-89.86C460.9,251.9,474.13,228.32,478.39,202.13Z" transform="translate(-57.23 -23.96)" fill="#e7faf9"/><path d="M168.33,108.26a47.1,47.1,0,0,1-16,31.14c-10.36,8.93-24,12.84-37.18,16.51l-21.45,6c-4,1.11-8.1,2.24-12.23,1.93-7.21-.53-13.52-5.41-17.59-11.38-8.56-12.52-8.45-29.62-2.31-43.48S79.2,84.16,91.83,75.77c9.79-6.52,20.72-11.8,32.41-13.09,11.32-1.24,25.36,1.76,33.25,10.64C165.52,82.37,169.38,96.41,168.33,108.26Z" transform="translate(-57.23 -23.96)" fill="#e7faf9"/><g clip-path="url(#clip-path)"><path d="M178.71,398.34l-2.94,4.85a48.74,48.74,0,0,0-7.06,25.27v39.88l82.95,10,70.55-6-17.5-59Z" transform="translate(-57.23 -23.96)" fill="#56438c"/><path d="M194.54,430.23,219.66,435a137.92,137.92,0,0,0,57-1.26l16.85-3.95a21,21,0,0,0,13.21-9.63l-2-6.77-126-15-2.94,4.85a48.49,48.49,0,0,0-4,8.21l.36.85A30.45,30.45,0,0,0,194.54,430.23Z" transform="translate(-57.23 -23.96)" fill="#422c4f"/><path d="M253.5,473.89a77.78,77.78,0,0,0-11.62-10.46,95.58,95.58,0,0,0-32-15.44,78.12,78.12,0,0,0-15.43-2.59c8.62,3.37,19.62,7.62,30.23,12.78S245.5,469.24,253.5,473.89Z" transform="translate(-57.23 -23.96)" fill="#422c4f"/><path d="M299,442.67a50.19,50.19,0,0,0-11.66,2.85,60,60,0,0,0-22.74,15.05,49.77,49.77,0,0,0-7.18,9.62A138.79,138.79,0,0,1,299,442.67Z" transform="translate(-57.23 -23.96)" fill="#422c4f"/><path d="M256.46,223.66l44.35,6.5,56.73,20.93-3.75,49.42-23.33-5.67-20.09,59.49a45.68,45.68,0,0,0,1.26,32.53h0a28.81,28.81,0,0,1-1.89,26.31L307.43,417a13,13,0,0,1-8.77,6c-21.69,3.94-63.36,8-103.16-2.18A36.83,36.83,0,0,1,172.35,403h0a36.67,36.67,0,0,1-3.48-26.64c4.48-17.92,12.69-48.54,20.59-66.16l-33.92-18.08,24.06-37.64a52.75,52.75,0,0,1,35.45-23.59l41.41-7.2" transform="translate(-57.23 -23.96)" fill="#6c6fc3"/><path d="M353.79,300.51l3.75-49.42-56.73-20.93-44.16-6.47a376.87,376.87,0,0,0,42.66,97.67,164.75,164.75,0,0,0,15.07,21.1l16.08-47.62Z" transform="translate(-57.23 -23.96)" fill="#56438c"/><path d="M215.47,334.28a12,12,0,1,0,10.38-4.37l-9-33.58-38.29,8,10.94,5.83c-7.9,17.62-16.11,48.24-20.59,66.16h0l39-54.91Z" transform="translate(-57.23 -23.96)" fill="#56438c"/><path d="M286.57,262.22a35.63,35.63,0,0,1-13.18-.06,30.53,30.53,0,0,1-22.21-17,35.89,35.89,0,0,1-3.53-12.7,25.37,25.37,0,0,0,.86,13.81A27.45,27.45,0,0,0,273,265,25.25,25.25,0,0,0,286.57,262.22Z" transform="translate(-57.23 -23.96)" fill="#56438c"/><path d="M319.21,311c-5.72-.4-12.18-1-19-2a159.75,159.75,0,0,1-40.82-11.83c-6.28-2.74-12-5.72-17.09-8.44a72.91,72.91,0,0,0,15.21,12.07,86.46,86.46,0,0,0,42.35,12.27A72.85,72.85,0,0,0,319.21,311Z" transform="translate(-57.23 -23.96)" fill="#56438c"/><path d="M305.47,337c-6.42,3.47-13.91,7.24-22.12,10.71a219.7,219.7,0,0,1-26.22,9.18,217.19,217.19,0,0,1-27.2,5.68c-8.82,1.27-17.18,1.91-24.47,2.26a132.52,132.52,0,0,0,24.76.3,147.09,147.09,0,0,0,54.2-15.09A133.12,133.12,0,0,0,305.47,337Z" transform="translate(-57.23 -23.96)" fill="#56438c"/><path d="M280.77,344.73c-7.39.31-16.81.77-26.23.47s-18.79-1.29-26.15-2.05a74.32,74.32,0,0,0,52.38,1.58Z" transform="translate(-57.23 -23.96)" fill="#56438c"/><polygon points="132.23 286.21 102.32 270.24 80.95 305.9 132.23 286.21" fill="#eba588"/><polygon points="102.32 270.24 132.23 286.21 108.3 295.4 100.05 274.04 102.32 270.24" fill="#422c4f"/><path d="M195.91,290,194,278.29h0l-52.88,48.24a21.86,21.86,0,0,0-.09,32.22h0a21.87,21.87,0,0,0,32.83-3.66l30.62-44.41-.54-.78A48.5,48.5,0,0,1,195.91,290Z" transform="translate(-57.23 -23.96)" fill="#f0bf9c"/><path d="M195.63,276.84l-1.6,1.45h0L195.91,290A48.5,48.5,0,0,0,204,309.9l.54.78,8.28-12Z" transform="translate(-57.23 -23.96)" fill="#eba588"/><path d="M216.81,296.33l1.36,2.42c2.74-3.68,8.27-6.54,11-7.21h0a21.39,21.39,0,0,0-8.17,1.83A13.18,13.18,0,0,0,216.81,296.33Z" transform="translate(-57.23 -23.96)" fill="#a59b95"/><path d="M214.79,292.71l2,3.62a13.18,13.18,0,0,1,4.2-3,21.39,21.39,0,0,1,8.17-1.83l-2.55-6.87C218.79,287,215.54,291.53,214.79,292.71Z" transform="translate(-57.23 -23.96)" fill="#d4cfbe"/><path d="M218.17,298.75l4,7.23a11.61,11.61,0,0,1,4.16-2.86,27.84,27.84,0,0,1,6.48-1.67l-3.67-9.91C226.44,292.21,220.91,295.07,218.17,298.75Z" transform="translate(-57.23 -23.96)" fill="#d4cfbe"/><path d="M222.21,306l1.32,2.36a20.65,20.65,0,0,1,9.32-6.89h0a27.84,27.84,0,0,0-6.48,1.67A11.61,11.61,0,0,0,222.21,306Z" transform="translate(-57.23 -23.96)" fill="#a59b95"/><path d="M214.79,292.71c.75-1.18,4-5.75,11.84-8A20.29,20.29,0,0,0,211.35,292l-.39.47,4,6.7a9.65,9.65,0,0,1,1.89-2.88Z" transform="translate(-57.23 -23.96)" fill="#a59b95"/><path d="M216.81,296.33a9.65,9.65,0,0,0-1.89,2.88l1.71,2.9a7.81,7.81,0,0,1,1.54-3.36Z" transform="translate(-57.23 -23.96)" fill="#a59b95"/><path d="M222.07,311.34l5.07,8.59,2-1.53-5.62-10.06A9.56,9.56,0,0,0,222.07,311.34Z" transform="translate(-57.23 -23.96)" fill="#a59b95"/><path d="M232.85,301.45a20.65,20.65,0,0,0-9.32,6.89l5.62,10.06,7.8-5.91Z" transform="translate(-57.23 -23.96)" fill="#d4cfbe"/><path d="M222.21,306a9.59,9.59,0,0,0-1.76,2.61l1.62,2.75a9.56,9.56,0,0,1,1.46-3Z" transform="translate(-57.23 -23.96)" fill="#a59b95"/><path d="M218.17,298.75a7.81,7.81,0,0,0-1.54,3.36l3.82,6.48a9.59,9.59,0,0,1,1.76-2.61Z" transform="translate(-57.23 -23.96)" fill="#a59b95"/><path d="M238.4,329.86a12.64,12.64,0,0,1-12.64-12.65V317a12.64,12.64,0,1,0,23.48,6.66A12.61,12.61,0,0,1,238.4,329.86Z" transform="translate(-57.23 -23.96)" fill="#d4cfbe"/><path d="M238.4,329.86a12.61,12.61,0,0,0,10.84-6.16c0-.05,0-.11,0-.17A12.64,12.64,0,0,0,225.76,317v.17A12.64,12.64,0,0,0,238.4,329.86Z" transform="translate(-57.23 -23.96)" fill="#e4e4e0"/><path d="M243.88,317.82c-.31,1.91-3.43,3-6.95,2.39s-6.13-2.6-5.81-4.51,3.43-3,6.95-2.39S244.2,315.91,243.88,317.82Z" transform="translate(-57.23 -23.96)" fill="#fff"/><polygon points="59.82 23.5 143.86 217.95 154.15 214.08 89.73 54.71 59.82 23.5" fill="#938985"/><polygon points="59.82 23.5 59.57 23.24 56.19 64.38 133.13 221.99 143.86 217.95 59.82 23.5" fill="#a59b95"/><polygon points="59.57 23.24 51.64 65.1 133.13 221.99 56.19 64.38 59.57 23.24" fill="#fff"/><polygon points="89.73 54.71 154.15 214.08 92.28 53.37 59.8 23.45 59.82 23.5 89.73 54.71" fill="#d4cfbe"/><path d="M217.66,211.76l-4.36,6.75a27.74,27.74,0,0,1-10.54,21.43,32.6,32.6,0,0,1-23.9,6.4,36.41,36.41,0,0,1-8.35-2.11l2.16-3.27-11.88-10-9,5.21-4.35,6.75a50.5,50.5,0,0,0,29.91,15.33,46.9,46.9,0,0,0,5.67.35,43.8,43.8,0,0,0,27.18-9.26c9.56-7.58,19.55-25.9,19.44-37.69Z" transform="translate(-57.23 -23.96)" fill="#a59b95"/><path d="M187.4,251.85a47.19,47.19,0,0,1-5.68-.35,50.56,50.56,0,0,1-29.91-15.33l8.66-8.31a38.49,38.49,0,0,0,22.75,11.73,32.61,32.61,0,0,0,23.9-6.4,27.74,27.74,0,0,0,10.54-21.43l12-.11a39.45,39.45,0,0,1-15.08,30.94A43.8,43.8,0,0,1,187.4,251.85Z" transform="translate(-57.23 -23.96)" fill="#d4cfbe"/><path d="M222.56,246.7h0a5.65,5.65,0,0,1,8,2.74l4.09,9.86a5.31,5.31,0,0,1-2.67,6.85h0a5.32,5.32,0,0,1-7-2.47l-4.7-9.59A5.64,5.64,0,0,1,222.56,246.7Z" transform="translate(-57.23 -23.96)" fill="#eba588"/><path d="M190.31,252.87l10.48-8.44a10.12,10.12,0,0,1,11.55-.77l6.17,3.73a10,10,0,0,1,4.18,5L233.59,281a6,6,0,0,1-.88,5.83l-3.53,4.7-2.55-6.87h0A20.29,20.29,0,0,0,211.35,292l-.39.47,4,6.7-7.14-1.58a13,13,0,0,1-9.51-8.13l-10.43-27.57A8,8,0,0,1,190.31,252.87Z" transform="translate(-57.23 -23.96)" fill="#f0bf9c"/><path d="M232.31,277.66l-12.52-3.49a5.29,5.29,0,0,0-5.16,1.35l-6.75,6.74,5-7.61a7.3,7.3,0,0,1,9.61-2.4Z" transform="translate(-57.23 -23.96)" fill="#eba588"/><path d="M229.66,270.69,217,264.45a6,6,0,0,0-7.55,1.95l-4.65,6.69,3.23-7.37a7.1,7.1,0,0,1,10.65-2.92Z" transform="translate(-57.23 -23.96)" fill="#eba588"/><path d="M225.3,259.25l-9.69-6.13a6.26,6.26,0,0,0-8.17,1.28l-4.73,5.69,3.93-7.28a5.76,5.76,0,0,1,8.71-1.72Z" transform="translate(-57.23 -23.96)" fill="#eba588"/><path d="M275,229.8a26.45,26.45,0,0,0,16.51,5.58,25.9,25.9,0,0,0,8.22-1.49L303.63,220l-39.5-8.65-.72,1.15C266,219.13,269.5,225.45,275,229.8Z" transform="translate(-57.23 -23.96)" fill="#422c4f"/><path d="M291.55,235.38A26.45,26.45,0,0,1,275,229.8c-5.54-4.35-9-10.67-11.63-17.29l-7,11.15A19.27,19.27,0,0,0,255.35,242h0a23.26,23.26,0,0,0,23.73,13.52,22.93,22.93,0,0,0,19.31-16.61l1.38-5A25.9,25.9,0,0,1,291.55,235.38Z" transform="translate(-57.23 -23.96)" fill="#f0bf9c"/><path d="M250,201.59l-17.95-37.8a14.85,14.85,0,0,1,8-20.18c16.38-6.44,31-21.32,43.31-33.67a20.1,20.1,0,0,1,4.71-3.89,6.23,6.23,0,0,1,5.88-.23c2,1.16,2.87,3.77,2.62,6.09a18.33,18.33,0,0,1-2.49,6.53,28.29,28.29,0,0,0,7.42-4c2.45-2.11,5-4.25,8.37-4.7a6.61,6.61,0,0,1,4,.66c3.91,2.09,3.65,7.06,2.41,10.93a35.31,35.31,0,0,1-14.07,18.54l-37.74,10,3,19.25-9.44,9.75-.34,22.75Z" transform="translate(-57.23 -23.96)" fill="#6a3649"/><path d="M324.54,183.31l-6.25-25.1A35.55,35.55,0,0,0,302.5,136a100.69,100.69,0,0,0-42.31,11.62c1.66,5.15,3.21,10.83,2.4,16.19a17.86,17.86,0,0,1-8,12.27L254,195.17l1,4.2a35.66,35.66,0,0,0,42.78,26.72h0A35.66,35.66,0,0,0,324.54,183.31Z" transform="translate(-57.23 -23.96)" fill="#f0bf9c"/><path d="M278.5,222.51a42.94,42.94,0,0,1-25.63-12.25l2.12-2.12a39.92,39.92,0,0,0,23.83,11.39Z" transform="translate(-57.23 -23.96)" fill="#c7d2d7"/><path d="M267.83,200.9c-6.69-3-13.79-3.54-22.37-3.87l.11-3c7,.27,15.75.61,23.5,4.14Z" transform="translate(-57.23 -23.96)" fill="#c7d2d7"/><path d="M275.42,215.88a163.3,163.3,0,0,1-5-16.85c6.23-2,11.19-6.75,14.69-10.07,4-3.75,8.88-8.42,14.32-9.06a11.61,11.61,0,0,1,1.47-.09,34.12,34.12,0,0,1,8.64,1.62l1.2.32a36.62,36.62,0,0,0,9.4,1.51c.48,0,.95,0,1.41,0a12.25,12.25,0,0,0,3.89-1l-.81-3.66c-4.15,1.33-8.65.42-12.85-.71s-8.49-2.47-12.81-2c-6.56.77-11.82,5.59-16.61,10.14s-10.13,9.31-16.71,9.91a160.21,160.21,0,0,0,6.05,21.28,17.3,17.3,0,0,0,19.2,11.19C281.94,226.12,277,220.38,275.42,215.88Z" transform="translate(-57.23 -23.96)" fill="#fff"/><path d="M325.41,182.26a12.25,12.25,0,0,1-3.89,1c-.46,0-.93,0-1.41,0a36.62,36.62,0,0,1-9.4-1.51l-1.2-.32a34.12,34.12,0,0,0-8.64-1.62,11.61,11.61,0,0,0-1.47.09c-5.44.64-10.36,5.31-14.32,9.06-3.5,3.32-8.46,8-14.69,10.07a163.3,163.3,0,0,0,5,16.85c1.62,4.5,6.52,10.24,15.45,12.56a18.26,18.26,0,0,0,2.25-.52l12.26-3.84a31.27,31.27,0,0,0,21.19-36.61Z" transform="translate(-57.23 -23.96)" fill="#81d3cf"/><path d="M274.23,159.74a13.31,13.31,0,0,0-8.13,9l20.2-7.59A13.34,13.34,0,0,0,274.23,159.74Z" transform="translate(-57.23 -23.96)" fill="#6a3649"/><path d="M310.53,153.32c3.44.11,6.43,2.41,8.26,5.87l-16.88-.53C304,155.32,307.08,153.21,310.53,153.32Z" transform="translate(-57.23 -23.96)" fill="#6a3649"/><path d="M285.21,174.38a3,3,0,1,1-3-3A3,3,0,0,1,285.21,174.38Z" transform="translate(-57.23 -23.96)" fill="#422c4f"/><path d="M314.71,168.18a2.51,2.51,0,1,1-4.91.23,2.51,2.51,0,1,1,4.91-.23Z" transform="translate(-57.23 -23.96)" fill="#422c4f"/><circle cx="188.87" cy="180.49" r="12" fill="#f0bf9c"/><circle cx="188.87" cy="180.49" r="6.91" fill="#eba588"/><path d="M234.05,165.16A16.22,16.22,0,0,1,244,144.42a57.78,57.78,0,0,0,15-8.12c9.11-6.78,16.53-15.54,23.77-24.28a28.47,28.47,0,0,1,6.25-6.15c.25-.16.5-.31.76-.45a7.77,7.77,0,0,0-1.62.63,20.1,20.1,0,0,0-4.71,3.89c-12.34,12.35-26.93,27.23-43.31,33.67a14.85,14.85,0,0,0-8,20.18l6.11,12.85h0Z" transform="translate(-57.23 -23.96)" fill="#8e5a61"/><path d="M321.72,233.34l-9.4-.77a7.44,7.44,0,0,0-7.86,5.75l-4.69,20.35,2.82.32a11.56,11.56,0,0,0,12.63-9.4l1-5.38Z" transform="translate(-57.23 -23.96)" fill="#e78882"/><path d="M313.28,251.26l-3-6.13a5.53,5.53,0,0,1,1.42-6.71l8.58-7.12A13.77,13.77,0,0,1,332,228.45l18.45,4,11.12,34.88-18,16.22a9,9,0,0,1-6.25,2.32l-6.23-.15a7,7,0,0,1-6.31-4.31l-1.62-3.87-1.28-.27A6.17,6.17,0,0,1,317,272l-.8-6.39h0a5.93,5.93,0,0,1-5.12-3.75L310,259.05a5.93,5.93,0,0,1,2.16-7Z" transform="translate(-57.23 -23.96)" fill="#eba588"/><path d="M313.28,251.26l16.89-13.36-5.49,2.55a24.3,24.3,0,0,0-10.47,9.3Z" transform="translate(-57.23 -23.96)" fill="#e78882"/><path d="M316.21,265.59l23.67-5.42-5.36,2.7a28.53,28.53,0,0,1-15.24,3Z" transform="translate(-57.23 -23.96)" fill="#e78882"/><path d="M323.17,277.55h16.71l-2.78.77a21.6,21.6,0,0,1-13.64-.66Z" transform="translate(-57.23 -23.96)" fill="#e78882"/><path d="M342.69,286.08c14.25,39.15,42.79,69.39,73.94,78.34l23.69,6.8,15.52-5.64-4.11-11.28,2.37-3.52c18.11-26.88,20.54-68.38,6.29-107.54l-33.88-93.08L308.81,193Z" transform="translate(-57.23 -23.96)" fill="#852d70"/><path d="M392.12,126.32l-20.63,7.51L356,139.48l-36.15,13.15c6.46,17.73,1.52,35.8-11,40.37l117.7-42.84C414,154.72,398.57,144.05,392.12,126.32Z" transform="translate(-57.23 -23.96)" fill="#ba3770"/><path d="M407.63,120.68,335.35,147c6.45,17.73,1.51,35.8-11,40.36l33.88,93.08c14.25,39.16,42.79,69.39,73.94,78.34l23.7,6.81,13.78-20.45c18.11-26.88,20.53-68.38,6.28-107.54L442,144.51C429.48,149.08,414.09,138.41,407.63,120.68Z" transform="translate(-57.23 -23.96)" fill="#df4268"/><path d="M458.78,243.82,428,159.28c-12.4-.59-24.65-8.81-32.59-22l-46.49,16.92c2.42,15.24-1.69,29.41-10.8,37.84l30.77,84.54c12.9,35.43,39,63.41,66.38,71.29L447,351.18l6.79-10.08C469.7,317.44,471.68,279.25,458.78,243.82Z" transform="translate(-57.23 -23.96)" fill="#ba3770"/><path d="M401.84,134.9l-6.42,2.34c7.94,13.23,20.19,21.45,32.59,22l6.42-2.33C422,156.35,409.78,148.13,401.84,134.9Z" transform="translate(-57.23 -23.96)" fill="#852d70"/><path d="M458.78,243.82c12.9,35.43,10.92,73.62-5,97.28L447,351.18l4.06,1.17,9.15-13.58c15.95-23.67,17.93-61.85,5-97.28L434.43,157,428,159.28Z" transform="translate(-57.23 -23.96)" fill="#852d70"/><polygon points="376.31 192.84 357.95 199.53 348.99 174.91 327.59 182.7 336.55 207.32 318.18 214 325.97 235.4 344.34 228.72 353.3 253.33 374.69 245.54 365.74 220.93 384.1 214.24 376.31 192.84" fill="#c7d2d7"/><polygon points="382.28 190.67 363.91 197.36 354.95 172.74 333.55 180.53 342.51 205.15 324.15 211.83 331.94 233.23 350.3 226.54 359.26 251.16 380.66 243.37 371.7 218.76 390.06 212.07 382.28 190.67" fill="#fff"/></g><path d="M600.19,352.66c-.93-2.79-2.34-5.54-4.52-7.08s-5.24-1.44-6.68.83c-1.11,1.76-1,4.36-.21,6.49a6.59,6.59,0,0,0,.5,1,3.28,3.28,0,0,1-2.42,4.86,22.51,22.51,0,0,1-13.14-2,53.06,53.06,0,0,0-2.78-7.34,14.28,14.28,0,0,1,5.51-6.42,2.12,2.12,0,0,1,3.22,1.24c.05.17.1.34.16.51a6,6,0,0,0,2,3.14,2.74,2.74,0,0,0,4-1.26,7.83,7.83,0,0,0,0-5.13,20.61,20.61,0,0,0-3.71-7.32,8.9,8.9,0,0,0-4.25-3.27,3,3,0,0,0-3.83,2,4.92,4.92,0,0,0,1.29,3.94,5.23,5.23,0,0,0,.53.52,2.1,2.1,0,0,1-.39,3.44,14.49,14.49,0,0,1-8.39,1.69,53.63,53.63,0,0,0-6.56-8.14A20.16,20.16,0,0,1,564.63,324a3,3,0,0,1,4.84.08,6.7,6.7,0,0,0,.45.6,8.42,8.42,0,0,0,4.17,3.17,3.84,3.84,0,0,0,4.62-3.57c.2-2.26-1-4.67-2.46-6.76a28.88,28.88,0,0,0-8.39-7.86c-2.24-1.38-4.79-2.46-7.17-2.26s-4.43,2-4.1,4.41a6.88,6.88,0,0,0,3.59,4.57,6.24,6.24,0,0,0,.94.43,2.93,2.93,0,0,1,1.13,4.72,20.37,20.37,0,0,1-9.8,6.13,53.85,53.85,0,0,0-8.86-4.92,12.14,12.14,0,0,1,.09-7.11,1.81,1.81,0,0,1,2.77-1l.39.25a5,5,0,0,0,3,.94,2.32,2.32,0,0,0,1.89-3,6.56,6.56,0,0,0-2.8-3.33,17.46,17.46,0,0,0-6.4-2.74,7.53,7.53,0,0,0-4.55.2,2.51,2.51,0,0,0-1.42,3.36,4.2,4.2,0,0,0,3,1.86,4.26,4.26,0,0,0,.63,0,1.78,1.78,0,0,1,1.62,2.45,12.2,12.2,0,0,1-4.58,5.71,53.72,53.72,0,0,0-10-1.95,20.1,20.1,0,0,1-3.55-10.64,3,3,0,0,1,3.76-3l.73.17a8.51,8.51,0,0,0,5.23-.25,3.85,3.85,0,0,0,1.25-5.72c-1.3-1.85-3.77-2.93-6.23-3.58a28.82,28.82,0,0,0-11.48-.64c-2.61.39-5.26,1.2-6.95,2.88s-2.09,4.4-.31,6a6.9,6.9,0,0,0,5.69,1.19,6.53,6.53,0,0,0,1-.28,2.93,2.93,0,0,1,3.9,2.89,20.2,20.2,0,0,1-3.57,11,53.26,53.26,0,0,0-11.47,2.4,13.66,13.66,0,0,1-1.6-2.78,1.81,1.81,0,0,1,1.51-2.51,3.62,3.62,0,0,0,.46-.06,5.13,5.13,0,0,0,2.92-1.22,2.33,2.33,0,0,0-.48-3.51,6.61,6.61,0,0,0-4.28-.75,17.57,17.57,0,0,0-6.67,2,7.5,7.5,0,0,0-3.35,3.07,2.5,2.5,0,0,0,1.07,3.49,4.16,4.16,0,0,0,3.48-.5,3.61,3.61,0,0,0,.51-.36,1.78,1.78,0,0,1,2.82.83,13.94,13.94,0,0,1,.63,3.35,53.67,53.67,0,0,0-12,6.54,16.38,16.38,0,0,1-7-4.54,2.38,2.38,0,0,1,.74-3.8l.54-.27a6.71,6.71,0,0,0,3.07-2.85,3.07,3.07,0,0,0-2.17-4.14c-1.75-.46-3.82.14-5.66,1a23,23,0,0,0-7.37,5.52,10,10,0,0,0-2.77,5.33,3.3,3.3,0,0,0,2.9,3.84,5.48,5.48,0,0,0,4.1-2.19,4.3,4.3,0,0,0,.47-.68,2.35,2.35,0,0,1,3.88-.24,16.63,16.63,0,0,1,3.42,8,54,54,0,0,0-8,9.81,15.38,15.38,0,0,1-4.16-1.41,2.06,2.06,0,0,1-.52-3.31l.35-.39a5.82,5.82,0,0,0,1.67-3.23,2.67,2.67,0,0,0-3-2.73,7.57,7.57,0,0,0-4.32,2.5,19.93,19.93,0,0,0-4.37,6.69,8.52,8.52,0,0,0-.68,5.17,2.87,2.87,0,0,0,3.51,2.27,4.75,4.75,0,0,0,2.69-3,3.78,3.78,0,0,0,.18-.7,2,2,0,0,1,3.09-1.34,15.55,15.55,0,0,1,3.49,3,53.59,53.59,0,0,0-4.38,10.92,20.23,20.23,0,0,1-11.09,1.64,3,3,0,0,1-2.34-4.23c.1-.23.2-.46.29-.69a8.39,8.39,0,0,0,.66-5.2A3.84,3.84,0,0,0,452,347c-2,1-3.54,3.2-4.61,5.51a28.89,28.89,0,0,0-2.62,11.2c-.07,2.63.27,5.38,1.63,7.34s4,2.81,5.87,1.34a6.88,6.88,0,0,0,2.17-5.39,7.36,7.36,0,0,0-.11-1,2.93,2.93,0,0,1,3.52-3.34A20.26,20.26,0,0,1,468.11,368c-.1,1.37-.17,2.75-.17,4.14a54.21,54.21,0,0,0,.72,8.79,18,18,0,0,1-4.44,1.69,2.35,2.35,0,0,1-2.89-2.51l0-.59a6.66,6.66,0,0,0-.92-4,3,3,0,0,0-4.61-.19c-1.27,1.27-1.77,3.34-1.94,5.35a22.72,22.72,0,0,0,1.08,9,9.83,9.83,0,0,0,3.2,5,3.26,3.26,0,0,0,4.72-.59,5.45,5.45,0,0,0,.15-4.6,4.85,4.85,0,0,0-.35-.73,2.32,2.32,0,0,1,1.71-3.44,18,18,0,0,1,5.18.06,53.93,53.93,0,0,0,3.7,10.2c-2.52,4.12-8.37,8.81-11.7,11a3,3,0,0,1-4.52-1.73c-.07-.24-.14-.48-.22-.72a8.39,8.39,0,0,0-2.83-4.4,3.84,3.84,0,0,0-5.57,1.77c-.95,2.06-.66,4.73,0,7.19A28.85,28.85,0,0,0,453.64,419c1.63,2.07,3.66,3.95,6,4.58s4.85-.39,5.36-2.74a6.87,6.87,0,0,0-1.81-5.53,7.23,7.23,0,0,0-.74-.72,2.93,2.93,0,0,1,.55-4.82c3.73-1.95,11.18-4.78,16.13-4.72a54.38,54.38,0,0,0,6.23,6.82,16.49,16.49,0,0,1-2.35,4.39,2.2,2.2,0,0,1-3.58-.07c-.11-.15-.22-.3-.34-.44A6.14,6.14,0,0,0,476,413.4a2.83,2.83,0,0,0-3.42,2.64,8,8,0,0,0,1.82,5,21.23,21.23,0,0,0,6.2,5.81,9.27,9.27,0,0,0,5.3,1.68,3.06,3.06,0,0,0,3-3.27,5.12,5.12,0,0,0-2.65-3.38,4.94,4.94,0,0,0-.7-.31,2.17,2.17,0,0,1-.84-3.49,16.36,16.36,0,0,1,4.08-3.27,53.79,53.79,0,0,0,11.11,6.67,16.41,16.41,0,0,1-.41,8.33,2.37,2.37,0,0,1-3.65,1.26,5.54,5.54,0,0,0-.51-.33,6.71,6.71,0,0,0-4-1.24,3.07,3.07,0,0,0-2.49,3.94c.47,1.74,2,3.23,3.69,4.39a23,23,0,0,0,8.43,3.6,9.87,9.87,0,0,0,6-.26,3.29,3.29,0,0,0,1.86-4.42,5.77,5.77,0,0,0-4.75-2.51A2.34,2.34,0,0,1,502,431a16.51,16.51,0,0,1,5.16-6.91,53.39,53.39,0,0,0,13,2,13.49,13.49,0,0,1,.55,3.18,1.8,1.8,0,0,1-2.27,1.84l-.45-.1a5,5,0,0,0-3.16.15,2.32,2.32,0,0,0-.76,3.46,6.65,6.65,0,0,0,3.77,2.17,17.5,17.5,0,0,0,7,.38,7.53,7.53,0,0,0,4.21-1.74,2.5,2.5,0,0,0,.18-3.64,4.16,4.16,0,0,0-3.44-.73,4.5,4.5,0,0,0-.6.17,1.77,1.77,0,0,1-2.36-1.74,13.58,13.58,0,0,1,.56-3.38,53.89,53.89,0,0,0,10.78-1.35,23.78,23.78,0,0,1,8.79,10.77,3.53,3.53,0,0,1-3,4.92l-.89.11c-2.08.34-4.33.93-5.72,2.41a4.56,4.56,0,0,0,.92,6.87c2.21,1.53,5.39,1.74,8.4,1.47a34.32,34.32,0,0,0,13.06-3.95c2.75-1.49,5.37-3.47,6.58-6s.54-5.75-2.1-6.83c-2-.84-4.75-.24-6.83,1a7.23,7.23,0,0,0-1,.71,3.49,3.49,0,0,1-5.53-1.64,24,24,0,0,1-.33-14.31,53.25,53.25,0,0,0,7.94-4.95,17.49,17.49,0,0,1,4.59,3.53,2.38,2.38,0,0,1-.74,3.8,5.28,5.28,0,0,0-.53.27,6.66,6.66,0,0,0-3.08,2.84,3.07,3.07,0,0,0,2.17,4.14c1.75.47,3.82-.14,5.67-1a23.09,23.09,0,0,0,7.36-5.52,10,10,0,0,0,2.78-5.33,3.32,3.32,0,0,0-2.91-3.85,5.5,5.5,0,0,0-4.1,2.2,5.08,5.08,0,0,0-.47.68,2.35,2.35,0,0,1-3.87.24,17.7,17.7,0,0,1-2.84-5.35,54,54,0,0,0,7.4-8.37,20.23,20.23,0,0,1,11,2.24,3,3,0,0,1,.76,4.78c-.18.18-.35.37-.51.55a8.41,8.41,0,0,0-2.4,4.66,3.84,3.84,0,0,0,4.32,3.93c2.26-.2,4.43-1.79,6.22-3.6a28.84,28.84,0,0,0,6.29-9.63c1-2.44,1.59-5.14,1-7.45s-2.76-4-5-3.27a6.84,6.84,0,0,0-3.88,4.33,6.25,6.25,0,0,0-.26,1,2.93,2.93,0,0,1-4.45,1.94,20.27,20.27,0,0,1-7.74-8.59,53.26,53.26,0,0,0,3.5-10.45,16.53,16.53,0,0,1,5-.16,2.2,2.2,0,0,1,1.74,3.13c-.08.17-.15.34-.22.51a6.23,6.23,0,0,0-.49,3.84,2.84,2.84,0,0,0,4,1.63,8.13,8.13,0,0,0,3.41-4.07,21.35,21.35,0,0,0,1.93-8.27,9.19,9.19,0,0,0-1.2-5.42,3.07,3.07,0,0,0-4.34-1,5.11,5.11,0,0,0-1.6,4,4,4,0,0,0,.08.76,2.17,2.17,0,0,1-2.61,2.47,16.41,16.41,0,0,1-4.86-1.9,54.29,54.29,0,0,0,.52-7.37c0-1.11-.05-2.21-.11-3.3a22.44,22.44,0,0,1,11.3-6.25,3.32,3.32,0,0,1,4.07,3.55c0,.28,0,.56,0,.84,0,2,.15,4.17,1.29,5.7A4.29,4.29,0,0,0,599,373c1.79-1.8,2.5-4.72,2.74-7.56A32.2,32.2,0,0,0,600.19,352.66Z" transform="translate(-57.23 -23.96)" fill="#adbf53"/><path d="M512.63,335.1c.31,1.85-1.17,3.76-3.22,5.76-1,1-2.22,2.06-3.52,3.13s-2.66,2.24-4.12,3.44-2.81,2.37-4.13,3.43-2.56,2.05-3.72,2.89c-2.34,1.65-4.48,2.76-6.25,2.11s-2.67-3.14-2-6.83a18.36,18.36,0,0,1,2.37-6,24.08,24.08,0,0,1,11.9-9.9,18.28,18.28,0,0,1,6.31-1.24C510,331.9,512.33,333.31,512.63,335.1Z" transform="translate(-57.23 -23.96)" fill="#7ca566"/><path d="M487.06,389.14c-1.35.44-3.1-.6-4.61-2.91a20.92,20.92,0,0,1-.47-20c1.4-2.38,3.09-3.5,4.47-3.12s2.25,2.1,2.79,4.42a44.14,44.14,0,0,1,.87,8.49,43.49,43.49,0,0,1-.47,8.53C489.21,386.93,488.44,388.68,487.06,389.14Z" transform="translate(-57.23 -23.96)" fill="#7ca566"/><path d="M527.34,410.85c.16,1.3-1.07,2.69-3.41,3.65a19.34,19.34,0,0,1-18.06-2.92c-1.91-1.65-2.64-3.36-2.08-4.54s2.27-1.69,4.45-1.8a39.43,39.43,0,0,1,7.82.63,40.16,40.16,0,0,1,7.63,1.87C525.72,408.53,527.17,409.53,527.34,410.85Z" transform="translate(-57.23 -23.96)" fill="#7ca566"/><path d="M552.66,367.27c2.54,3.41-2.38,11.38-11,17.8s-17.66,8.85-20.2,5.44,2.38-11.37,11-17.79S550.12,363.86,552.66,367.27Z" transform="translate(-57.23 -23.96)" fill="#7ca566"/><path d="M514.18,357.36c1.55.66,2.25,2.79,2.43,5.58a44.91,44.91,0,0,1-.82,10.09,44.43,44.43,0,0,1-2.71,9.74c-1.14,2.57-2.53,4.31-4.21,4.41s-3.29-1.58-4.34-4.55a25.63,25.63,0,0,1,4-22.51C510.55,357.7,512.66,356.7,514.18,357.36Z" transform="translate(-57.23 -23.96)" fill="#7ca566"/><path d="M507.28,399.2c-.36.64-1.41.85-2.82.43a10.2,10.2,0,0,1-6.63-8.26c-.11-1.46.33-2.44,1-2.66s1.58.28,2.48,1.1a28.25,28.25,0,0,1,2.89,3.21,29.48,29.48,0,0,1,2.52,3.52C507.35,397.59,507.66,398.54,507.28,399.2Z" transform="translate(-57.23 -23.96)" fill="#7ca566"/><path d="M503.18,355c1,1,0,3.79-1.94,6.59s-4.16,4.78-5.47,4.16-1-3.93,1.21-7.1S502.16,354,503.18,355Z" transform="translate(-57.23 -23.96)" fill="#7ca566"/><path d="M542.28,346.77c-.51,1.35-2.3,2-4.66,2.36a43,43,0,0,1-8.54,0,43.7,43.7,0,0,1-8.45-1.31c-2.28-.66-4-1.61-4.25-3s.9-3,3.35-4.28A21,21,0,0,1,539.6,342C541.83,343.64,542.79,345.44,542.28,346.77Z" transform="translate(-57.23 -23.96)" fill="#7ca566"/><path d="M539.72,332.55c-.32.71-1.29,1-2.54,1.12a25.36,25.36,0,0,1-4.5-.15,25,25,0,0,1-4.44-.78c-1.2-.36-2.09-.87-2.26-1.62s.48-1.62,1.8-2.28A10.85,10.85,0,0,1,538.43,330C539.59,330.87,540,331.86,539.72,332.55Z" transform="translate(-57.23 -23.96)" fill="#7ca566"/><path d="M561.12,362.68c-1.3.13-2.56-1-3.82-2.59a68.8,68.8,0,0,1-4-6,64.65,64.65,0,0,1-3.54-6.28c-.85-1.85-1.28-3.49-.58-4.58s2.52-1.33,4.9-.4a13.59,13.59,0,0,1,3.73,2.31,17.75,17.75,0,0,1,5.51,9,13.38,13.38,0,0,1,.36,4.37C563.45,361,562.38,362.55,561.12,362.68Z" transform="translate(-57.23 -23.96)" fill="#7ca566"/><path d="M553.8,396.51c-.68-.79-.52-2.12,0-3.67a51.55,51.55,0,0,1,2.14-5.34,48.75,48.75,0,0,1,2.55-5.16c.84-1.38,1.73-2.4,2.77-2.41s2,1.07,2.43,3.05a13.3,13.3,0,0,1-5.94,13.3C555.93,397.27,554.46,397.26,553.8,396.51Z" transform="translate(-57.23 -23.96)" fill="#7ca566"/><path d="M545.59,402.93c.57.5.56,1.58-.1,2.89a11.11,11.11,0,0,1-9,5.58c-1.46,0-2.43-.49-2.63-1.22s.36-1.6,1.28-2.47a23.8,23.8,0,0,1,3.67-2.68,24.09,24.09,0,0,1,4-2.08C544,402.53,545,402.41,545.59,402.93Z" transform="translate(-57.23 -23.96)" fill="#7ca566"/><path d="M545.47,359.65c.23,2.37-4.65,4.78-10.92,4.8s-11.18-2.33-11-4.7,5.09-3.93,10.93-4S545.24,357.25,545.47,359.65Z" transform="translate(-57.23 -23.96)" fill="#7ca566"/><path d="M543.32,393.07c.77.84.57,2.49-.74,4.34a15.49,15.49,0,0,1-15.44,5.41c-2.18-.62-3.36-1.79-3.29-2.92s1.26-2.12,2.9-3a48.6,48.6,0,0,1,6.11-2.49,47.24,47.24,0,0,1,6.33-1.87C541,392.2,542.54,392.2,543.32,393.07Z" transform="translate(-57.23 -23.96)" fill="#7ca566"/><path d="M498.06,407.05c-.59.82-1.94,1-3.65.48a14.6,14.6,0,0,1-8.91-9.35c-.43-1.73-.19-3.08.66-3.62s2.14-.25,3.55.56a24.28,24.28,0,0,1,8,8.36C498.41,404.93,498.66,406.22,498.06,407.05Z" transform="translate(-57.23 -23.96)" fill="#7ca566"/><path d="M545.13,404.49c.49,2.5-.38,5.21-2.89,7.75S535.55,417,530,418.13a39,39,0,0,1-9.27.67A46.54,46.54,0,0,1,510.09,417,50.14,50.14,0,0,1,476,382.13a46.12,46.12,0,0,1-1.59-10.65,38.93,38.93,0,0,1,.85-9.25c1.25-5.56,3.56-9.69,6.15-12.14s5.32-3.27,7.81-2.73,4.67,2.31,6.61,4.58a82.26,82.26,0,0,1,5.75,8,114.13,114.13,0,0,0,13.65,17.87,115.19,115.19,0,0,0,17.59,14,84.55,84.55,0,0,1,7.92,5.91C542.91,399.78,544.64,401.93,545.13,404.49Z" transform="translate(-57.23 -23.96)" fill="#4d8c84" opacity="0.3"/><path d="M685,305.11a10.09,10.09,0,0,0,1.46-5.86,3.34,3.34,0,0,0-3.74-3.07,5.53,5.53,0,0,0-3.49,3.11,5.87,5.87,0,0,0-.3.77,2.35,2.35,0,0,1-3.72,1.14,16.19,16.19,0,0,1-5.49-7.82,38.31,38.31,0,0,0,2.46-5.08,10.25,10.25,0,0,1,6.06-.3,1.52,1.52,0,0,1,.95,2.29c-.06.11-.13.22-.19.34a4.24,4.24,0,0,0-.63,2.6,2,2,0,0,0,2.62,1.45,5.63,5.63,0,0,0,2.67-2.54,14.84,14.84,0,0,0,2-5.56,6.38,6.38,0,0,0-.41-3.83,2.12,2.12,0,0,0-2.91-1,3.54,3.54,0,0,0-1.42,2.63,3.09,3.09,0,0,0,0,.53,1.49,1.49,0,0,1-2,1.49,10.3,10.3,0,0,1-5-3.53,39,39,0,0,0,1-7.45,14.61,14.61,0,0,1,7.48-3,2.14,2.14,0,0,1,2.35,2.57l-.09.53a6.14,6.14,0,0,0,.41,3.74,2.77,2.77,0,0,0,4.16.64,7.78,7.78,0,0,0,2.29-4.63,20.52,20.52,0,0,0,0-8.26A9,9,0,0,0,689,262.1a3,3,0,0,0-4.33,0,4.94,4.94,0,0,0-.6,4.13,4.45,4.45,0,0,0,.24.7,2.1,2.1,0,0,1-1.9,2.93,14.64,14.64,0,0,1-8-2.07,38.16,38.16,0,0,0-1.82-7.06,8.72,8.72,0,0,1,3.76-3.47,1.3,1.3,0,0,1,1.87,1,2,2,0,0,0,.06.32,3.62,3.62,0,0,0,1,2,1.68,1.68,0,0,0,2.5-.49,4.76,4.76,0,0,0,.35-3.11,12.63,12.63,0,0,0-1.74-4.69,5.42,5.42,0,0,0-2.36-2.27,1.79,1.79,0,0,0-2.45.92,3,3,0,0,0,.51,2.48,2.28,2.28,0,0,0,.29.34,1.28,1.28,0,0,1-.48,2.06,8.75,8.75,0,0,1-5.24.44,38.41,38.41,0,0,0-4-6.2,14.45,14.45,0,0,1,3.79-7.11,2.13,2.13,0,0,1,3.44.45l.28.47a6.09,6.09,0,0,0,2.72,2.6,2.77,2.77,0,0,0,3.59-2.18,7.83,7.83,0,0,0-1.21-5,20.75,20.75,0,0,0-5.35-6.3,9,9,0,0,0-4.94-2.2,3,3,0,0,0-3.29,2.82,4.94,4.94,0,0,0,2.2,3.56,4.78,4.78,0,0,0,.63.38,2.1,2.1,0,0,1,.43,3.46,14.58,14.58,0,0,1-7.5,3.58,38.79,38.79,0,0,0-6.93-4.79,10.12,10.12,0,0,1,.66-2.2,1.3,1.3,0,0,1,2.06-.46l.25.21a3.58,3.58,0,0,0,2.08.91,1.67,1.67,0,0,0,1.6-2,4.77,4.77,0,0,0-1.73-2.6,12.56,12.56,0,0,0-4.35-2.48,5.53,5.53,0,0,0-3.27-.23,1.81,1.81,0,0,0-1.28,2.29,3,3,0,0,0,2,1.57,3.11,3.11,0,0,0,.44.08,1.27,1.27,0,0,1,1,1.88,9.87,9.87,0,0,1-1.43,2,38.38,38.38,0,0,0-9.32-3,11.71,11.71,0,0,1-1.12-5.92,1.71,1.71,0,0,1,2.34-1.5l.41.15a4.86,4.86,0,0,0,3,.19,2.21,2.21,0,0,0,1.09-3.18,6.29,6.29,0,0,0-3.33-2.45,16.59,16.59,0,0,0-6.52-1.11,7.14,7.14,0,0,0-4.15,1.19,2.38,2.38,0,0,0-.57,3.42,4,4,0,0,0,3.17,1.05,4,4,0,0,0,.59-.09,1.68,1.68,0,0,1,2,1.9,11.71,11.71,0,0,1-2.46,5.72,39.47,39.47,0,0,0-9.07.69,11.12,11.12,0,0,1-1.32-2.86,1.48,1.48,0,0,1,1.47-1.92h.37a4.19,4.19,0,0,0,2.51-.73,1.92,1.92,0,0,0-.06-2.92,5.44,5.44,0,0,0-3.44-1,14.26,14.26,0,0,0-5.65,1,6.14,6.14,0,0,0-3,2.21,2.06,2.06,0,0,0,.55,3,3.43,3.43,0,0,0,2.9-.08,5.05,5.05,0,0,0,.45-.25,1.46,1.46,0,0,1,2.23.94,11.53,11.53,0,0,1,.16,3.31,38.31,38.31,0,0,0-7.86,3.12,14.49,14.49,0,0,1-6.34-5,2.14,2.14,0,0,1,1-3.32l.51-.19a6,6,0,0,0,3-2.23,2.75,2.75,0,0,0-1.52-3.91,7.8,7.8,0,0,0-5.16.32,20.82,20.82,0,0,0-7.13,4.18,8.94,8.94,0,0,0-3,4.48,3,3,0,0,0,2.21,3.72,4.93,4.93,0,0,0,3.88-1.54,3.81,3.81,0,0,0,.48-.56,2.11,2.11,0,0,1,3.49.18,14.64,14.64,0,0,1,2.23,8c-.77.62-1.52,1.27-2.25,2a39,39,0,0,0-4.22,4.72,12.79,12.79,0,0,1-3.08-1.47,1.69,1.69,0,0,1-.12-2.75c.11-.09.22-.18.32-.28a4.75,4.75,0,0,0,1.66-2.47,2.19,2.19,0,0,0-2.19-2.5,6.13,6.13,0,0,0-3.75,1.63,16.48,16.48,0,0,0-4.17,5,7.1,7.1,0,0,0-1,4.15,2.35,2.35,0,0,0,2.64,2.18,3.91,3.91,0,0,0,2.47-2.2,3.29,3.29,0,0,0,.21-.55,1.67,1.67,0,0,1,2.64-.81,13.06,13.06,0,0,1,2.53,2.73,38.43,38.43,0,0,0-3.48,7c-3.4.73-8.74,0-11.53-.65a2.14,2.14,0,0,1-1.33-3.21l.27-.47a6.14,6.14,0,0,0,.89-3.66,2.76,2.76,0,0,0-3.68-2,7.88,7.88,0,0,0-3.75,3.56,20.84,20.84,0,0,0-2.77,7.79,8.94,8.94,0,0,0,.56,5.37,3,3,0,0,0,4.09,1.44,5,5,0,0,0,2-3.68,3.65,3.65,0,0,0,0-.74,2.11,2.11,0,0,1,2.79-2.1c2.86,1,8,3.46,10.44,6.07a37.68,37.68,0,0,0-.47,6.62,11.91,11.91,0,0,1-3.46.95,1.58,1.58,0,0,1-1.73-1.9c0-.13,0-.26.06-.39a4.4,4.4,0,0,0-.3-2.77,2,2,0,0,0-3.07-.47,5.82,5.82,0,0,0-1.7,3.42,15.33,15.33,0,0,0,0,6.11,6.69,6.69,0,0,0,1.75,3.59,2.2,2.2,0,0,0,3.2,0,3.64,3.64,0,0,0,.45-3.05,3.56,3.56,0,0,0-.18-.52,1.56,1.56,0,0,1,1.4-2.16,11.64,11.64,0,0,1,3.73.5,38.52,38.52,0,0,0,2,9.09,11.73,11.73,0,0,1-4.54,3.91,1.7,1.7,0,0,1-2.46-1.28c0-.14-.05-.28-.08-.42a4.75,4.75,0,0,0-1.33-2.69,2.2,2.2,0,0,0-3.28.65,6.23,6.23,0,0,0-.46,4.09,16.53,16.53,0,0,0,2.29,6.18,7.18,7.18,0,0,0,3.1,3,2.37,2.37,0,0,0,3.23-1.21,3.93,3.93,0,0,0-.67-3.27,4,4,0,0,0-.37-.45,1.68,1.68,0,0,1,.62-2.72,11.85,11.85,0,0,1,6.15-.73,38.8,38.8,0,0,0,5.37,7.77,10,10,0,0,1-1.38,1.86,1.3,1.3,0,0,1-2.09-.27c0-.1-.11-.19-.17-.29a3.6,3.6,0,0,0-1.64-1.57,1.67,1.67,0,0,0-2.18,1.32,4.8,4.8,0,0,0,.74,3,12.48,12.48,0,0,0,3.24,3.81,5.38,5.38,0,0,0,3,1.33,1.8,1.8,0,0,0,2-1.71,3,3,0,0,0-1.33-2.15,3.64,3.64,0,0,0-.39-.23,1.28,1.28,0,0,1-.26-2.09,9.77,9.77,0,0,1,2-1.38,39.62,39.62,0,0,0,6,4.95,17,17,0,0,1-1.27,9.91,2.53,2.53,0,0,1-4,.89l-.5-.4a7.18,7.18,0,0,0-4.09-1.8,3.27,3.27,0,0,0-3.12,3.88c.29,1.91,1.76,3.68,3.39,5.11a24.64,24.64,0,0,0,8.52,4.85,10.69,10.69,0,0,0,6.4.45,3.54,3.54,0,0,0,2.52-4.48,5.87,5.87,0,0,0-3.89-3.07,5.69,5.69,0,0,0-.86-.17,2.5,2.5,0,0,1-1.88-3.69,17.11,17.11,0,0,1,7.29-7.25,38,38,0,0,0,6.51,1.68,12.76,12.76,0,0,1,.44,4.14,1.72,1.72,0,0,1-2.35,1.5c-.13-.06-.27-.1-.41-.15a4.86,4.86,0,0,0-3-.19,2.2,2.2,0,0,0-1.08,3.18,6.26,6.26,0,0,0,3.32,2.45,16.65,16.65,0,0,0,6.52,1.11,7.19,7.19,0,0,0,4.16-1.19,2.39,2.39,0,0,0,.56-3.42,3.94,3.94,0,0,0-3.17-1.05,4.22,4.22,0,0,0-.59.09,1.68,1.68,0,0,1-2-1.9,12.74,12.74,0,0,1,1.38-4.13,38.51,38.51,0,0,0,8-.28,14.47,14.47,0,0,1,4.27,6.85,2.14,2.14,0,0,1-2.11,2.76H643a6.11,6.11,0,0,0-3.61,1.05,2.76,2.76,0,0,0,.09,4.2,7.82,7.82,0,0,0,5,1.46,20.67,20.67,0,0,0,8.13-1.48,9,9,0,0,0,4.37-3.18,3,3,0,0,0-.8-4.25,4.92,4.92,0,0,0-4.17.12,3.8,3.8,0,0,0-.65.36,2.11,2.11,0,0,1-3.21-1.36,14.59,14.59,0,0,1,.64-8.29A38.42,38.42,0,0,0,656,307.3a11.9,11.9,0,0,1,2.54,2.52,1.58,1.58,0,0,1-.78,2.45l-.37.14a4.43,4.43,0,0,0-2.24,1.64,2,2,0,0,0,1.12,2.89,5.81,5.81,0,0,0,3.81-.23,15.26,15.26,0,0,0,5.27-3.09,6.62,6.62,0,0,0,2.23-3.31,2.19,2.19,0,0,0-1.63-2.75A3.66,3.66,0,0,0,663,308.7a3.58,3.58,0,0,0-.35.41,1.56,1.56,0,0,1-2.58-.13,11.71,11.71,0,0,1-1.42-3.47,42,42,0,0,0,4.1-3.38c.58-.55,1.13-1.12,1.66-1.69a16.08,16.08,0,0,1,8.85,2.79,2.38,2.38,0,0,1,.17,3.88l-.46.4a6.76,6.76,0,0,0-2.33,3.49,3.08,3.08,0,0,0,3.09,3.53c1.82.05,3.7-1,5.29-2.31A23.05,23.05,0,0,0,685,305.11Z" transform="translate(-57.23 -23.96)" fill="#adbf53"/><path d="M650.77,250.78c-.81,1.09-2.54,1.25-4.59,1.18-1-.05-2.17-.14-3.37-.28s-2.49-.28-3.84-.45-2.62-.29-3.83-.46-2.33-.32-3.35-.51c-2-.4-3.65-1-4.19-2.21s.32-2.94,2.58-4.41a13.22,13.22,0,0,1,4.29-1.73,17.27,17.27,0,0,1,11,1.31,13.39,13.39,0,0,1,3.77,2.67C651.15,247.85,651.56,249.75,650.77,250.78Z" transform="translate(-57.23 -23.96)" fill="#7ca566"/><path d="M610,264.2c-.9-.49-1.23-1.91-.77-3.84a15,15,0,0,1,10.17-10.12c1.93-.46,3.35-.12,3.83.78s0,2.22-.91,3.64a39.23,39.23,0,0,1-8.68,8.64C612.17,264.23,610.87,264.7,610,264.2Z" transform="translate(-57.23 -23.96)" fill="#7ca566"/><path d="M618.57,295.94c-.6.73-1.93.77-3.59,0a13.91,13.91,0,0,1-7.41-10.86c-.09-1.81.44-3,1.33-3.33s2,.34,3.14,1.43a27.25,27.25,0,0,1,3.54,4.39,27.8,27.8,0,0,1,2.8,4.9C619,294,619.17,295.2,618.57,295.94Z" transform="translate(-57.23 -23.96)" fill="#7ca566"/><path d="M653.82,287.57c-.52,3-7.11,4.39-14.72,3.08s-13.35-4.82-12.83-7.83,7.11-4.39,14.71-3.08S654.34,284.56,653.82,287.57Z" transform="translate(-57.23 -23.96)" fill="#7ca566"/><path d="M639.94,262.61c.42,1.13-.34,2.55-1.71,4a32.62,32.62,0,0,1-5.66,4.56,31.7,31.7,0,0,1-6.42,3.41c-1.9.68-3.5.82-4.38,0s-.81-2.5.22-4.51a17,17,0,0,1,5.79-6.14A17.23,17.23,0,0,1,635.7,261C638,260.88,639.53,261.49,639.94,262.61Z" transform="translate(-57.23 -23.96)" fill="#7ca566"/><path d="M614.72,279.72c-.52.13-1.15-.32-1.63-1.26a7.33,7.33,0,0,1,1-7.54c.71-.78,1.43-1,1.9-.78s.63,1,.65,1.84a20.22,20.22,0,0,1-.24,3.09,21.49,21.49,0,0,1-.59,3.05C615.59,279,615.25,279.59,614.72,279.72Z" transform="translate(-57.23 -23.96)" fill="#7ca566"/><path d="M635.72,255.72c0,1-2,1.86-4.4,2.25s-4.55.19-4.87-.79,1.56-2.46,4.29-2.89S635.72,254.7,635.72,255.72Z" transform="translate(-57.23 -23.96)" fill="#7ca566"/><path d="M659.36,272c-1,.41-2.2-.18-3.53-1.25a31.06,31.06,0,0,1-4.25-4.44,31.61,31.61,0,0,1-3.5-5.05c-.78-1.52-1.11-2.85-.52-3.72s2-1,3.88-.37a14.07,14.07,0,0,1,5.94,4.4,14.23,14.23,0,0,1,3.13,6.7C660.77,270.24,660.31,271.62,659.36,272Z" transform="translate(-57.23 -23.96)" fill="#7ca566"/><path d="M665.51,263.64c-.53.19-1.17-.17-1.84-.77a23,23,0,0,1-3.94-5.12c-.41-.8-.59-1.51-.27-2s1.08-.55,2.08-.2a7.89,7.89,0,0,1,4.69,6.1C666.32,262.74,666,263.47,665.51,263.64Z" transform="translate(-57.23 -23.96)" fill="#7ca566"/><path d="M660.4,289.7c-.72-.61-.75-1.82-.54-3.27a46.46,46.46,0,0,1,1.15-5.05,47.36,47.36,0,0,1,1.52-4.95c.55-1.36,1.18-2.4,2.11-2.57s1.94.65,2.63,2.36a9.7,9.7,0,0,1,.63,3.08,12.56,12.56,0,0,1-1.95,7.32,9.59,9.59,0,0,1-2.1,2.35C662.4,290.11,661.08,290.3,660.4,289.7Z" transform="translate(-57.23 -23.96)" fill="#7ca566"/><path d="M639.14,302.63c.07-.74.85-1.32,1.89-1.84a35.23,35.23,0,0,1,3.84-1.53,34.09,34.09,0,0,1,4-1.22c1.14-.25,2.1-.29,2.63.25s.42,1.56-.39,2.77a9.55,9.55,0,0,1-9.87,3.49C639.8,304.12,639.07,303.35,639.14,302.63Z" transform="translate(-57.23 -23.96)" fill="#7ca566"/><path d="M631.73,301.53c0,.54-.55,1.08-1.55,1.38a8,8,0,0,1-7.39-2c-.72-.76-.95-1.5-.67-2s1-.6,1.92-.56a17.2,17.2,0,0,1,3.22.59,17.88,17.88,0,0,1,3.08,1.08C631.15,300.5,631.72,301,631.73,301.53Z" transform="translate(-57.23 -23.96)" fill="#7ca566"/><path d="M654.23,280.05c-1.12,1.29-4.8-.06-7.91-3.31s-4.32-7-3-8.05,4.56.71,7.47,3.73S655.36,278.74,654.23,280.05Z" transform="translate(-57.23 -23.96)" fill="#7ca566"/><path d="M635.75,295.47c-.06.81-1,1.53-2.63,1.76a11.12,11.12,0,0,1-10.46-5.37c-.76-1.45-.74-2.64-.11-3.16s1.73-.39,3,0a48.47,48.47,0,0,1,8.44,4.33C635.06,293.84,635.81,294.63,635.75,295.47Z" transform="translate(-57.23 -23.96)" fill="#7ca566"/><path d="M606.06,278.8c-.72.1-1.48-.51-2.06-1.67a10.52,10.52,0,0,1,.47-9.26c.69-1.09,1.51-1.63,2.22-1.45s1.18,1,1.46,2.12a17.45,17.45,0,0,1-.42,8.29C607.34,277.93,606.79,278.7,606.06,278.8Z" transform="translate(-57.23 -23.96)" fill="#7ca566"/><g opacity="0.3"><path d="M652,297.75c.35,1.8-.27,3.75-2.08,5.58a17.17,17.17,0,0,1-8.82,4.23,28.15,28.15,0,0,1-6.66.48,33.16,33.16,0,0,1-7.62-1.3,36.06,36.06,0,0,1-24.54-25.05,33.06,33.06,0,0,1-1.14-7.66,28.15,28.15,0,0,1,.61-6.64,17.12,17.12,0,0,1,4.42-8.73,6.21,6.21,0,0,1,5.62-2,9.14,9.14,0,0,1,4.75,3.3,60.52,60.52,0,0,1,4.13,5.77,81.51,81.51,0,0,0,9.81,12.85,82.23,82.23,0,0,0,12.64,10.07,61.93,61.93,0,0,1,5.69,4.25A9.07,9.07,0,0,1,652,297.75Z" transform="translate(-57.23 -23.96)" fill="#4d8c84"/></g><path d="M518.91,135.39c-2.65-.08-5.42.26-7.4,1.63s-2.84,4-1.36,5.92a6.94,6.94,0,0,0,5.44,2.18,6.19,6.19,0,0,0,1-.1,3,3,0,0,1,3.37,3.55,20.46,20.46,0,0,1-5.72,10.54,47.89,47.89,0,0,0-7.09.07,12.91,12.91,0,0,1-3.73-6.64,1.92,1.92,0,0,1,2.05-2.35l.48,0a5.41,5.41,0,0,0,3.29-.74,2.46,2.46,0,0,0,.15-3.75,7,7,0,0,0-4.35-1.58,18.51,18.51,0,0,0-7.34.87,7.92,7.92,0,0,0-4.08,2.6,2.65,2.65,0,0,0,.47,3.84,4.46,4.46,0,0,0,3.74.13,5.48,5.48,0,0,0,.6-.29,1.88,1.88,0,0,1,2.79,1.39,12.92,12.92,0,0,1-1.16,7.63,48.11,48.11,0,0,0-8.92,3,18.15,18.15,0,0,1-7.57-6.72,2.68,2.68,0,0,1,1.56-4.07c.22-.06.44-.12.65-.2a7.6,7.6,0,0,0,4-2.55,3.46,3.46,0,0,0-1.6-5c-1.85-.86-4.26-.6-6.48,0a26.12,26.12,0,0,0-9.26,4.67c-1.86,1.48-3.57,3.3-4.13,5.38s.35,4.37,2.47,4.84a6.2,6.2,0,0,0,5-1.63,5.81,5.81,0,0,0,.65-.66,2.65,2.65,0,0,1,4.35.49,18.39,18.39,0,0,1,2.17,10.21,47.82,47.82,0,0,0-6.91,6,11,11,0,0,1-6-2.28,1.63,1.63,0,0,1,.05-2.64l.33-.25a4.61,4.61,0,0,0,1.73-2.27,2.1,2.1,0,0,0-1.95-2.53,6,6,0,0,0-3.69,1.34,15.76,15.76,0,0,0-4.29,4.58,6.72,6.72,0,0,0-1.24,3.91,2.25,2.25,0,0,0,2.41,2.24,3.73,3.73,0,0,0,2.49-1.95,3.56,3.56,0,0,0,.24-.52,1.59,1.59,0,0,1,2.57-.61,10.93,10.93,0,0,1,3.42,5.64,48.86,48.86,0,0,0-4.76,7.9,18.24,18.24,0,0,1-10.11-.28,2.69,2.69,0,0,1-1.41-4.13c.13-.18.25-.37.37-.57a7.57,7.57,0,0,0,1.4-4.5,3.46,3.46,0,0,0-4.45-2.82c-2,.53-3.65,2.28-5,4.16a26,26,0,0,0-4.09,9.53,11.26,11.26,0,0,0,.29,6.78c.9,1.95,3.08,3.12,5,2.12a6.25,6.25,0,0,0,2.77-4.45,5.65,5.65,0,0,0,.07-.93,2.64,2.64,0,0,1,3.65-2.41,18.25,18.25,0,0,1,8.22,6.42A48.39,48.39,0,0,0,462.57,206a11.73,11.73,0,0,1-2.84.49,1.62,1.62,0,0,1-1.66-2.05l.09-.4a4.63,4.63,0,0,0-.14-2.86,2.09,2.09,0,0,0-3.11-.68,5.92,5.92,0,0,0-2,3.4,15.75,15.75,0,0,0-.36,6.27,6.87,6.87,0,0,0,1.57,3.79,2.26,2.26,0,0,0,3.29.17,3.78,3.78,0,0,0,.65-3.11,2.72,2.72,0,0,0-.15-.54,1.6,1.6,0,0,1,1.58-2.13,12.72,12.72,0,0,1,3,.51A49,49,0,0,0,464.4,221a14.71,14.71,0,0,1-6,4.56,2.14,2.14,0,0,1-3-1.8c0-.18,0-.36-.07-.54a6,6,0,0,0-1.45-3.48,2.77,2.77,0,0,0-4.18.56,7.83,7.83,0,0,0-.9,5.11,20.71,20.71,0,0,0,2.39,7.94,9,9,0,0,0,3.67,4,3,3,0,0,0,4.15-1.27,5,5,0,0,0-.59-4.15,4.83,4.83,0,0,0-.43-.61,2.1,2.1,0,0,1,1-3.35,14.87,14.87,0,0,1,7.81-.44,48.7,48.7,0,0,0,5.84,9.81,13.81,13.81,0,0,1-2.48,3.09,1.86,1.86,0,0,1-3-.58,4.13,4.13,0,0,0-.22-.42,5.12,5.12,0,0,0-2.22-2.41,2.4,2.4,0,0,0-3.24,1.7,6.85,6.85,0,0,0,.78,4.43,18.15,18.15,0,0,0,4.31,5.76,7.83,7.83,0,0,0,4.18,2.18,2.59,2.59,0,0,0,3-2.27,4.29,4.29,0,0,0-1.71-3.21,5.14,5.14,0,0,0-.54-.37,1.83,1.83,0,0,1-.18-3,13.76,13.76,0,0,1,3.62-2,49.44,49.44,0,0,0,7.9,7.08,18.13,18.13,0,0,1-2,9.9,2.68,2.68,0,0,1-4.31.68c-.16-.16-.33-.32-.5-.46a7.51,7.51,0,0,0-4.19-2.17,3.47,3.47,0,0,0-3.55,3.9c.18,2,1.61,4,3.24,5.61a25.88,25.88,0,0,0,8.68,5.68c2.2.87,4.64,1.44,6.72.89s3.61-2.49,2.95-4.56a6.57,6.57,0,0,0-4.8-3.73,2.65,2.65,0,0,1-1.74-4,18.31,18.31,0,0,1,7.76-7c1.13.51,2.27,1,3.45,1.43a50,50,0,0,0,7.67,2.1,16.2,16.2,0,0,1,.06,4.29,2.12,2.12,0,0,1-3,1.67l-.49-.21a6,6,0,0,0-3.7-.47,2.73,2.73,0,0,0-1.59,3.85,7.77,7.77,0,0,0,3.93,3.3,20.68,20.68,0,0,0,8,1.87,8.85,8.85,0,0,0,5.24-1.15,3,3,0,0,0,1-4.19,4.87,4.87,0,0,0-3.84-1.55,4.51,4.51,0,0,0-.73.07,2.09,2.09,0,0,1-2.39-2.51,16.12,16.12,0,0,1,1.66-4.37,48.44,48.44,0,0,0,9.78,0c2.71,3.41,4.88,9.82,5.7,13.32a2.68,2.68,0,0,1-2.86,3.29l-.68,0a7.6,7.6,0,0,0-4.61,1,3.46,3.46,0,0,0-.21,5.26c1.44,1.45,3.8,2,6.09,2.22a26,26,0,0,0,10.3-1.23,11.27,11.27,0,0,0,5.72-3.63c1.24-1.76,1.16-4.23-.67-5.39a6.16,6.16,0,0,0-5.24-.18,6.4,6.4,0,0,0-.84.4,2.64,2.64,0,0,1-3.91-2c-.5-3.77-.59-10.95,1-15.13a48.71,48.71,0,0,0,7.7-3.17,14.82,14.82,0,0,1,3,3.36,2,2,0,0,1-1.16,3l-.48.15a5.65,5.65,0,0,0-2.94,1.89,2.56,2.56,0,0,0,1.19,3.71,7.27,7.27,0,0,0,4.79,0,19.32,19.32,0,0,0,6.84-3.46,8.31,8.31,0,0,0,3.05-4,2.77,2.77,0,0,0-1.82-3.58,4.62,4.62,0,0,0-3.69,1.21,5.6,5.6,0,0,0-.48.49,2,2,0,0,1-3.21-.37,14.89,14.89,0,0,1-1.51-4.46,48.81,48.81,0,0,0,9.08-7.35,14.84,14.84,0,0,1,6.93,2.92,2.14,2.14,0,0,1-.06,3.48c-.15.11-.3.22-.43.33a6,6,0,0,0-2.29,3,2.77,2.77,0,0,0,2.57,3.33,7.9,7.9,0,0,0,4.86-1.77,20.89,20.89,0,0,0,5.66-6,9,9,0,0,0,1.63-5.15,3,3,0,0,0-3.17-2.95,5,5,0,0,0-3.29,2.58,4.57,4.57,0,0,0-.31.67,2.11,2.11,0,0,1-3.39.82,14.83,14.83,0,0,1-4.26-6.51,48.23,48.23,0,0,0,5.73-10.37,12.3,12.3,0,0,1,2.86.52,1.62,1.62,0,0,1,.86,2.49l-.22.35A4.56,4.56,0,0,0,559,232a2.08,2.08,0,0,0,2.69,1.7,6,6,0,0,0,3-2.52,15.69,15.69,0,0,0,2.47-5.77,6.84,6.84,0,0,0-.17-4.1,2.26,2.26,0,0,0-3-1.28,3.74,3.74,0,0,0-1.68,2.69,3.43,3.43,0,0,0,0,.56,1.6,1.6,0,0,1-2.21,1.46,12.22,12.22,0,0,1-2.69-1.52,49.25,49.25,0,0,0,2.19-9.54,21.37,21.37,0,0,1,11.84-4.12,3.19,3.19,0,0,1,3.26,4q-.1.39-.18.78c-.37,1.87-.56,4,.26,5.6a4.11,4.11,0,0,0,6.11,1.34c2-1.4,3.14-4,3.84-6.67a30.77,30.77,0,0,0,.69-12.28c-.41-2.78-1.27-5.62-3.07-7.43s-4.7-2.24-6.44-.33c-1.34,1.47-1.67,3.94-1.28,6.08a6,6,0,0,0,.3,1.06,3.15,3.15,0,0,1-3.1,4.18,21.51,21.51,0,0,1-12.22-4.15,49,49,0,0,0-1.74-8.25,15.7,15.7,0,0,1,4.4-2.8,2.14,2.14,0,0,1,3,1.8c0,.18,0,.36.07.54a6.05,6.05,0,0,0,1.46,3.48,2.77,2.77,0,0,0,4.18-.56,7.94,7.94,0,0,0,.9-5.11,20.9,20.9,0,0,0-2.4-7.94,8.94,8.94,0,0,0-3.66-4,3,3,0,0,0-4.16,1.27,5,5,0,0,0,.59,4.16,5.72,5.72,0,0,0,.44.6,2.12,2.12,0,0,1-1,3.36,16.2,16.2,0,0,1-5.41.75,48.32,48.32,0,0,0-4.8-8.86,18.11,18.11,0,0,1,5.31-8.62,2.68,2.68,0,0,1,4.28.83c.09.21.2.41.31.61a7.56,7.56,0,0,0,3.2,3.47,3.47,3.47,0,0,0,4.67-2.45c.52-2-.16-4.3-1.13-6.38a25.92,25.92,0,0,0-6.21-8.31c-1.77-1.58-3.87-2.94-6-3.13s-4.25,1.1-4.34,3.27a6.2,6.2,0,0,0,2.47,4.62,4.76,4.76,0,0,0,.77.53,2.64,2.64,0,0,1,.26,4.37,18.32,18.32,0,0,1-9.67,3.9,48,48,0,0,0-7.77-6.2,15,15,0,0,1,1.4-4.26,2,2,0,0,1,3.19-.5l.36.34a5.61,5.61,0,0,0,3.1,1.6,2.56,2.56,0,0,0,2.63-2.88,7.28,7.28,0,0,0-2.4-4.14,19.12,19.12,0,0,0-6.41-4.2,8.3,8.3,0,0,0-5-.66,2.77,2.77,0,0,0-2.19,3.37,4.62,4.62,0,0,0,2.89,2.59,4.24,4.24,0,0,0,.66.17,2,2,0,0,1,1.29,3,14.69,14.69,0,0,1-3.11,3.54,49.21,49.21,0,0,0-6.09-2.72c-.93-.34-1.88-.64-2.82-.92a20.11,20.11,0,0,1-1.8-11.51,3,3,0,0,1,4.26-2.36c.23.11.47.21.7.3a8.49,8.49,0,0,0,5.23.67,3.87,3.87,0,0,0,2.24-5.45c-1-2.07-3.22-3.57-5.55-4.65A29,29,0,0,0,518.91,135.39Z" transform="translate(-57.23 -23.96)" fill="#adbf53"/><path d="M477,204.13c1.67.3,2.82,2.15,3.88,4.5.52,1.19,1.06,2.52,1.57,4s1.07,2.95,1.63,4.56,1.15,3.11,1.63,4.56.95,2.8,1.3,4c.67,2.49.95,4.65-.14,5.95s-3.49,1.29-6.4-.44a16.65,16.65,0,0,1-4.33-3.85,21.7,21.7,0,0,1-4.71-13.14,16.61,16.61,0,0,1,.9-5.73C473.45,205.35,475.35,203.83,477,204.13Z" transform="translate(-57.23 -23.96)" fill="#7ca566"/><path d="M514.83,242.49c-.05,1.29-1.46,2.45-3.89,3a18.86,18.86,0,0,1-17.06-5.78c-1.58-1.91-2-3.7-1.26-4.74s2.48-1.26,4.61-1a39.66,39.66,0,0,1,7.47,1.89,40.38,40.38,0,0,1,7.08,3C513.62,240,514.87,241.18,514.83,242.49Z" transform="translate(-57.23 -23.96)" fill="#7ca566"/><path d="M545.68,215.09c1.14.26,1.94,1.74,2,4a17.36,17.36,0,0,1-8.06,14.4c-2,1.11-3.66,1.2-4.48.36s-.74-2.45-.15-4.33a44.21,44.21,0,0,1,6.89-12.31C543.21,215.74,544.5,214.82,545.68,215.09Z" transform="translate(-57.23 -23.96)" fill="#7ca566"/><ellipse cx="521.61" cy="196.97" rx="6.94" ry="17.54" transform="translate(-91.79 133.69) rotate(-16.64)" fill="#7ca566"/><path d="M496.29,209.7c1-1.11,3.06-1,5.48-.33a48,48,0,0,1,15.71,9.12c1.82,1.75,2.87,3.47,2.43,4.92s-2.35,2.3-5.19,2.28a23.12,23.12,0,0,1-17.83-10.36C495.46,212.88,495.27,210.78,496.29,209.7Z" transform="translate(-57.23 -23.96)" fill="#7ca566"/><path d="M529.6,228.47c.43.51.29,1.47-.5,2.53a9.19,9.19,0,0,1-9.05,3.06c-1.27-.36-2-1-1.93-1.7s.73-1.25,1.69-1.76a26.64,26.64,0,0,1,3.62-1.45,25.34,25.34,0,0,1,3.76-1C528.26,227.92,529.16,228,529.6,228.47Z" transform="translate(-57.23 -23.96)" fill="#7ca566"/><path d="M490.91,218.29c1.17-.58,3.21,1.19,5,3.68s2.75,5,1.83,5.92-3.64-.38-5.65-3.22S489.76,218.85,490.91,218.29Z" transform="translate(-57.23 -23.96)" fill="#7ca566"/><path d="M496,182.62c1,.85,1,2.58.56,4.67a48.46,48.46,0,0,1-6.33,14c-1.27,1.73-2.58,2.85-3.88,2.67s-2.28-1.7-2.59-4.16a18.93,18.93,0,0,1,7.4-16.38C493.23,182,495,181.78,496,182.62Z" transform="translate(-57.23 -23.96)" fill="#7ca566"/><path d="M483.18,180.39c.5.49.46,1.41.16,2.5a28.8,28.8,0,0,1-3.55,7.28c-.68.91-1.38,1.51-2.08,1.41s-1.22-.9-1.37-2.23a9.78,9.78,0,0,1,4.23-8.67C481.71,180,482.69,179.91,483.18,180.39Z" transform="translate(-57.23 -23.96)" fill="#7ca566"/><path d="M515.31,171.58c-.29,1.14-1.63,1.86-3.37,2.43a57.6,57.6,0,0,1-6.33,1.52,59,59,0,0,1-6.41,1.06c-1.83.15-3.35,0-4.06-.93s-.35-2.54,1.18-4.27a12.38,12.38,0,0,1,3.11-2.44,15.84,15.84,0,0,1,9.32-1.89,12.27,12.27,0,0,1,3.81,1C514.64,169.1,515.59,170.48,515.31,171.58Z" transform="translate(-57.23 -23.96)" fill="#7ca566"/><path d="M541.71,188.24c-.88.33-2-.22-3.13-1.1a43.92,43.92,0,0,1-3.86-3.46,45.78,45.78,0,0,1-3.58-3.75c-.91-1.14-1.5-2.21-1.19-3.09s1.53-1.35,3.34-1.12a12,12,0,0,1,9.43,9.15C543,186.67,542.55,187.91,541.71,188.24Z" transform="translate(-57.23 -23.96)" fill="#7ca566"/><path d="M544.6,197.18c.61-.33,1.52,0,2.43,1a9.45,9.45,0,0,1,2.15,4.46,9.31,9.31,0,0,1-.23,4.93c-.45,1.25-1.16,1.92-1.84,1.86s-1.25-.8-1.7-1.85a26.54,26.54,0,0,1-1.64-8C543.77,198.4,544,197.51,544.6,197.18Z" transform="translate(-57.23 -23.96)" fill="#7ca566"/><path d="M507.91,183.9c2.08.54,2.61,5.42.69,10.74s-5.43,8.74-7.38,7.83-1.75-5.53,0-10.48S505.81,183.35,507.91,183.9Z" transform="translate(-57.23 -23.96)" fill="#7ca566"/><path d="M535.55,196.05c1-.39,2.29.29,3.45,2a13.92,13.92,0,0,1-.19,14.75c-1.2,1.66-2.55,2.3-3.49,1.89s-1.41-1.72-1.64-3.38a43.6,43.6,0,0,1-.21-5.95,42.78,42.78,0,0,1,.37-5.94C534.1,197.74,534.57,196.45,535.55,196.05Z" transform="translate(-57.23 -23.96)" fill="#7ca566"/><path d="M533.4,238.71c.52.76.26,2-.72,3.25A13.14,13.14,0,0,1,522,246.61c-1.61-.17-2.67-.79-2.87-1.68s.46-1.89,1.57-2.83a21.86,21.86,0,0,1,9.55-4.16C531.71,237.76,532.88,238,533.4,238.71Z" transform="translate(-57.23 -23.96)" fill="#7ca566"/><g opacity="0.3"><path d="M532,235.23c.44,2.26-.34,4.7-2.61,7s-6,4.3-11.07,5.32a35.69,35.69,0,0,1-8.35.6,42.08,42.08,0,0,1-9.57-1.63,45.25,45.25,0,0,1-30.79-31.44,41.05,41.05,0,0,1-1.43-9.6,35.17,35.17,0,0,1,.77-8.34c1.12-5,3.21-8.74,5.54-10.95s4.8-3,7-2.46,4.2,2.08,6,4.13a74.36,74.36,0,0,1,5.18,7.24A103.29,103.29,0,0,0,505,211.21a102.37,102.37,0,0,0,15.86,12.64,75.78,75.78,0,0,1,7.14,5.33C530,231,531.54,232.93,532,235.23Z" transform="translate(-57.23 -23.96)" fill="#4d8c84"/></g><path d="M662.9,93.2a10,10,0,0,0-3.22-5.06,3.3,3.3,0,0,0-4.76.6,5.44,5.44,0,0,0-.15,4.63,5,5,0,0,0,.35.74,2.33,2.33,0,0,1-1.72,3.46A16.07,16.07,0,0,1,644,96.18a37.39,37.39,0,0,0-2-5.24A10.11,10.11,0,0,1,646,86.36a1.52,1.52,0,0,1,2.3.89c0,.12.07.24.11.36a4.27,4.27,0,0,0,1.44,2.24,2,2,0,0,0,2.83-.9,5.53,5.53,0,0,0,0-3.66A14.72,14.72,0,0,0,650,80.07a6.31,6.31,0,0,0-3-2.33,2.1,2.1,0,0,0-2.72,1.4,3.47,3.47,0,0,0,.92,2.81,3.23,3.23,0,0,0,.37.37,1.49,1.49,0,0,1-.28,2.45,10.31,10.31,0,0,1-6,1.21,38.53,38.53,0,0,0-4.68-5.81,14.46,14.46,0,0,1,2.94-7.45,2.12,2.12,0,0,1,3.45.06c.11.15.21.29.33.43a5.9,5.9,0,0,0,3,2.26,2.74,2.74,0,0,0,3.3-2.55,7.85,7.85,0,0,0-1.76-4.81,20.44,20.44,0,0,0-6-5.61,8.74,8.74,0,0,0-5.11-1.61A2.94,2.94,0,0,0,631.81,64a4.87,4.87,0,0,0,2.56,3.26,4.13,4.13,0,0,0,.67.31,2.09,2.09,0,0,1,.81,3.36,14.52,14.52,0,0,1-7,4.38,38.07,38.07,0,0,0-6.31-3.51,8.6,8.6,0,0,1,.06-5.07,1.29,1.29,0,0,1,2-.68l.27.17a3.56,3.56,0,0,0,2.16.67,1.66,1.66,0,0,0,1.35-2.13,4.73,4.73,0,0,0-2-2.37,12.36,12.36,0,0,0-4.56-2,5.41,5.41,0,0,0-3.25.14,1.8,1.8,0,0,0-1,2.4,3,3,0,0,0,2.13,1.32,2.15,2.15,0,0,0,.45,0,1.26,1.26,0,0,1,1.15,1.75A8.75,8.75,0,0,1,618,70.18a38.6,38.6,0,0,0-7.16-1.4,14.31,14.31,0,0,1-2.53-7.58A2.12,2.12,0,0,1,611,59l.52.12a6.05,6.05,0,0,0,3.73-.18,2.75,2.75,0,0,0,.89-4.08,7.78,7.78,0,0,0-4.44-2.55,20.55,20.55,0,0,0-8.19-.46,9,9,0,0,0-5,2.06,3,3,0,0,0-.21,4.29,4.92,4.92,0,0,0,4,.85,3.78,3.78,0,0,0,.71-.2,2.1,2.1,0,0,1,2.79,2.06,14.55,14.55,0,0,1-2.55,7.84,38.72,38.72,0,0,0-8.18,1.71,9.91,9.91,0,0,1-1.14-2,1.29,1.29,0,0,1,1.08-1.79l.32,0a3.56,3.56,0,0,0,2.08-.87,1.65,1.65,0,0,0-.33-2.5,4.73,4.73,0,0,0-3.06-.54,12.48,12.48,0,0,0-4.75,1.44A5.41,5.41,0,0,0,587,66.4a1.79,1.79,0,0,0,.77,2.49,2.93,2.93,0,0,0,2.48-.36,1.83,1.83,0,0,0,.36-.26,1.27,1.27,0,0,1,2,.6,9.88,9.88,0,0,1,.45,2.39,38.65,38.65,0,0,0-8.52,4.66,11.59,11.59,0,0,1-5-3.24A1.69,1.69,0,0,1,580,70l.39-.2a4.81,4.81,0,0,0,2.19-2,2.19,2.19,0,0,0-1.55-3,6.24,6.24,0,0,0-4,.72,16.42,16.42,0,0,0-5.25,3.93,7.05,7.05,0,0,0-2,3.81A2.36,2.36,0,0,0,571.84,76a3.92,3.92,0,0,0,2.93-1.57,3.38,3.38,0,0,0,.33-.48,1.67,1.67,0,0,1,2.76-.17,11.72,11.72,0,0,1,2.44,5.68,38.43,38.43,0,0,0-5.7,7,11.1,11.1,0,0,1-3-1,1.47,1.47,0,0,1-.37-2.36,3.33,3.33,0,0,0,.25-.28,4.11,4.11,0,0,0,1.19-2.3,1.9,1.9,0,0,0-2.14-2,5.42,5.42,0,0,0-3.08,1.78,14.6,14.6,0,0,0-3.12,4.77,6.17,6.17,0,0,0-.48,3.69,2,2,0,0,0,2.5,1.62,3.4,3.4,0,0,0,1.92-2.14,2.62,2.62,0,0,0,.13-.5,1.45,1.45,0,0,1,2.2-1A10.92,10.92,0,0,1,573.12,89,38.3,38.3,0,0,0,570,96.76a14.39,14.39,0,0,1-7.91,1.17,2.12,2.12,0,0,1-1.67-3c.07-.17.15-.33.21-.5a6,6,0,0,0,.47-3.7,2.73,2.73,0,0,0-3.86-1.58A7.8,7.8,0,0,0,554,93.07a20.45,20.45,0,0,0-1.86,8,8.85,8.85,0,0,0,1.16,5.24,2.94,2.94,0,0,0,4.18,1A4.9,4.9,0,0,0,559,103.4a3.71,3.71,0,0,0-.08-.73,2.1,2.1,0,0,1,2.52-2.39,14.47,14.47,0,0,1,7.29,3.88c-.08,1-.13,2-.13,3a39.17,39.17,0,0,0,.52,6.26,12.78,12.78,0,0,1-3.17,1.22,1.68,1.68,0,0,1-2.06-1.79c0-.15,0-.29,0-.43a4.7,4.7,0,0,0-.65-2.88,2.16,2.16,0,0,0-3.29-.13,6.1,6.1,0,0,0-1.39,3.81,16.2,16.2,0,0,0,.78,6.44,7,7,0,0,0,2.28,3.58,2.33,2.33,0,0,0,3.37-.42,3.89,3.89,0,0,0,.1-3.28,2.76,2.76,0,0,0-.25-.52,1.65,1.65,0,0,1,1.22-2.45,12.39,12.39,0,0,1,3.7,0,38.39,38.39,0,0,0,2.63,7.27c-1.79,2.94-6,6.29-8.34,7.85a2.12,2.12,0,0,1-3.22-1.24c-.05-.17-.1-.34-.16-.51a6,6,0,0,0-2-3.14,2.74,2.74,0,0,0-4,1.27,7.74,7.74,0,0,0,0,5.12,20.43,20.43,0,0,0,3.7,7.32,8.9,8.9,0,0,0,4.25,3.27,3,3,0,0,0,3.83-2,4.91,4.91,0,0,0-1.29-3.94,6.53,6.53,0,0,0-.53-.52,2.1,2.1,0,0,1,.39-3.44c2.66-1.38,8-3.4,11.51-3.36a38.55,38.55,0,0,0,4.44,4.86,11.7,11.7,0,0,1-1.68,3.13,1.57,1.57,0,0,1-2.55,0l-.24-.32a4.42,4.42,0,0,0-2.2-1.67,2,2,0,0,0-2.43,1.89,5.71,5.71,0,0,0,1.3,3.55,15.09,15.09,0,0,0,4.42,4.15,6.49,6.49,0,0,0,3.78,1.19,2.18,2.18,0,0,0,2.16-2.32,3.61,3.61,0,0,0-1.89-2.41,3.81,3.81,0,0,0-.5-.23,1.55,1.55,0,0,1-.6-2.49,12,12,0,0,1,2.91-2.33,38.46,38.46,0,0,0,7.92,4.76,11.77,11.77,0,0,1-.29,5.94,1.68,1.68,0,0,1-2.6.89l-.36-.23a4.8,4.8,0,0,0-2.84-.88,2.18,2.18,0,0,0-1.78,2.81,6.25,6.25,0,0,0,2.63,3.13,16.33,16.33,0,0,0,6,2.57,7.08,7.08,0,0,0,4.27-.19,2.35,2.35,0,0,0,1.34-3.15,4,4,0,0,0-2.81-1.75,3.73,3.73,0,0,0-.59,0,1.67,1.67,0,0,1-1.52-2.3,11.72,11.72,0,0,1,3.68-4.93,38.6,38.6,0,0,0,9.26,1.45,10.47,10.47,0,0,1,.39,2.26,1.28,1.28,0,0,1-1.62,1.31l-.32-.07a3.62,3.62,0,0,0-2.26.11,1.65,1.65,0,0,0-.54,2.46,4.74,4.74,0,0,0,2.69,1.55,12.56,12.56,0,0,0,5,.28,5.4,5.4,0,0,0,3-1.25,1.78,1.78,0,0,0,.13-2.59,3,3,0,0,0-2.46-.52,3.31,3.31,0,0,0-.42.12,1.27,1.27,0,0,1-1.69-1.24,10.12,10.12,0,0,1,.4-2.41,38.9,38.9,0,0,0,7.69-1,17,17,0,0,1,6.27,7.69,2.52,2.52,0,0,1-2.11,3.51c-.21,0-.43,0-.63.08a7,7,0,0,0-4.09,1.71,3.25,3.25,0,0,0,.66,4.9c1.58,1.09,3.85,1.24,6,1a24.42,24.42,0,0,0,9.32-2.82,10.58,10.58,0,0,0,4.69-4.3c.86-1.83.38-4.1-1.5-4.87a5.82,5.82,0,0,0-4.87.7,4.68,4.68,0,0,0-.71.51,2.49,2.49,0,0,1-3.94-1.17,17.09,17.09,0,0,1-.24-10.2,37.85,37.85,0,0,0,5.66-3.54,12.66,12.66,0,0,1,3.28,2.52,1.7,1.7,0,0,1-.53,2.71l-.38.19a4.76,4.76,0,0,0-2.19,2,2.19,2.19,0,0,0,1.55,2.95,6.24,6.24,0,0,0,4-.72,16.42,16.42,0,0,0,5.25-3.93,7.2,7.2,0,0,0,2-3.8,2.37,2.37,0,0,0-2.08-2.75,4,4,0,0,0-2.92,1.57,4.07,4.07,0,0,0-.33.48,1.68,1.68,0,0,1-2.77.17,12.49,12.49,0,0,1-2-3.81,38.44,38.44,0,0,0,5.28-6,14.38,14.38,0,0,1,7.84,1.6,2.12,2.12,0,0,1,.54,3.41c-.12.13-.25.26-.36.39a6,6,0,0,0-1.71,3.32,2.74,2.74,0,0,0,3.08,2.81,7.76,7.76,0,0,0,4.44-2.57,20.47,20.47,0,0,0,4.48-6.87,8.76,8.76,0,0,0,.7-5.31,2.93,2.93,0,0,0-3.6-2.33,4.9,4.9,0,0,0-2.77,3.08,4.21,4.21,0,0,0-.18.72,2.1,2.1,0,0,1-3.18,1.38,14.49,14.49,0,0,1-5.52-6.13,37.81,37.81,0,0,0,2.5-7.46,11.7,11.7,0,0,1,3.55-.11,1.57,1.57,0,0,1,1.23,2.23c-.05.12-.11.25-.15.37a4.36,4.36,0,0,0-.35,2.73,2,2,0,0,0,2.85,1.17,5.69,5.69,0,0,0,2.43-2.9,15.35,15.35,0,0,0,1.38-5.9,6.54,6.54,0,0,0-.86-3.87,2.18,2.18,0,0,0-3.09-.71,3.61,3.61,0,0,0-1.14,2.85,3.5,3.5,0,0,0,0,.54,1.54,1.54,0,0,1-1.85,1.76,11.77,11.77,0,0,1-3.47-1.35,39.71,39.71,0,0,0,.36-5.26c0-.79,0-1.57-.07-2.35a15.88,15.88,0,0,1,8.05-4.46,2.37,2.37,0,0,1,2.91,2.53l0,.6a6.77,6.77,0,0,0,.92,4.07,3.07,3.07,0,0,0,4.66.18c1.27-1.27,1.78-3.36,2-5.38A22.89,22.89,0,0,0,662.9,93.2Z" transform="translate(-57.23 -23.96)" fill="#adbf53"/><path d="M600.46,80.67c.22,1.32-.84,2.68-2.3,4.11-.74.7-1.58,1.47-2.51,2.23s-1.9,1.6-2.94,2.45-2,1.7-2.94,2.45-1.83,1.46-2.66,2.06c-1.66,1.18-3.19,2-4.45,1.51s-1.91-2.24-1.41-4.87a12.89,12.89,0,0,1,1.69-4.27,17.08,17.08,0,0,1,8.48-7.06,13,13,0,0,1,4.5-.88C598.6,78.39,600.24,79.4,600.46,80.67Z" transform="translate(-57.23 -23.96)" fill="#7ca566"/><path d="M582.22,119.21c-1,.31-2.21-.42-3.28-2.07a14.91,14.91,0,0,1-.34-14.24c1-1.7,2.21-2.49,3.18-2.22s1.61,1.5,2,3.15a31.34,31.34,0,0,1,.62,6.06,31.27,31.27,0,0,1-.34,6.08C583.76,117.63,583.21,118.89,582.22,119.21Z" transform="translate(-57.23 -23.96)" fill="#7ca566"/><path d="M611,134.7c.11.92-.77,1.91-2.43,2.6a13.76,13.76,0,0,1-12.88-2.09c-1.37-1.17-1.89-2.39-1.49-3.23s1.62-1.21,3.17-1.29a34.69,34.69,0,0,1,11,1.79C609.8,133,610.83,133.75,611,134.7Z" transform="translate(-57.23 -23.96)" fill="#7ca566"/><ellipse cx="617.89" cy="111.9" rx="13.87" ry="5.49" transform="translate(-1.65 367.44) rotate(-36.7)" fill="#7ca566"/><path d="M601.56,96.55c1.11.47,1.61,2,1.73,4a31.31,31.31,0,0,1-.58,7.19,32.28,32.28,0,0,1-1.93,7c-.81,1.83-1.8,3.07-3,3.14s-2.35-1.12-3.1-3.24a18.27,18.27,0,0,1,2.86-16C599,96.79,600.48,96.08,601.56,96.55Z" transform="translate(-57.23 -23.96)" fill="#7ca566"/><path d="M596.64,126.38c-.26.46-1,.61-2,.31a7.26,7.26,0,0,1-4.73-5.89c-.07-1,.24-1.74.74-1.89s1.13.2,1.77.78a21.41,21.41,0,0,1,2.06,2.29,19.38,19.38,0,0,1,1.79,2.51C596.69,125.24,596.91,125.91,596.64,126.38Z" transform="translate(-57.23 -23.96)" fill="#7ca566"/><path d="M593.72,94.88c.74.71,0,2.7-1.38,4.7s-3,3.4-3.9,3-.71-2.8.85-5.06S593,94.17,593.72,94.88Z" transform="translate(-57.23 -23.96)" fill="#7ca566"/><path d="M621.6,89c-.36,1-1.64,1.46-3.32,1.69a38.25,38.25,0,0,1-12.12-.91c-1.62-.47-2.81-1.15-3-2.16s.65-2.15,2.39-3a15,15,0,0,1,14.18,1.06C621.29,86.77,622,88,621.6,89Z" transform="translate(-57.23 -23.96)" fill="#7ca566"/><path d="M619.78,78.85c-.23.51-.92.73-1.81.8a17.31,17.31,0,0,1-3.22-.11,18.34,18.34,0,0,1-3.16-.55c-.86-.26-1.49-.62-1.61-1.16s.34-1.15,1.29-1.63a7.74,7.74,0,0,1,7.59.8C619.68,77.65,620,78.36,619.78,78.85Z" transform="translate(-57.23 -23.96)" fill="#7ca566"/><path d="M635,100.34c-.93.09-1.82-.71-2.73-1.85a45.63,45.63,0,0,1-2.84-4.29,46.92,46.92,0,0,1-2.53-4.47c-.6-1.32-.91-2.49-.41-3.27s1.8-.95,3.5-.28a9.47,9.47,0,0,1,2.65,1.65,12.64,12.64,0,0,1,2.46,2.9,12.77,12.77,0,0,1,1.47,3.51,9.64,9.64,0,0,1,.27,3.11C636.7,99.17,635.93,100.25,635,100.34Z" transform="translate(-57.23 -23.96)" fill="#7ca566"/><path d="M629.82,124.46c-.48-.55-.37-1.51,0-2.61a33.75,33.75,0,0,1,1.52-3.81,34.16,34.16,0,0,1,1.82-3.68c.6-1,1.23-1.71,2-1.72s1.42.77,1.73,2.18a9.47,9.47,0,0,1-4.23,9.48C631.34,125,630.29,125,629.82,124.46Z" transform="translate(-57.23 -23.96)" fill="#7ca566"/><path d="M624,129c.4.36.39,1.13-.08,2.07a8,8,0,0,1-6.45,4c-1.05,0-1.74-.34-1.88-.86s.26-1.14.92-1.76a15.76,15.76,0,0,1,2.62-1.92,16.86,16.86,0,0,1,2.88-1.48C622.83,128.76,623.55,128.68,624,129Z" transform="translate(-57.23 -23.96)" fill="#7ca566"/><path d="M623.88,98.18c.16,1.69-3.32,3.41-7.79,3.43s-8-1.67-7.82-3.36,3.63-2.8,7.79-2.83S623.71,96.47,623.88,98.18Z" transform="translate(-57.23 -23.96)" fill="#7ca566"/><path d="M622.35,122c.54.6.4,1.78-.54,3.1a11,11,0,0,1-11,3.86c-1.56-.45-2.4-1.28-2.35-2.09s.9-1.51,2.06-2.13a35.49,35.49,0,0,1,4.37-1.77,33.94,33.94,0,0,1,4.51-1.34C620.7,121.39,621.79,121.39,622.35,122Z" transform="translate(-57.23 -23.96)" fill="#7ca566"/><path d="M590.07,132c-.42.59-1.39.72-2.61.35a10.46,10.46,0,0,1-6.35-6.67c-.31-1.24-.13-2.2.47-2.58s1.53-.18,2.53.39a17.27,17.27,0,0,1,5.68,6C590.32,130.47,590.49,131.39,590.07,132Z" transform="translate(-57.23 -23.96)" fill="#7ca566"/><path d="M623.64,130.15a6.17,6.17,0,0,1-2.07,5.54,16.94,16.94,0,0,1-8.75,4.2,27.78,27.78,0,0,1-6.61.47,32.81,32.81,0,0,1-7.57-1.29,35.8,35.8,0,0,1-24.34-24.85,32.58,32.58,0,0,1-1.14-7.6,27.86,27.86,0,0,1,.61-6.6,17.05,17.05,0,0,1,4.39-8.66c1.85-1.75,3.79-2.33,5.57-2a9,9,0,0,1,4.71,3.27,58.72,58.72,0,0,1,4.1,5.73,81.5,81.5,0,0,0,9.74,12.75,81,81,0,0,0,12.54,10,61.06,61.06,0,0,1,5.65,4.21A9.15,9.15,0,0,1,623.64,130.15Z" transform="translate(-57.23 -23.96)" fill="#4d8c84" opacity="0.3"/><path d="M472.06,73.77a6.1,6.1,0,0,0-3.59-1.08,2.06,2.06,0,0,0-2,2.23,3.43,3.43,0,0,0,1.82,2.25,4,4,0,0,0,.47.21,1.46,1.46,0,0,1,.6,2.34,10.08,10.08,0,0,1-5,3.17,22.9,22.9,0,0,0-3.07-1.67,6.3,6.3,0,0,1,0-3.77.93.93,0,0,1,1.44-.52l.21.12a2.63,2.63,0,0,0,1.59.48,1.23,1.23,0,0,0,1-1.59,3.5,3.5,0,0,0-1.5-1.73,9.21,9.21,0,0,0-3.38-1.39,4,4,0,0,0-2.39.13,1.31,1.31,0,0,0-.72,1.78,2.18,2.18,0,0,0,1.58,1,1.22,1.22,0,0,0,.33,0,.94.94,0,0,1,.87,1.28,6.38,6.38,0,0,1-2.34,3,24.7,24.7,0,0,0-4.59-.83,9.16,9.16,0,0,1-1.65-4.73,1.33,1.33,0,0,1,1.66-1.38l.33.07A3.76,3.76,0,0,0,456,73a1.72,1.72,0,0,0,.52-2.56,4.88,4.88,0,0,0-2.8-1.56,12.8,12.8,0,0,0-5.12-.21A5.55,5.55,0,0,0,445.53,70a1.84,1.84,0,0,0-.1,2.69,3.08,3.08,0,0,0,2.54.5,3.19,3.19,0,0,0,.44-.13,1.3,1.3,0,0,1,1.76,1.26,9,9,0,0,1-1.52,4.93,23.42,23.42,0,0,0-4.43.92,5.45,5.45,0,0,1-2-2.43.81.81,0,0,1,.66-1.13l.2,0a2.27,2.27,0,0,0,1.3-.56,1,1,0,0,0-.23-1.56,2.87,2.87,0,0,0-1.92-.31,7.61,7.61,0,0,0-3,.94,3.33,3.33,0,0,0-1.48,1.39,1.13,1.13,0,0,0,.5,1.55,1.86,1.86,0,0,0,1.55-.25,1.6,1.6,0,0,0,.23-.16.79.79,0,0,1,1.26.35,5.51,5.51,0,0,1,.12,3.26,23.87,23.87,0,0,0-4,2.27,9,9,0,0,1-4.29-2.56,1.32,1.32,0,0,1,.38-2.12l.3-.16A3.72,3.72,0,0,0,435.52,77a1.71,1.71,0,0,0-1.24-2.29,4.89,4.89,0,0,0-3.15.6,12.9,12.9,0,0,0-4.06,3.13,5.55,5.55,0,0,0-1.51,3,1.85,1.85,0,0,0,1.65,2.12,3.1,3.1,0,0,0,2.27-1.25,2.59,2.59,0,0,0,.25-.39,1.31,1.31,0,0,1,2.16-.16,9,9,0,0,1,2,4.75,23.72,23.72,0,0,0-3.17,4.16,6.38,6.38,0,0,1-1.35-.48.79.79,0,0,1-.22-1.28c0-.05.09-.1.13-.16a2.23,2.23,0,0,0,.63-1.26,1,1,0,0,0-1.18-1.05,2.92,2.92,0,0,0-1.66,1,7.76,7.76,0,0,0-1.67,2.62,3.34,3.34,0,0,0-.23,2,1.11,1.11,0,0,0,1.37.86,1.83,1.83,0,0,0,1-1.18,2.68,2.68,0,0,0,.07-.27.79.79,0,0,1,1.19-.54,6.13,6.13,0,0,1,1.19,1,24.52,24.52,0,0,0-2.13,5.68,7.14,7.14,0,0,1-3.7.52,1.06,1.06,0,0,1-.86-1.49c0-.09.07-.17.1-.25a3,3,0,0,0,.21-1.86,1.36,1.36,0,0,0-1.93-.76,3.83,3.83,0,0,0-1.62,2,10.17,10.17,0,0,0-.88,4,4.42,4.42,0,0,0,.61,2.61,1.46,1.46,0,0,0,2.1.45,2.61,2.61,0,0,0,.71-2.3,1,1,0,0,1,1.24-1.21,7.31,7.31,0,0,1,3.47,1.7,24.75,24.75,0,0,0,.16,5.64,7.18,7.18,0,0,1-1.81.74.93.93,0,0,1-1.15-1,1.85,1.85,0,0,0,0-.23,2.57,2.57,0,0,0-.38-1.58,1.19,1.19,0,0,0-1.81,0,3.48,3.48,0,0,0-.73,2.1,8.84,8.84,0,0,0,.48,3.53,3.81,3.81,0,0,0,1.27,1.95,1.28,1.28,0,0,0,1.85-.26,2.13,2.13,0,0,0,0-1.8,1.22,1.22,0,0,0-.14-.28.92.92,0,0,1,.65-1.36,7.11,7.11,0,0,1,2.06,0,24.32,24.32,0,0,0,1.7,5,9,9,0,0,1-3.26,3.78,1.34,1.34,0,0,1-2-.74,3,3,0,0,0-.1-.32,3.76,3.76,0,0,0-1.29-2,1.72,1.72,0,0,0-2.47.83,4.82,4.82,0,0,0,.05,3.2,12.87,12.87,0,0,0,2.37,4.55,5.58,5.58,0,0,0,2.69,2,1.85,1.85,0,0,0,2.38-1.26A3.1,3.1,0,0,0,427,121a2.46,2.46,0,0,0-.33-.31,1.32,1.32,0,0,1,.22-2.16,9,9,0,0,1,5-1.14c.37.49.74,1,1.15,1.45a24.2,24.2,0,0,0,2.8,2.75,7.67,7.67,0,0,1-1,1.87,1.05,1.05,0,0,1-1.71,0l-.16-.21a3,3,0,0,0-1.49-1.09,1.35,1.35,0,0,0-1.61,1.28,3.84,3.84,0,0,0,.9,2.37,10.18,10.18,0,0,0,3,2.73,4.28,4.28,0,0,0,2.54.76,1.45,1.45,0,0,0,1.42-1.57,2.45,2.45,0,0,0-1.29-1.6,2.52,2.52,0,0,0-.33-.14,1,1,0,0,1-.42-1.66,7.78,7.78,0,0,1,1.76-1.49,24.07,24.07,0,0,0,4.22,2.37,19.82,19.82,0,0,1-.74,7.12,1.33,1.33,0,0,1-2,.73l-.29-.18a3.71,3.71,0,0,0-2.24-.66,1.72,1.72,0,0,0-1.36,2.22,4.93,4.93,0,0,0,2.1,2.43,12.84,12.84,0,0,0,4.74,1.95,5.56,5.56,0,0,0,3.35-.19,1.85,1.85,0,0,0,1-2.49,3.09,3.09,0,0,0-2.22-1.34,3.44,3.44,0,0,0-.46,0,1.31,1.31,0,0,1-1.22-1.79,18.64,18.64,0,0,1,4.07-6.29,24.56,24.56,0,0,0,4.09.49,7.53,7.53,0,0,1,.49,2.17,1,1,0,0,1-1.23,1l-.24-.05a2.71,2.71,0,0,0-1.72.1,1.26,1.26,0,0,0-.39,1.89,3.59,3.59,0,0,0,2.07,1.15,9.48,9.48,0,0,0,3.79.16,4.13,4.13,0,0,0,2.27-1,1.36,1.36,0,0,0,.08-2,2.26,2.26,0,0,0-1.88-.37,1.39,1.39,0,0,0-.33.1,1,1,0,0,1-1.3-.94,7.31,7.31,0,0,1,.42-2.29,24.14,24.14,0,0,0,5.7-1,7.2,7.2,0,0,1,2.28,2.93,1.06,1.06,0,0,1-.86,1.49l-.27,0a3,3,0,0,0-1.7.75,1.36,1.36,0,0,0,.3,2.05,3.94,3.94,0,0,0,2.53.41,10.14,10.14,0,0,0,3.89-1.24,4.45,4.45,0,0,0,1.95-1.83,1.47,1.47,0,0,0-.66-2,2.43,2.43,0,0,0-2,.32,1.48,1.48,0,0,0-.29.22,1.05,1.05,0,0,1-1.67-.47,7.38,7.38,0,0,1-.27-3.83,23.86,23.86,0,0,0,5-3.1,6,6,0,0,1,1.11.91.8.8,0,0,1-.23,1.28l-.18.1a2.31,2.31,0,0,0-1,1,1,1,0,0,0,.75,1.39,2.9,2.9,0,0,0,1.91-.37,7.68,7.68,0,0,0,2.46-1.89,3.4,3.4,0,0,0,.91-1.81,1.12,1.12,0,0,0-1-1.29,1.85,1.85,0,0,0-1.37.76,1.14,1.14,0,0,0-.15.23.79.79,0,0,1-1.31.1,6.23,6.23,0,0,1-.8-1.3,23.88,23.88,0,0,0,3.25-3.6,10.62,10.62,0,0,1,6.11,1.08,1.58,1.58,0,0,1,.43,2.52l-.27.3a4.47,4.47,0,0,0-1.23,2.48,2,2,0,0,0,2.32,2,5.81,5.81,0,0,0,3.26-2,15.36,15.36,0,0,0,3.26-5.14,6.61,6.61,0,0,0,.46-4,2.18,2.18,0,0,0-2.7-1.69,3.66,3.66,0,0,0-2,2.31,4.54,4.54,0,0,0-.12.53A1.55,1.55,0,0,1,477.9,117a10.7,10.7,0,0,1-4.29-4.73,23.61,23.61,0,0,0,1.24-4,8,8,0,0,1,2.58-.15,1.07,1.07,0,0,1,.86,1.5,2.6,2.6,0,0,0-.1.25,3,3,0,0,0-.22,1.86,1.38,1.38,0,0,0,1.94.76,3.87,3.87,0,0,0,1.62-2,10.17,10.17,0,0,0,.88-4,4.48,4.48,0,0,0-.61-2.62,1.48,1.48,0,0,0-2.1-.45,2.46,2.46,0,0,0-.75,1.94,2.2,2.2,0,0,0,0,.36,1,1,0,0,1-1.24,1.21,7.6,7.6,0,0,1-2.51-1,24.37,24.37,0,0,0,.06-5,9,9,0,0,1,4.37-2.44,1.32,1.32,0,0,1,1.64,1.39c0,.11,0,.22,0,.34a3.69,3.69,0,0,0,.55,2.26,1.7,1.7,0,0,0,2.6.07,4.8,4.8,0,0,0,1.05-3,12.81,12.81,0,0,0-.68-5.09,5.49,5.49,0,0,0-1.84-2.8,1.84,1.84,0,0,0-2.66.37,3.11,3.11,0,0,0-.05,2.59,3.17,3.17,0,0,0,.21.41,1.31,1.31,0,0,1-.94,2,9.11,9.11,0,0,1-5.12-.64,22.91,22.91,0,0,0-1.86-4.55,7.12,7.12,0,0,1,1.64-1.5,1,1,0,0,1,1.49.55,1.55,1.55,0,0,0,.08.23,2.74,2.74,0,0,0,1,1.44,1.27,1.27,0,0,0,1.83-.61,3.64,3.64,0,0,0,0-2.37,9.22,9.22,0,0,0-1.76-3.35,4.06,4.06,0,0,0-2-1.49,1.38,1.38,0,0,0-1.76.93,2.25,2.25,0,0,0,.63,1.81,1.81,1.81,0,0,0,.24.24,1,1,0,0,1-.16,1.59,7.55,7.55,0,0,1-2.19.78,24.79,24.79,0,0,0-2-2.64c-.33-.38-.66-.73-1-1.08a10,10,0,0,1,2-5.41,1.49,1.49,0,0,1,2.41,0l.23.3a4.24,4.24,0,0,0,2.1,1.55A1.91,1.91,0,0,0,477.57,81a5.48,5.48,0,0,0-1.27-3.35A14.36,14.36,0,0,0,472.06,73.77Z" transform="translate(-57.23 -23.96)" fill="#adbf53"/><path d="M437.38,93.34c.65.53.7,1.61.59,2.88-.06.64-.15,1.34-.27,2.08s-.25,1.54-.39,2.37-.26,1.61-.4,2.36-.27,1.43-.41,2.06c-.31,1.23-.71,2.23-1.5,2.53s-1.81-.28-2.66-1.73a8.29,8.29,0,0,1-.94-2.71,11.11,11.11,0,0,1,0-3.5,11.22,11.22,0,0,1,1.12-3.31,8.41,8.41,0,0,1,1.77-2.25C435.57,93,436.76,92.82,437.38,93.34Z" transform="translate(-57.23 -23.96)" fill="#7ca566"/><path d="M444.49,119c-.33.55-1.22.71-2.4.37a9.36,9.36,0,0,1-6-6.61c-.22-1.21,0-2.08.6-2.35s1.37,0,2.23.68a19.13,19.13,0,0,1,2.77,2.61,20.07,20.07,0,0,1,2.33,3C444.57,117.66,444.82,118.48,444.49,119Z" transform="translate(-57.23 -23.96)" fill="#7ca566"/><path d="M464.41,114.64c.44.38.43,1.22-.08,2.22a8.62,8.62,0,0,1-6.95,4.27c-1.13,0-1.88-.36-2-.92s.27-1.24,1-1.91a17.62,17.62,0,0,1,2.83-2.06,17,17,0,0,1,3.11-1.59C463.19,114.32,464,114.24,464.41,114.64Z" transform="translate(-57.23 -23.96)" fill="#7ca566"/><path d="M460.27,92.54c1.85.41,2.51,4.54,1.47,9.21s-3.38,8.14-5.23,7.73-2.51-4.54-1.47-9.22S458.42,92.13,460.27,92.54Z" transform="translate(-57.23 -23.96)" fill="#7ca566"/><path d="M444.39,100.4c.71-.22,1.57.29,2.44,1.18a23.59,23.59,0,0,1,4.59,7.73c.36,1.19.4,2.19-.14,2.71s-1.57.43-2.79-.27a10.72,10.72,0,0,1-3.63-3.77,10.57,10.57,0,0,1-1.57-5C443.26,101.58,443.68,100.62,444.39,100.4Z" transform="translate(-57.23 -23.96)" fill="#7ca566"/><path d="M454.25,116.54c.06.32-.23.7-.83,1a4.54,4.54,0,0,1-4.64-.86c-.47-.46-.61-.92-.43-1.2s.62-.36,1.16-.35a12.71,12.71,0,0,1,1.91.25,11.69,11.69,0,0,1,1.87.45C453.8,116,454.18,116.21,454.25,116.54Z" transform="translate(-57.23 -23.96)" fill="#7ca566"/><path d="M440,102.82c.65,0,1.1,1.29,1.27,2.79s0,2.82-.64,3-1.48-1-1.66-2.74S439.36,102.78,440,102.82Z" transform="translate(-57.23 -23.96)" fill="#7ca566"/><path d="M450.79,88.64c.22.61-.18,1.36-.88,2.16A19.36,19.36,0,0,1,447,93.3a19.13,19.13,0,0,1-3.23,2c-1,.44-1.8.6-2.32.21s-.57-1.28-.11-2.42a9.39,9.39,0,0,1,7.14-5.29C449.73,87.72,450.58,88.05,450.79,88.64Z" transform="translate(-57.23 -23.96)" fill="#7ca566"/><path d="M445.79,84.59c.1.33-.14.72-.54,1.12A11,11,0,0,1,443.69,87,12.54,12.54,0,0,1,442,88c-.52.22-1,.31-1.24.11s-.31-.69-.06-1.3a4.62,4.62,0,0,1,1.6-1.88,4.7,4.7,0,0,1,2.32-.85C445.25,84.06,445.69,84.26,445.79,84.59Z" transform="translate(-57.23 -23.96)" fill="#7ca566"/><path d="M461.79,88.53c-.4.42-1.16.41-2.05.24a29.72,29.72,0,0,1-3.09-.87,31.77,31.77,0,0,1-3-1.09c-.82-.38-1.45-.8-1.53-1.38s.47-1.18,1.54-1.56a5.88,5.88,0,0,1,1.93-.3A7.82,7.82,0,0,1,460,85a6.07,6.07,0,0,1,1.4,1.36C462.1,87.3,462.17,88.12,461.79,88.53Z" transform="translate(-57.23 -23.96)" fill="#7ca566"/><path d="M469.17,102.08c-.46-.06-.79-.56-1.08-1.22a21.83,21.83,0,0,1-.84-2.43,20.76,20.76,0,0,1-.64-2.48c-.12-.72-.11-1.31.23-1.62s1-.22,1.71.32a5.94,5.94,0,0,1,1.87,6.22C470.11,101.72,469.61,102.15,469.17,102.08Z" transform="translate(-57.23 -23.96)" fill="#7ca566"/><path d="M468.27,106.64c.34,0,.65.37.81,1a4.64,4.64,0,0,1-.14,2.44,4.79,4.79,0,0,1-1.29,2.08c-.5.42-1,.54-1.25.35s-.34-.64-.28-1.2a9.87,9.87,0,0,1,.46-2,10.31,10.31,0,0,1,.76-1.88C467.61,107,467.92,106.63,468.27,106.64Z" transform="translate(-57.23 -23.96)" fill="#7ca566"/><path d="M455.62,92.06c.77.74-.18,3-2.29,4.81s-4.45,2.46-5.07,1.6.57-2.81,2.53-4.52S454.85,91.32,455.62,92.06Z" transform="translate(-57.23 -23.96)" fill="#7ca566"/><path d="M464.63,104c.5.07.92.68,1,1.69A6.88,6.88,0,0,1,462,112c-.92.43-1.66.38-2,0s-.19-1.08.11-1.85a21.84,21.84,0,0,1,1.34-2.62,22.47,22.47,0,0,1,1.59-2.48C463.6,104.35,464.11,103.91,464.63,104Z" transform="translate(-57.23 -23.96)" fill="#7ca566"/><path d="M453.42,121.88c0,.45-.36.9-1.09,1.23a6.1,6.1,0,0,1-2.93.38,6,6,0,0,1-2.8-.95c-.66-.46-1-1-.84-1.41s.66-.71,1.36-.85a10.8,10.8,0,0,1,5.13.5C452.92,121.06,453.38,121.42,453.42,121.88Z" transform="translate(-57.23 -23.96)" fill="#7ca566"/><path d="M461.74,117.07a3.83,3.83,0,0,1-1.29,3.46,10.57,10.57,0,0,1-5.47,2.63,17.5,17.5,0,0,1-4.13.3,20.93,20.93,0,0,1-4.74-.81,22.37,22.37,0,0,1-15.22-15.54,20.72,20.72,0,0,1-.71-4.75,17.28,17.28,0,0,1,.38-4.13,10.61,10.61,0,0,1,2.74-5.41,3.84,3.84,0,0,1,3.49-1.22,5.56,5.56,0,0,1,2.94,2,37.18,37.18,0,0,1,2.57,3.59,51.77,51.77,0,0,0,6.08,8,51.86,51.86,0,0,0,7.85,6.25,37.69,37.69,0,0,1,3.53,2.63A5.67,5.67,0,0,1,461.74,117.07Z" transform="translate(-57.23 -23.96)" fill="#4d8c84" opacity="0.3"/></svg>