<svg xmlns="http://www.w3.org/2000/svg" viewBox="0 0 443.88 388.35"><title>virus_fighting</title><g id="OBJECTS"><path d="M176.88,444.42l.13-.06A.52.52,0,0,0,176.88,444.42Z" transform="translate(-36.86 -68.57)" fill="none"/><path d="M272.83,416.41c-2.82-1.22-5.65-2.41-8.57-3.4-1.45-.5-2.91-1-4.31-1.62-.67-.3-1.58-.47-1.59-1.56a32.08,32.08,0,0,0-.24-3.25c-.27-2.51-.11-5-.14-7.54,0-2.67-.47-5.29-.6-8a4.67,4.67,0,0,0-1.86-3.63,6.75,6.75,0,0,0-2.37-1.24,1.12,1.12,0,0,1-1-1.31c.05-2.06,0-4.13,0-6.19-.16-17.7.1-35.42-1.67-53.07-.08-.76.06-1.09.9-1.27a84.43,84.43,0,0,0,9.1-2.49c30.15-10.18,52.41-29.4,66.3-58.12a1.86,1.86,0,0,1,2-1.3c8,.2,15.93.3,23.89.43,3.61.06,7.22,0,10.83.2,11.16.55,22.33.75,33.51.49a49,49,0,0,0,6.49-.71,10.55,10.55,0,0,0,7.93-5.93,14,14,0,0,0,1.39-3.87,31.34,31.34,0,0,0,.68-6.48q-.08-8.26-.83-16.48c-.7-7.65-1.13-15.31-1.45-23a3,3,0,0,1,0-1c.78-2.48.79-5.07,1.13-7.62a29.43,29.43,0,0,1,1.71-6.62c.64-1.66,1.22-3.34,1.77-5a9.25,9.25,0,0,0,.4-4.24,2.88,2.88,0,0,1,.43-1.94,20,20,0,0,0,1.81-4.62,58.62,58.62,0,0,0,1.36-9.86,68.74,68.74,0,0,0,.16-10.64c-.16-1.94-.4-3.94-2.08-5.28-2.84-2.29-8.22-2.08-9.73,2-.05.14-.21.25-.34.38-1.27-2.67-3.27-4.2-5.71-4.29a7,7,0,0,0-5.53,2.31c-.37.4-.55,1-1.22,1.11-.15-.26-.29-.5-.42-.76a4.62,4.62,0,0,0-4.28-2.65,12.94,12.94,0,0,0-4.68.94,5.33,5.33,0,0,0-2.92,2.52,9.56,9.56,0,0,0-1.15,3.22,70.82,70.82,0,0,0-.87,11.81,2,2,0,0,1-.93,2,7.61,7.61,0,0,0-3.28,5.77,18.82,18.82,0,0,0,2.18,10.95,59,59,0,0,0,6.14,8.88,25.35,25.35,0,0,1,3.21,5.27c.8,1.73,1.07,3.62,1.73,5.38.22.59.33,1.28,1,1.53s.81.78.81,1.47q-.09,14.27-.15,28.54a10.09,10.09,0,0,1-.26,2.38c-.71,3-.76,3.11-3.85,3.28-3.72.19-7.45.3-11.17.29-13.75,0-27.5-.12-41.26-.19a1.06,1.06,0,0,1-.85-.21c6.27-29.91,2.33-58.25-14.1-84.3s-39.91-42.46-69.87-49.22c-26.7-6-52.37-2.22-76.38,10.79-28.49,15.43-46.55,39.28-54.87,70.66a4.7,4.7,0,0,1-1.42-1c-6.32-4.94-12.6-9.92-19-14.81-3-2.27-5.72-4.77-8.45-7.3a47.21,47.21,0,0,1-4-4.24,8.08,8.08,0,0,1-1.47-8.23,28.25,28.25,0,0,1,1.59-3.61q4.62-9.12,9.29-18.21c.56-1.1,1-2.3,2.41-2.63.3-.07.55-.4.8-.63a32.82,32.82,0,0,1,10.94-6.6,30.13,30.13,0,0,0,11.19-7.45,16.91,16.91,0,0,0,3.93-7.14c.65-2.3-.07-4.42-1.11-6.43-.26-.49-.34-.78,0-1.18a21,21,0,0,0,2.37-3.76c1.37-2.44,2.92-4.8,3.64-7.55a7.2,7.2,0,0,0-1.37-6.78,11.34,11.34,0,0,0-4.06-2.75,5,5,0,0,0-4.6.19c-.35.15-.52.67-1,.49,0-.57,0-1.14-.11-1.7a4.45,4.45,0,0,0-1.94-3.31,8.26,8.26,0,0,0-6.72-1.26,12.79,12.79,0,0,0-2.3,1.12c-.34-1.25-.16-2.58-.94-3.66-2.69-3.7-8.16-4.61-11,.06-.8,1.31-1.59,2.63-2.3,4A109.8,109.8,0,0,0,86.8,91.47a8.77,8.77,0,0,0-.53,4.88A3.07,3.07,0,0,1,86,98.48c-2.07,4.42-3.38,9-2.72,14a13.18,13.18,0,0,1-.23,5.3,7.16,7.16,0,0,0-.28,3.22A3.13,3.13,0,0,1,82.1,123q-5.8,9.84-11.58,19.7c-2.58,4.41-4.87,8.93-5.8,14.05a20,20,0,0,0,5.53,18.31,85,85,0,0,0,7.52,6.53c5.76,4.73,11.9,9,17.71,13.62,4.11,3.3,8.1,6.77,12.47,9.72,2.42,1.64,4.75,3.4,7.08,5.16a2.5,2.5,0,0,1,1.15,2.42,107.17,107.17,0,0,0,1.69,23.79,109.14,109.14,0,0,0,25,52.56,2.89,2.89,0,0,1,.92,1.4c-4.32-.59-8.58-.78-12.79-1.54-6.82-1.23-13.66-2.29-20.49-3.48A70.65,70.65,0,0,0,98.93,284c-6.1-.06-10.78,3.91-11.68,9.12a21.31,21.31,0,0,0-.35,4.79,105,105,0,0,0,1.15,11.45c.49,3.05,1.08,6.09,1.49,9.15.57,4.26,1,8.53,1.5,12.8.17,1.42.15,1.37-1,2.13-1.61,1.09-2.85,2.42-2.81,4.58,0,.68,0,1.36,0,2a59.16,59.16,0,0,0,0,8.42c.26,2.79.5,5.59.92,8.37a1.3,1.3,0,0,1-.82,1.63c-.88.39-1.72.88-2.6,1.29a109.33,109.33,0,0,0-10.33,5.31c-4,2.43-4.35,4.37-3.22,7.82a2.77,2.77,0,0,1-.89,3.5c-.26.22-.39.59-.81.64-1.28-1-2.55-2.08-3.89-3a2.44,2.44,0,0,1-1.16-2.38c.2-5.49-5.92-9.71-10.9-7.54a9.88,9.88,0,0,0-5.79,11.56c1.05,4.41,6.07,7.45,10.11,5.23a1,1,0,0,1,1.22.15c1.31.92,2.64,1.83,4,2.73s1.19.82.52,2.1a43.54,43.54,0,0,0-4.82,14.42,35.12,35.12,0,0,0-.17,8.57c.09.85-.15,1.18-1.06,1.3a50.86,50.86,0,0,0-5.74,1.07,2.33,2.33,0,0,1-2.39-.6c-2.26-1.9-4.82-2.87-7.78-1.63a7.27,7.27,0,0,0-4.59,5.58,9.66,9.66,0,0,0,1.52,7.39c1.69,2.51,4,4.21,7.18,3.87a8.57,8.57,0,0,0,6.48-4c.27-.42.39-.88,1-1,2.17-.5,4.33-1.06,6.48-1.64.87-.23,1.31,0,1.67.87a38.06,38.06,0,0,0,6.49,10.47,49.87,49.87,0,0,0,10.95,9.33c1.39.78,2.77,1.56,4.17,2.32.44.24.75.45.47,1.05a11.25,11.25,0,0,0-.61,2.83,5.89,5.89,0,0,0,2.41,6c.61.5,1.26.95,1.89,1.43h0a28.17,28.17,0,0,0,4.61,1.12,12.55,12.55,0,0,0,7.35-.46,12.41,12.41,0,0,0,4.51-5.25c.24-.6.65-.53,1.1-.5,1.48.09,3,.23,4.45.3a66.28,66.28,0,0,0,15.2-1.17c1.27-.23,1.29-.24,1.63.92.83,2.83,3.06,4,5.65,4.32a18.3,18.3,0,0,0,11-1.65,6.52,6.52,0,0,0,3.94-6.14c0-1.44-.9-2.42-1.6-3.52a8.24,8.24,0,0,0-.66-.78c.16-.53.66-.61,1-.82a58.08,58.08,0,0,0,10.74-7.66,1.74,1.74,0,0,1,2.26-.41c3.21,1.63,6.4,3.3,9.53,5.08a1.5,1.5,0,0,1,.74,1.08,7.81,7.81,0,0,0,6.88,6.46,1,1,0,0,1,.3.17l1-.05a.52.52,0,0,1,.13-.06,2.16,2.16,0,0,1,1.28-.2c3-1,4.88-2.88,5.32-6.07a5.87,5.87,0,0,1,.23-.82,9.38,9.38,0,0,0-1.83-6.44,6.55,6.55,0,0,0-7.51-2.72,3.4,3.4,0,0,1-2.87-.44c-2.19-1.24-4.25-2.69-6.38-4-.43-.27-.93-.46-.44-1.16,1.09-1.59,2.12-3.23,3.17-4.85h0c0-.17,0-.37.05-.5a39.16,39.16,0,0,0,4.45-12c.32-1.47.32-1.45,1.83-1.57,2.63-.22,5.24-.58,7.87-.67a3.68,3.68,0,0,1,2.51.75,7.8,7.8,0,0,0,9.71-.1c2.71-2.12,3.28-5,2.65-8.17a11,11,0,0,0-1.68-3.74c-2.35-3.66-9-5-12.29-.71a2.93,2.93,0,0,1-2.16,1.18c-2.34.28-4.67.52-7,.86-.77.12-1-.09-1.1-.83a32.49,32.49,0,0,0-1.6-6.66,39.41,39.41,0,0,0-7.69-13.11c-.93-1.06-1.05-.84-.15-2.11,1.23-1.72,2.49-3.43,3.87-5a1.34,1.34,0,0,1,1.46-.56,4.94,4.94,0,0,0,4.31-1.23c3.29-2.75,5-6.85,3-11.53a6.7,6.7,0,0,0-3.5-3.41c-4.3-2-11-.54-12.93,4.9a7.45,7.45,0,0,0-.3,4.54,2.06,2.06,0,0,1-.47,2c-1,1.28-2,2.65-3,4-.73.94-.77,1-1.75.29a56.76,56.76,0,0,0-13.93-6.58,52.3,52.3,0,0,0-6.65-1.71c-.81-.15-1-.48-.93-1.26.26-2.21.46-4.43.66-6.66,0-.48.34-.64.69-.87a7.81,7.81,0,0,0-.21-12.92,6.75,6.75,0,0,0-3.59-1,10.48,10.48,0,0,0-7.84,2.89,7.11,7.11,0,0,0-1.6,8.49,3.38,3.38,0,0,0,1.56,1.77c1.35.53,1.19,1.46,1,2.51a45.13,45.13,0,0,0-.76,4.91c0,.75-.41.95-1.11.94a64.14,64.14,0,0,0-6.71.2c-.12-2.29-.23-4.56-.35-6.83A68.28,68.28,0,0,0,113,336c-.53-2.27-1.75-3.8-4.21-4.07-.34,0-.66-.19-1-.24a.91.91,0,0,1-.91-1c-.15-4.93-.76-9.83-1.17-14.73-.32-3.83-.66-7.65-1-11.48a3.61,3.61,0,0,1,0-1.9c2.55.3,5.06.84,7.58,1.27,5.36.92,10.75,1.68,16.08,2.73,8.26,1.63,16.55,3.07,24.82,4.61,7.43,1.39,14.84,2.86,22.32,3.9a6.77,6.77,0,0,1,2.11.68,111,111,0,0,0,35.85,10.68,105.42,105.42,0,0,0,17.85.69l2-.1a1.34,1.34,0,0,1,.25,1q.39,24.84.8,49.68c0,2.52.18,5,.28,7.56,0,.51.05.94-.54,1.29-1.67,1-2.22,2.67-2.6,4.43a29.83,29.83,0,0,0-.24,8.54c.4,5.29.27,10.59.68,15.87a5,5,0,0,1-.09.85,9.08,9.08,0,0,1,.4,2.84c.18,1.24.29,2.49.44,3.74.31,2.75,2.14,4.17,4.6,4.59,4.1.69,8.18,1.47,12.32,2,6.59.78,13.18.36,19.77.23a12.55,12.55,0,0,1,2.37-.26,6.32,6.32,0,0,0,4.79-4.64c.66-2.33.82-4.64-1.1-6.57A8.24,8.24,0,0,0,272.83,416.41ZM119.87,83.1a3.14,3.14,0,0,1,3.6-.82,5.46,5.46,0,0,1,3.32,2.78,3.53,3.53,0,0,1,.4,2.14,28.38,28.38,0,0,1-5.52,12.09A46.79,46.79,0,0,0,114.18,94c-.65-.42-.71-.84-.39-1.41C115.63,89.29,117.23,85.86,119.87,83.1ZM106.62,81a13.64,13.64,0,0,1,3.09-3.43,3.73,3.73,0,0,1,4.74-.43A4.37,4.37,0,0,1,116.08,82c-.86,3.43-2.81,6.34-4.2,9.52-.32.74-.74,1.1-1.59.73-2.53-1.11-7,1.7-7.91,3.6a4.88,4.88,0,0,0-.34,3.31,14.16,14.16,0,0,0,3,5.68,4.19,4.19,0,0,1-5.92-3.67,18.91,18.91,0,0,1,1.24-6.87C101.78,89.55,104.21,85.28,106.62,81ZM88.72,94.37a22.33,22.33,0,0,1,1.78-5.51,145.4,145.4,0,0,1,7.68-15.53c1.54-2.88,4.55-2.36,6.25-.49a3.15,3.15,0,0,1,.61,2.51,7.25,7.25,0,0,1-.47,2.94c-2.19,5.31-4.42,10.6-6.63,15.9a14.15,14.15,0,0,1-3,4.32,2.69,2.69,0,0,1-3.09.77C89.23,98.42,88.4,97.09,88.72,94.37Zm-.82,6.19a7.35,7.35,0,0,1,.43-1c3,2,5.82,3.54,9.07.09a7.75,7.75,0,0,0,2.1,6.18c1.66,1.69,3.44,2.39,5.83,1.35-.37,2.83,1.16,4.5,3.21,5.87a4.48,4.48,0,0,0,5.83-.16c.76-.56,1.14-1.56,2.21-1.79.38-.08.32-.63,0-.84a35.07,35.07,0,0,0-3.37-2.56,23,23,0,0,1-7.44-5.95,10.31,10.31,0,0,1-1.39-3.3,1.14,1.14,0,0,1,.27-1.11A9.68,9.68,0,0,1,107.74,95a3.49,3.49,0,0,1,3,.31,17.56,17.56,0,0,1,4.34,2.39c1.53,1.18,3,2.37,4.54,3.6a10.25,10.25,0,0,1,2.76,3.44,4,4,0,0,1-.38,3.78c-1.44,2.39-2.77,4.88-5,6.68a26.23,26.23,0,0,1-4.71,3.06c-4,2-8.22,3.48-11.83,6.17-.47.34-.78.2-1.22,0-4.16-2.18-8.12-4.71-12.38-6.69a1,1,0,0,1-.62-1.22,21.94,21.94,0,0,0,0-5.31C85.93,107.46,87,104,87.9,100.56Zm19.34,6.37c2.12,1.5,4.36,2.6,6.46,3.91a2.72,2.72,0,0,1-3.63.6A4.28,4.28,0,0,1,107.24,106.93ZM85.82,119.36l12.55,6.79a8.76,8.76,0,0,0-1,.79c-.42.46-.75.46-1.31.11a45.71,45.71,0,0,0-4.5-2.47c-2-.91-3.69-2.27-5.59-3.31C85,120.74,85.85,120.12,85.82,119.36Zm32.38,75.76c-.69,3.7-1.27,7.41-1.62,11.41a54.64,54.64,0,0,1-7.25-4.82c-6.39-4.94-12.7-10-19.07-15-4.92-3.84-9.85-7.66-14.62-11.7-3.24-2.75-5.91-5.91-7-10.13a16.51,16.51,0,0,1-.2-6.82,34.51,34.51,0,0,1,5-12.89c4-6.44,7.8-12.95,11.43-19.58.64-1.18.85-1.33,2-.51,1.87,1.36,4.09,2,6,3.32,1,.7,1,.7.36,1.85A203.21,203.21,0,0,0,82,151.59a12.93,12.93,0,0,0-1,8.37,14.22,14.22,0,0,0,3.73,6.65A112.34,112.34,0,0,0,96,176.84c7.11,5.68,14.28,11.29,21.44,16.92C117.89,194.12,118.34,194.37,118.2,195.12ZM408.36,166c.36-3.29.24-6.63,1-9.88.2-.83.33-1.68.61-2.49a4,4,0,0,1,4-2.59c1.49.07,2.55,1,3.05,2.79a19.73,19.73,0,0,1,.63,6.48c-.18,5.29-.73,10.4-1.39,15.51a9.14,9.14,0,0,1-1.39,3.83,2.8,2.8,0,0,1-2.73,1.44l-1-.05a2.89,2.89,0,0,1-3.05-2.44,17.32,17.32,0,0,1-.51-4.07A73.87,73.87,0,0,1,408.36,166Zm-11.72-1.67a73.4,73.4,0,0,1,.61-9.59,4.87,4.87,0,0,1,4.78-4.1,3.54,3.54,0,0,1,3.25,2.59,15.81,15.81,0,0,1,.94,4.88,71.32,71.32,0,0,1-.61,13.54,28,28,0,0,1-1.74,6.45,4.81,4.81,0,0,1-3.25,3c-1.71.45-3.18.4-4.27-1.36a3.56,3.56,0,0,1,1.52-.85,12.47,12.47,0,0,0,4.14-3.28,4.09,4.09,0,0,0,.74-3.9,9.61,9.61,0,0,0-3.39-5,3.54,3.54,0,0,0-1.42-.57C396.59,165.8,396.59,165.79,396.64,164.35Zm-12.55-6a24.3,24.3,0,0,1,.66-3.7,5.09,5.09,0,0,1,5.78-3.65,2.8,2.8,0,0,1,2.61,2.32c.56,2.49,1.37,4.95,1.21,7.57-.08,1.31,0,2.63,0,3.94,0,.73-.26,1-1,1a41.71,41.71,0,0,0-5.8.44c-1.17.19-2.33.44-3.68.7A70.42,70.42,0,0,1,384.09,158.34Zm7,40.67a21,21,0,0,0-5.21-8.37A18.84,18.84,0,0,1,380,179.3a33.88,33.88,0,0,1-.23-4.62,4.35,4.35,0,0,1,3.22-4.37,38,38,0,0,1,7.52-1.64,17.35,17.35,0,0,1,6.14,0c1.79.41,3.83,3.31,3.52,5.09a2.29,2.29,0,0,1-.62,1c-1.41,1.67-3.39,2.28-5.38,2.82a21.84,21.84,0,0,1-6.29.72,17.72,17.72,0,0,0-3.9.55,1.37,1.37,0,0,0-.92.41c-.33.44-.64.91.1,1.23a1.34,1.34,0,0,1,.83,1c.54,1.84,1.43,3.48,3.57,3.7,2.56.27,4.92-.21,6.57-2.46.2-.27.37-.57.64-1,2.93,3.17,8.21,2.12,10.74-2.83,1.12,4.43,4.43,4.38,8,4.13a10.21,10.21,0,0,1-.8,4.27c-1.21,3.64-2.1,7.37-3.06,11.08-.21.79-.53,1.15-1.37,1.16-2.29.05-4.58.23-6.86.23-2.93,0-5.84.08-8.76.21A1.24,1.24,0,0,1,391.13,199Zm2.19-18.5c-.82,2.09-2.35,2.63-4.25,2.66s-2.53-.28-3.48-2.37C388.22,180.69,390.7,180.84,393.32,180.51ZM392,202a4.82,4.82,0,0,1,0-.69c4.66.28,9.16,0,13.66-.06.91,0,1.82-.08,2.73-.16.64-.06,1,.16,1,.84s0,1.09-.87,1.14c-2.16.12-4.33.15-6.49.31-2.61.2-5.24.13-7.86.28C392.32,203.79,392.31,203.7,392,202Zm-57.38,43.37c2.56.41,5.15.23,7.71.48.51,0,1,.11,1.54.12,13.63.31,27.26.66,40.9.32a36.55,36.55,0,0,0,5.8-.59,5.28,5.28,0,0,0,4.44-4.19c1.12-4.05,1.06-8.18.88-12.28-.2-4.41-.14-8.82-.25-13.23-.07-2.57,0-5.15,0-7.73,0-1.46,0-1.38,1.52-1.54,3.14-.34,6.3,0,9.43-.52.76-.11,1.21.11,1.16,1s0,1.6,0,2.4a164.8,164.8,0,0,0,.89,16.63c.34,3.7.59,7.42.73,11.13.12,3.15.49,6.28.36,9.44a27.25,27.25,0,0,1-.62,4.93c-.09.39-.21.77-.33,1.15-1.11,3.73-3.46,5.88-7.48,6.22s-7.87.72-11.82.69c-4.81,0-9.63.08-14.44-.12-9-.39-18-.58-27-.72-5.15-.09-10.31-.05-15.46-.14-1.14,0-2.26.41-3.61.1,1.29-3.38,2.56-6.63,3.52-10,.25-.88.56-1.74.76-2.64A1,1,0,0,1,334.58,245.39Zm-3.83-15c-18.57,13.9-36.78,28.27-55,42.57a3.28,3.28,0,0,1-1.27.84c-.76-1.17-.35-2,.6-2.88s2.13-1.9,3.26-2.77c12.77-9.9,25.31-20.08,37.91-30.18q7.57-6.07,15.17-12.12c.17-.14.36-.26.8-.57a17.6,17.6,0,0,1-.49,4.14C331.56,229.88,331.11,230.09,330.75,230.37ZM325,177.75c.53.35.58,1,.77,1.49a107.35,107.35,0,0,1,6.87,39.5c-.05,2.64,0,2.64-2.11,4.25-.4.32-.84.6-1.25.9-2.06,1.71-4.11,3.45-6.19,5.14Q309.57,240,296,250.89a9.49,9.49,0,0,1-.83.58h0l-7.8,6.45c-4.74,3.89-9.53,7.7-14.07,11.82a6.5,6.5,0,0,1-.6.36,15.2,15.2,0,0,1-1.38-8.32,61.69,61.69,0,0,1,2.61-10.3c2.19-6.75,4.47-13.46,6.68-20.19a2.54,2.54,0,0,1,1.12-1.44c3.06-3.76,6.11-7.55,9.2-11.28q10-12,19.95-24a5.51,5.51,0,0,1,1.16-1.25h0c.26-.37.5-.76.78-1.11q5.47-6.63,10.95-13.23A4.35,4.35,0,0,1,325,177.75ZM176.73,256.4a39.66,39.66,0,0,0-1.65-7.71q-2.21-7.41-4.5-14.78a60.35,60.35,0,0,1-1.46-6.36,1.8,1.8,0,0,1,1-2.1,48.17,48.17,0,0,1,9.44-4.86,157.39,157.39,0,0,1,23.84-7,84.1,84.1,0,0,1,22.57-1.34,140.5,140.5,0,0,1,19.78,3.29,137.13,137.13,0,0,1,18.62,5.35,58.7,58.7,0,0,1,12.09,6.06,2.92,2.92,0,0,1,1.36,3.4c-.56,2.29-1.59,4.42-2.34,6.63-2.5,7.31-5.16,14.57-6.83,22.14A16.93,16.93,0,0,0,271.19,273a1.19,1.19,0,0,1,.08,1.41,6.88,6.88,0,0,1-1.88,2.21,47.73,47.73,0,0,1-7.66,4.87,91.55,91.55,0,0,1-39.06,9.57c-9-.3-17.56-1.06-25.87-3.76-2.5-.81-5-1.72-7.43-2.65-6-2.25-11-6-15.9-10-1.95-1.62-1.62-3.42-.38-4.75C176.68,266,177.17,261.34,176.73,256.4Zm146-84c1.4,2.66,1.42,2.67-.46,4.92l-41.15,49.33c-.17.21-.37.4-.53.58-.51-.16-.55-.64-.84-.91-.51-.47-.3-.81.09-1.29q20.41-25,40.5-50.29c.67-.85,1.36-1.68,2.11-2.61A2.41,2.41,0,0,1,322.74,172.37Zm-188.86-6.8a107.52,107.52,0,0,1,26.81-31.91c.35-.28.75-.51,1.12-.76a49.8,49.8,0,0,1,6.33-4.69,103.44,103.44,0,0,1,15-8.34,8,8,0,0,1,2.07-.8,74.74,74.74,0,0,1,11.4-4.16,109.27,109.27,0,0,1,37.46-4.08,106.69,106.69,0,0,1,28.6,6,87.35,87.35,0,0,1,13.16,5.83,45.33,45.33,0,0,1,6.45,3.78,3.72,3.72,0,0,1,1.34.73,106.09,106.09,0,0,1,37.12,40.8c.81,1.55.79,1.23-.27,2.49-2.09,2.5-4.13,5.05-6.2,7.57-.36.44-.76.85-1.14,1.26h0c-.77,1-1.31,2.22-2.53,2.84a6.28,6.28,0,0,1-.62,1.18c-1.85,2.24-3.53,4.61-5.51,6.73a4.87,4.87,0,0,1-1.16,1.47c-1.87,2.37-3.73,4.75-5.61,7.11q-8.49,10.63-17,21.25a5.72,5.72,0,0,1-1.24,1.4c-.52.89-1,2-1.9,2.34s-1.6-.85-2.44-1.29a90.69,90.69,0,0,0-16.89-7.1c-5.71-1.66-11.49-3.05-17.3-4.33a94.16,94.16,0,0,0-19.43-2.13,93.18,93.18,0,0,0-24.79,3.08c-6.6,1.73-13,3.92-19.42,6.24h0a50.48,50.48,0,0,0-6.06,3.16c-.51.33-.85.35-1.23-.24-1.31-2.06-2.68-4.09-4-6.13-2.84-3.84-5.53-7.78-8.15-11.78h0c-2.77-4-5.56-8-8.3-12-5.16-7.57-10.28-15.17-15.47-22.72A2.25,2.25,0,0,1,133.88,165.57ZM131,171.18a16,16,0,0,0,.8-1.49c12.45,17.7,24.8,35.32,37,53.17L167,224.34c-.38-.09-.54-.64-.82-1q-17.43-24.39-34.88-48.77C130.4,173.35,130.12,172.4,131,171.18Zm-2.44,5.71a6.27,6.27,0,0,1,.37-.71,14.78,14.78,0,0,1,2.52,3.16c.8,1,1.52,2.15,2.27,3.23,3,4.08,6,8.14,9,12.24,1.4,1.93,2.9,3.79,4.14,5.84h0c2.85,3.69,5.6,7.46,8.2,11.32,2,2.31,3.64,4.85,5.43,7.28s3.51,4.81,5.27,7.21a2.46,2.46,0,0,1,.61,1.2c.7,6.71,2.87,13.05,5,19.39a46.47,46.47,0,0,1,2.35,9.12c.4,3.15.58,6.29-.9,9.26-.21.41-.42.81-.66,1.2-.61,1-.65,1-1.5.21q-6.68-6.07-13.33-12.15l-17.69-16c-.29-.26-.55-.57-.82-.86h0l-10.64-9.47c-2.13-1.9-4.25-3.83-6.4-5.72a2.44,2.44,0,0,1-.92-1.9A104.8,104.8,0,0,1,128.51,176.89Zm-7.34,48.73L170.05,269a12.8,12.8,0,0,0-1.49,2.64c-.54-.46-1-.85-1.47-1.26-14.73-13-29.32-26.15-43.95-39.25a4.37,4.37,0,0,1-1.81-3.46C121.34,227.13,121.25,226.56,121.17,225.62ZM95.74,451.22a29.66,29.66,0,0,1-4.59-.48,11,11,0,0,1-3.6-1.55c-2.12-1.41-2.62-3.16-1.56-5.71a64.89,64.89,0,0,0,14.74,4.28A4.93,4.93,0,0,1,95.74,451.22ZM141,448.55a15.28,15.28,0,0,1-6.17,1.13,9.66,9.66,0,0,1-3.37-.41,5.52,5.52,0,0,1-2.2-1.58c-.81-1-.74-1.18.46-1.56,2-.64,4-1.28,6-2a40.2,40.2,0,0,0,5.66-2.4c.72-.37,1.12-.18,1.54.45C144.8,445,144.12,447,141,448.55ZM113.32,371.1a4.2,4.2,0,0,0,1.55-3.48c0-2.73.28-5.47,0-8.21-.07-.77.2-1,.9-1.05,2.17-.24,4.35-.12,6.52-.19h1.21a.61.61,0,0,0,.68-.6c.3-3.59,1.39-7.08,1.39-10.71a2.15,2.15,0,0,0-1.07-2.07c-3-2-3.22-5-.37-7.24a8.21,8.21,0,0,1,6.91-1.82c2.26.45,3.34,2,3.73,4.19.34,1.88-.53,4.26-2.18,5a3.61,3.61,0,0,0-2.16,3.52c-.19,2.91-.55,5.81-.86,8.71-.17,1.66-.12,1.74,1.48,2a52.43,52.43,0,0,1,20.18,7.36c1,.63,2,1.37,2.95,2.08.54.39,1,.53,1.38-.17,1.35-2.21,3.24-4,4.83-6,.42-.54.85-1.08,1.23-1.65a2,2,0,0,0,.15-2.21,5.87,5.87,0,0,1,2.18-7.26,8,8,0,0,1,8.18-.34,3.92,3.92,0,0,1,2,2.44c1.28,3.77-.7,6.87-3.3,8.59a2.85,2.85,0,0,1-2.32.32,2.68,2.68,0,0,0-2.79,1.13c-2.51,2.76-4.58,5.87-7.07,8.72.59.7,1.16,1.4,1.76,2.08a35.56,35.56,0,0,1,9.09,20.36c.19,1.76.3,1.54,1.79,1.41,3.36-.32,6.71-.7,10.06-1.08a3.72,3.72,0,0,0,3.14-2.05c1-1.86,3.59-2.58,5.74-1.83a6.93,6.93,0,0,1,4.51,8.37,4.59,4.59,0,0,1-4,3.33c-2.36.45-4.6,0-6.08-2.18a1.57,1.57,0,0,0-1.6-.67c-4.24.08-8.41.89-12.63,1.26-.66.06-1,.27-1.11,1-1,8.12-4.47,15.07-9.69,21.25-.07.09-.11.2-.27.48,4.47,2.12,8.37,5,12.74,7a2.88,2.88,0,0,0,2.72.08,4.13,4.13,0,0,1,4.89,1.42,6.89,6.89,0,0,1,.64,7.19c-1.32,2.92-5.62,3.31-7.71.45a5.42,5.42,0,0,1-1.2-3.17,1.72,1.72,0,0,0-1.1-1.71c-3.77-2.06-7.51-4.16-11.26-6.25-.6-.33-1.19-.69-1.78-1.05-1.19-.72-1.19-.73-2.17.13a64.09,64.09,0,0,1-31.49,15.14,69.37,69.37,0,0,1-18.64,1c-10.65-.93-20.52-4.11-29-10.82a37.24,37.24,0,0,1-12-16c-.46-1.21-.48-1.2-1.84-1A62.09,62.09,0,0,0,53,418.19a3.47,3.47,0,0,0-2.71,2.26c-.69,1.93-4,3.14-6.05,2.56a6.51,6.51,0,0,1-4.11-9.18A4.89,4.89,0,0,1,47.39,412c3,2.36,2,2,6,1.18,2.57-.53,5.08-1.34,7.64-1.93,1-.23,1.14-.71,1-1.58a28.84,28.84,0,0,1-.32-3.59,38,38,0,0,1,5.25-20,6.41,6.41,0,0,1,.44-.73c.52-.64.39-1.09-.26-1.55-2.65-1.9-5.12-4.06-7.9-5.78-.63-.39-1.17-.68-1.82,0-2.21,2.21-5.84.44-6.87-2.1-1.27-3.1.35-8.52,4.54-9.61a6.18,6.18,0,0,1,6.09,2.26,2.87,2.87,0,0,1,.16,3c-.59,1.16-.19,1.86.75,2.59,2.62,2,5.18,4.16,7.77,6.24a5.47,5.47,0,0,0,.61.36l2.58-3.05c.35-.41.72-.71,1.33-.45,2.76,1.16,5.66.63,8.48.44,3.81-.26,7.61-.57,11.4-1.13A90.63,90.63,0,0,0,105,374.07c1.87-.51,3.73-1.05,5.61-1.52A7.32,7.32,0,0,0,113.32,371.1Zm-8-37.11a9.49,9.49,0,0,1,2.95.88,2.8,2.8,0,0,1,1.49,1.79,19.52,19.52,0,0,1,1.08,6.23c.17,3.95.27,7.9.42,11.85.1,2.57.24,5.15.36,7.72h.1c0,1.72,0,3.44,0,5.16a1,1,0,0,1-.72,1.13,48.26,48.26,0,0,1-13.24,4,121.23,121.23,0,0,1-13.44,1.68,40.9,40.9,0,0,1-7.17.21,3.23,3.23,0,0,1-2.86-2.33,3.26,3.26,0,0,1,1-3.82c2.78-2.26,6-3.68,9.19-5.31a58.6,58.6,0,0,0,5.56-3,3.18,3.18,0,0,0,1.41-2.61,62.53,62.53,0,0,0-.36-8.32c-.25-3.24-.79-6.45-1-9.7-.11-2.08,1-3.17,2.64-4a14.17,14.17,0,0,1,4.77-1.35A39.72,39.72,0,0,1,105.29,334Zm57.49-25.2c-7.55-1.59-15.11-3.13-22.74-4.31-4.3-.66-8.56-1.53-12.86-2.14-6.56-.93-13.05-2.31-19.65-3-1.47-.17-2.93-.49-4.41-.62s-2.13.41-2.21,1.91a35.39,35.39,0,0,0,0,4.12c.31,4.62.82,9.23,1.25,13.84.3,3.3.77,6.59,1.14,9.88.1.89.55,1.76.28,2.72a1.75,1.75,0,0,1-.47.13,19.24,19.24,0,0,0-7,.36c-1.18.29-1.29.16-1.47-1.18-.45-3.34-.93-6.68-1.23-10-.35-3.88-.83-7.73-1.26-11.6-.19-1.65-.2-3.31-.38-5a70.28,70.28,0,0,1-.42-7.54,10.77,10.77,0,0,1,1.89-6.48,5.2,5.2,0,0,1,3.53-2.16,20.79,20.79,0,0,1,7.17.12c5.31.77,10.63,1.54,15.9,2.61,7.28,1.48,14.66,2.38,22,3.18a7.41,7.41,0,0,0,1.52.21c3.15-.36,5.31,1.16,7.45,3.32a93,93,0,0,0,13.78,11.05l1.58,1.11A10.2,10.2,0,0,1,162.78,308.79Zm54.51,13.52c-27.41-2.5-50.59-13.67-69.11-34.17C134.41,272.91,126.1,255,122.34,234.9a5.43,5.43,0,0,1-.09-.69,2,2,0,0,1,0-.34c.42-.23.61.16.84.35q14.88,13,29.74,26a5.59,5.59,0,0,1,.45.52h0c1.63,1.17,3,2.59,4.54,3.9,3.83,3.34,7.75,6.6,11.43,10.1a79.75,79.75,0,0,0,7.36,6.4c.92.68,1.81,1.38,2.72,2.07a82.56,82.56,0,0,0,22.1,8.26,90.33,90.33,0,0,0,27.46,2.26,88,88,0,0,0,25.87-5.8c4.26-1.71,8.08-4.28,12.13-6.41,7.24-3.82,13.29-9.31,19.88-14,3.63-2.6,7.16-5.35,10.73-8,.46-.34.94-.64,1.41-1h0q4.26-3.3,8.53-6.59l18.17-14c.41-.31.84-.58,1.26-.86a49.87,49.87,0,0,1,4-3.21,3,3,0,0,1,0,1.8,106.48,106.48,0,0,1-35,61.17,101.07,101.07,0,0,1-16.34,11.66,108.55,108.55,0,0,1-62.23,13.81Zm20.53,62.28c-.24-10.3-.47-20.61-.33-30.91.06-4.87,0-9.74-.06-14.61,0-3.78-.22-7.55-.56-11.31-.07-.86.25-1.14,1-1.18,3.26-.16,6.44-.88,9.77-1.34a4.39,4.39,0,0,1,.14.66c-.18,5,.15,10,.34,14.94.27,7,.13,14.08.43,21.11.19,4.46.06,8.93.47,13.38a57.5,57.5,0,0,1-.16,9.09c0,.62-.2,1-.9.92-3.14-.41-6.23.16-9.33.52-.6.07-.85-.17-.83-.76Zm36,38.52a3.76,3.76,0,0,1-2.57,3.11,29.52,29.52,0,0,1-6.83.45h-5.67c-4.24-.21-8.49-.15-12.69-.77-2.6-.39-5.24-.67-7.56-2.07-1.6-1-3.08-2.1-3.27-4.14a57.52,57.52,0,0,1-.46-7.42,123.94,123.94,0,0,0-.36-13.07,35.92,35.92,0,0,1-.09-6.31c.3-3.05,1.06-4,4.07-4.38a46.94,46.94,0,0,1,9.55-.44,11.88,11.88,0,0,1,4.73,1.34,3.29,3.29,0,0,1,1.71,2.4,23.65,23.65,0,0,1,.26,5.11c0,4.56-.24,9.13.45,13.68a3.19,3.19,0,0,0,1.73,2.56c1.92,1,4,1.68,5.94,2.49a77.38,77.38,0,0,1,9.6,4.57A2.78,2.78,0,0,1,273.84,423.11Z" transform="translate(-36.86 -68.57)"/><path d="M265.59,430.22a90.84,90.84,0,0,1-22-1.21c-1.91-.37-3.85-.58-5.75-1-3.71-.74-5.24-2.51-5.7-6.27-.22-1.81-.23-3.65-.56-5.45v-.06c-5.71,0-11.43.06-17.14-.08-3.72-.1-7.43,0-11.12.19-5.73.31-11.45.13-17.17.29-5.08.14-10.16.43-15.24.68-.85,0-1.69.16-2.53.25a47.83,47.83,0,0,1-2.51,4.19,1.21,1.21,0,0,0,.4,2c1.9,1.26,3.81,2.5,5.8,3.62a4,4,0,0,0,3,.12c5.46-1.28,9.76,5.11,9.13,9a1.86,1.86,0,0,1-.33.78c1.88,0,3.74-.41,5.61-.56,3.24-.27,6.45-1,9.71-.77a21.06,21.06,0,0,0,4.62.18,74,74,0,0,1,7.86-.48c6.9-.28,13.8-.71,20.7-1,6.21-.3,12.39-1,18.6-1.41A150.36,150.36,0,0,0,267.19,431a10.93,10.93,0,0,0,4.64-1.59h0A18.82,18.82,0,0,1,265.59,430.22Z" transform="translate(-36.86 -68.57)" fill="#d1d1d1"/><path d="M175,427.51a4,4,0,0,1-3-.12c-2-1.12-3.9-2.36-5.8-3.62a1.21,1.21,0,0,1-.4-2,47.83,47.83,0,0,0,2.51-4.19l-.37,0h0c-1,1.62-2.08,3.26-3.17,4.85-.49.7,0,.89.44,1.16,2.13,1.33,4.19,2.78,6.38,4a3.4,3.4,0,0,0,2.87.44,6.55,6.55,0,0,1,7.51,2.72,9.38,9.38,0,0,1,1.83,6.44,1.86,1.86,0,0,0,.33-.78C184.8,432.62,180.5,426.23,175,427.51Z" transform="translate(-36.86 -68.57)" fill="#d1d1d1"/><path d="M269.46,429.64c-6.59.13-13.18.55-19.77-.23-4.14-.5-8.22-1.28-12.32-2-2.46-.42-4.29-1.84-4.6-4.59-.15-1.25-.26-2.5-.44-3.74a9.08,9.08,0,0,0-.4-2.84h-.38v.06c.33,1.8.34,3.64.56,5.45.46,3.76,2,5.53,5.7,6.27,1.9.38,3.84.59,5.75,1a90.84,90.84,0,0,0,22,1.21,18.82,18.82,0,0,0,6.24-.84h0A12.55,12.55,0,0,0,269.46,429.64Z" transform="translate(-36.86 -68.57)" fill="#d1d1d1"/><path d="M82.51,445.67l.09-.68c.31-2.36.31-2.35-1.81-3.6a4.48,4.48,0,0,1-1.94-1.64,3.65,3.65,0,0,1-2.82.16,37,37,0,0,0-5.64-.49,198.4,198.4,0,0,0-21.12.28,26.64,26.64,0,0,0-5.72,1,3.71,3.71,0,0,0-2.77,3,5.92,5.92,0,0,0,2.61,6.41,15.76,15.76,0,0,0,8.25,2.55c3.83.22,7.67.25,11.5.37,2.35.07,4.69.16,7,.25,5.67.23,11.34.2,17,.08h0A6.64,6.64,0,0,1,82.51,445.67Z" transform="translate(-36.86 -68.57)" fill="#d1d1d1"/><path d="M82.88,446a11.25,11.25,0,0,1,.61-2.83c.28-.6,0-.81-.47-1.05-1.4-.76-2.78-1.54-4.17-2.32a4.48,4.48,0,0,0,1.94,1.64c2.12,1.25,2.12,1.24,1.81,3.6l-.09.68a6.64,6.64,0,0,0,4.67,7.71c-.63-.48-1.28-.93-1.89-1.43A5.89,5.89,0,0,1,82.88,446Z" transform="translate(-36.86 -68.57)" fill="#d1d1d1"/><path d="M168.64,439.27a5.07,5.07,0,0,0-2.66-3.15c-2.27-1.22-4.6-2.31-6.83-3.6a2.56,2.56,0,0,0-3.39.5,52.16,52.16,0,0,1-9.33,6.68c-1,.57-1.29,1-.6,2.1,2.35,3.76,1,7.83-3.15,9.75A20.29,20.29,0,0,1,131.26,453a6.35,6.35,0,0,1-5.41-4c-.45-1.12-1.14-1.23-2.15-1a53.45,53.45,0,0,1-15,1c-3-.29-5.11.08-6.56,2.92a4.26,4.26,0,0,1-3,2.16c.34,0,.68,0,1,0,10.65,0,21.29.09,31.94-.26,5-.16,9.92-.24,14.8-1.41a5.35,5.35,0,0,0,4.38-4c.21-.77-.31-1.41-.18-2.12,1.24-.14,2.37-.35,3.5-.38,4.92-.14,9.83-.49,14.76-.43a31.14,31.14,0,0,0,4.61-.37,3.16,3.16,0,0,0,1.91-.6h0C172.86,445,169.53,442.17,168.64,439.27Z" transform="translate(-36.86 -68.57)" fill="#d1d1d1"/><path d="M168.7,437.84a1.5,1.5,0,0,0-.74-1.08c-3.13-1.78-6.32-3.45-9.53-5.08a1.74,1.74,0,0,0-2.26.41,58.08,58.08,0,0,1-10.74,7.66c-.37.21-.87.29-1,.82a8.24,8.24,0,0,1,.66.78c.7,1.1,1.59,2.08,1.6,3.52a6.52,6.52,0,0,1-3.94,6.14,18.3,18.3,0,0,1-11,1.65c-2.59-.36-4.82-1.49-5.65-4.32-.34-1.16-.36-1.15-1.63-.92a66.28,66.28,0,0,1-15.2,1.17c-1.49-.07-3-.21-4.45-.3-.45,0-.86-.1-1.1.5A12.41,12.41,0,0,1,99.14,454a4.26,4.26,0,0,0,3-2.16c1.45-2.84,3.58-3.21,6.56-2.92a53.45,53.45,0,0,0,15-1c1-.19,1.7-.08,2.15,1a6.35,6.35,0,0,0,5.41,4,20.29,20.29,0,0,0,11.42-1.48c4.14-1.92,5.5-6,3.15-9.75-.69-1.1-.39-1.53.6-2.1a52.16,52.16,0,0,0,9.33-6.68,2.56,2.56,0,0,1,3.39-.5c2.23,1.29,4.56,2.38,6.83,3.6a5.07,5.07,0,0,1,2.66,3.15c.89,2.9,4.22,5.75,7.24,5.2h0a1,1,0,0,0-.3-.17A7.81,7.81,0,0,1,168.7,437.84Z" transform="translate(-36.86 -68.57)" fill="#d1d1d1"/><path d="M177,444.36l-.13.06a2.6,2.6,0,0,0,1.41-.26C177.9,444.42,177.42,444.2,177,444.36Z" transform="translate(-36.86 -68.57)"/><path d="M177,444.36c.41-.16.89.06,1.28-.2A2.16,2.16,0,0,0,177,444.36Z" transform="translate(-36.86 -68.57)"/><path d="M165.66,137.92c1.29,1.77,1.42,1.86,3.54,1.17,1.47-.48,3-.86,4.39-1.48,1.88-.82,3.89-.84,5.85-1.18a4.62,4.62,0,0,1,3.51,2.14,2.86,2.86,0,0,1-.85,3.13,15.82,15.82,0,0,1-2.56,2.28,20.69,20.69,0,0,0-4.28,4.18c-.22.26-.47.54-.31.92s.55.35.88.36a8.68,8.68,0,0,0,4.83-.88c1.05-.58,2.13-1.11,3.18-1.7,2.82-1.57,5.13-1.14,7.1,1.4,1.33,1.72,2.7,3.39,3.88,5.23a25.66,25.66,0,0,0,2.88,3.4,20.87,20.87,0,0,1,2.18,2.85,5.57,5.57,0,0,1-.53,7.33,11.93,11.93,0,0,1-3.52,2.72,26.5,26.5,0,0,0-5.54,4,38.47,38.47,0,0,1-3.88,3.1,20.1,20.1,0,0,0-6,6.92,26.93,26.93,0,0,1-6.82,8.09,5,5,0,0,0-2.2,4.56,9.69,9.69,0,0,1-1.57,5.7,4.73,4.73,0,0,1-5.67,2.39c-2.11-.48-4.11-1.4-6.31-1.52h0c2.62,4,5.31,7.94,8.15,11.78a20.58,20.58,0,0,1,6.32.38,9.14,9.14,0,0,1,5,2.83h0c6.39-2.32,12.82-4.51,19.42-6.24a93.18,93.18,0,0,1,24.79-3.08,94.16,94.16,0,0,1,19.43,2.13c5.81,1.28,11.59,2.67,17.3,4.33a90.69,90.69,0,0,1,16.89,7.1c.84.44,1.58,1.6,2.44,1.29s1.38-1.45,1.9-2.34a11.56,11.56,0,0,1-2.37-8.71,61.56,61.56,0,0,1,1.59-9.61c.58-2.11,1.39-4.12,2.1-6.17A19.84,19.84,0,0,0,282,193c.32-2.52,2.06-3.3,4.13-3.62a11.09,11.09,0,0,1,4.1.07,8.48,8.48,0,0,0,3.58,0,6.22,6.22,0,0,1,4.47.58,9.74,9.74,0,0,0,5.05,1.39h0a4.87,4.87,0,0,0,1.16-1.47c-1.44-.16-1.88-1.19-2-2.4a11.45,11.45,0,0,1,.12-2.74,11.86,11.86,0,0,0-.58-6.74,10,10,0,0,1-.65-2.65c-.2-1.28-.45-1.35-1.51-.72a3.65,3.65,0,0,0-1.92,3.38c-.05,2.67-.5,5.25-2.63,7.19a2.51,2.51,0,0,1-1.95.9,3.27,3.27,0,0,0-1.63.49,6.12,6.12,0,0,1-4,.36,3.49,3.49,0,0,0-1-.16c-1.86.1-2.85-1-3.47-2.54a9,9,0,0,1-.74-3.33,21.68,21.68,0,0,0-.62-5.26,6,6,0,0,1-.1-1.2c-.07-1.83.24-2.33,2-2.92a11.12,11.12,0,0,0,2.29-1.14c.75-.48.78-.87.1-1.44a4.35,4.35,0,0,0-.87-.54,4.21,4.21,0,0,1-2.43-4.19c0-1.49,0-3,.07-4.47a4.94,4.94,0,0,0-.46-2.33c-1.17-2.35-.62-4.7.12-7a2.61,2.61,0,0,1,2.68-1.78,6.13,6.13,0,0,0,2.9-.93,2.13,2.13,0,0,0,1.18-2.29,29.26,29.26,0,0,0-1.72-6.77c-.43-1.2-1.14-1.33-2.08-.5a8.34,8.34,0,0,0-1.83,2.26,26.33,26.33,0,0,1-7.17,8.23,13,13,0,0,1-3.32,1.74,4.45,4.45,0,0,1-3.8-.41,2.73,2.73,0,0,1-1.17-3.43,11.69,11.69,0,0,1,2-3.61,21,21,0,0,0,3.78-7.25,8.33,8.33,0,0,1,2.32-3.76,60.38,60.38,0,0,1,6-5.64h0a45.33,45.33,0,0,0-6.45-3.78,87.35,87.35,0,0,0-13.16-5.83,106.69,106.69,0,0,0-28.6-6,97.8,97.8,0,0,0-20,.54,25.9,25.9,0,0,1,3.69,9,6.36,6.36,0,0,1-3.51,7.13c-2.55,1.14-5.24,2-7.86,2.92l-6.29,2.29a4.69,4.69,0,0,1-3.16.32,3.58,3.58,0,0,1-2.74-3.17c-.46-3.77-2.62-6.39-5.5-8.55-1.09-.82-2.31-1.48-3.47-2.22h0a8,8,0,0,0-2.07.8,103.44,103.44,0,0,0-15,8.34,49.8,49.8,0,0,0-6.33,4.69A34.64,34.64,0,0,1,165.66,137.92Zm107.71,70.76a2.65,2.65,0,0,1,1.86,2.07,2.62,2.62,0,0,1-1.7,3.16,10.46,10.46,0,0,1-4.35.51,8.38,8.38,0,0,1-3.41-.42,2.9,2.9,0,0,1-1.78-2.52,3.37,3.37,0,0,1,2-2.82A13.19,13.19,0,0,1,273.37,208.68ZM241.3,195.5a23.79,23.79,0,0,1,2-6.91,13.34,13.34,0,0,1,10.8-7.78c4.11-.6,7.51,1.14,10.06,4.38a20.5,20.5,0,0,1,3.88,10c.19,1.24.25,2.51.32,3.23a8.73,8.73,0,0,1-.51,3.72,2.12,2.12,0,0,1-2,1.59,2.06,2.06,0,0,1-1.81-2c-.2-1.53-.29-3.08-.41-4.62a19.37,19.37,0,0,0-2.27-7.85,6.4,6.4,0,0,0-8.46-3,8.84,8.84,0,0,0-4.9,4.54,48.16,48.16,0,0,0-1.86,5.71,7.54,7.54,0,0,1-.83,2.06,2.22,2.22,0,0,1-2.3,1.16,2.15,2.15,0,0,1-1.66-2A8.25,8.25,0,0,1,241.3,195.5ZM181.47,212a19.26,19.26,0,0,1-5.84,1,7.54,7.54,0,0,1-2.36-.3c-1.56-.41-2.4-1.17-2.53-2.39a3.23,3.23,0,0,1,1.9-3c2.51-1,5.1-1.66,7.8-.74a5.66,5.66,0,0,1,1.8.95C184.11,209.1,183.77,211.21,181.47,212Zm23.84-24.68A20.67,20.67,0,0,1,208,196a5.65,5.65,0,0,1-.1,2,2,2,0,0,1-1.55,1.66,2.07,2.07,0,0,1-2.11-.84,5.7,5.7,0,0,1-.94-2c-.49-1.64-1-3.29-1.5-4.92a8.87,8.87,0,0,0-6.14-6,6.12,6.12,0,0,0-7.09,2.4,15.71,15.71,0,0,0-2.68,7.16c-.25,1.87-.34,3.76-.55,5.64-.19,1.66-.78,2.45-1.82,2.54s-1.89-.75-2.31-2.35a10.08,10.08,0,0,1-.24-2.9c.26-4.63,1.12-9.1,3.95-12.94,2.48-3.38,5.89-5.21,10.07-4.71A13.26,13.26,0,0,1,205.31,187.34Z" transform="translate(-36.86 -68.57)" fill="#5c9ae3"/><path d="M231.55,416.27h.38a1.7,1.7,0,0,0-.39-.27A2.44,2.44,0,0,0,231.55,416.27Z" transform="translate(-36.86 -68.57)" fill="#fff"/><path d="M168.35,417.6l0-.06c0-.09.09-.17.13-.25a2.62,2.62,0,0,0-.54.35h0Z" transform="translate(-36.86 -68.57)" fill="#fff"/><path d="M105,374.07a90.63,90.63,0,0,1-10.68,2.42c-3.79.56-7.59.87-11.4,1.13-2.82.19-5.72.72-8.48-.44-.61-.26-1,0-1.33.45l-2.58,3.05a5.47,5.47,0,0,1-.61-.36c-2.59-2.08-5.15-4.2-7.77-6.24-.94-.73-1.34-1.43-.75-2.59a2.87,2.87,0,0,0-.16-3,6.18,6.18,0,0,0-6.09-2.26c-4.19,1.09-5.81,6.51-4.54,9.61,1,2.54,4.66,4.31,6.87,2.1.65-.65,1.19-.36,1.82,0,2.78,1.72,5.25,3.88,7.9,5.78.65.46.78.91.26,1.55a6.41,6.41,0,0,0-.44.73,38,38,0,0,0-5.25,20,28.84,28.84,0,0,0,.32,3.59c.12.87-.05,1.35-1,1.58-2.56.59-5.07,1.4-7.64,1.93-4,.85-3.07,1.18-6-1.18a4.89,4.89,0,0,0-7.31,1.82A6.51,6.51,0,0,0,44.19,423c2.09.58,5.36-.63,6.05-2.56A3.47,3.47,0,0,1,53,418.19a62.09,62.09,0,0,1,9.23-1.95c1.36-.21,1.38-.22,1.84,1a37.24,37.24,0,0,0,12,16c8.5,6.71,18.37,9.89,29,10.82a69.37,69.37,0,0,0,18.64-1A64.09,64.09,0,0,0,155.18,428c1-.86,1-.85,2.17-.13.59.36,1.18.72,1.78,1.05,3.75,2.09,7.49,4.19,11.26,6.25a1.72,1.72,0,0,1,1.1,1.71,5.42,5.42,0,0,0,1.2,3.17c2.09,2.86,6.39,2.47,7.71-.45a6.89,6.89,0,0,0-.64-7.19,4.13,4.13,0,0,0-4.89-1.42,2.88,2.88,0,0,1-2.72-.08c-4.37-2-8.27-4.89-12.74-7,.16-.28.2-.39.27-.48,5.22-6.18,8.74-13.13,9.69-21.25.08-.73.45-.94,1.11-1,4.22-.37,8.39-1.18,12.63-1.26a1.57,1.57,0,0,1,1.6.67c1.48,2.19,3.72,2.63,6.08,2.18a4.59,4.59,0,0,0,4-3.33,6.93,6.93,0,0,0-4.51-8.37c-2.15-.75-4.75,0-5.74,1.83a3.72,3.72,0,0,1-3.14,2.05c-3.35.38-6.7.76-10.06,1.08-1.49.13-1.6.35-1.79-1.41a35.56,35.56,0,0,0-9.09-20.36c-.6-.68-1.17-1.38-1.76-2.08,2.49-2.85,4.56-6,7.07-8.72a2.68,2.68,0,0,1,2.79-1.13,2.85,2.85,0,0,0,2.32-.32c2.6-1.72,4.58-4.82,3.3-8.59a3.92,3.92,0,0,0-2-2.44,8,8,0,0,0-8.18.34,5.87,5.87,0,0,0-2.18,7.26,2,2,0,0,1-.15,2.21c-.38.57-.81,1.11-1.23,1.65-1.59,2-3.48,3.82-4.83,6-.43.7-.84.56-1.38.17-1-.71-1.93-1.45-2.95-2.08a52.43,52.43,0,0,0-20.18-7.36c-1.6-.24-1.65-.32-1.48-2,.31-2.9.67-5.8.86-8.71a3.61,3.61,0,0,1,2.16-3.52c1.65-.77,2.52-3.15,2.18-5-.39-2.16-1.47-3.74-3.73-4.19a8.21,8.21,0,0,0-6.91,1.82c-2.85,2.28-2.59,5.21.37,7.24a2.15,2.15,0,0,1,1.07,2.07c0,3.63-1.09,7.12-1.39,10.71a.61.61,0,0,1-.68.6h-1.21c-2.17.07-4.35-.05-6.52.19-.7.08-1,.28-.9,1.05.23,2.74,0,5.48,0,8.21a4.2,4.2,0,0,1-1.55,3.48,7.32,7.32,0,0,1-2.71,1.45C108.73,373,106.87,373.56,105,374.07Zm17.69,51.7c.4-5.36,1.16-10.7,1-16.1a69.16,69.16,0,0,1,.73-10.95c.31-2.51.53-5,.64-7.53a17.22,17.22,0,0,1,.55-3.9c.08-.3.06-.71.6-.83a2.21,2.21,0,0,1,.54,1.48,52.46,52.46,0,0,1,.44,11.13c-.17,1.74-.14,1.75,1.49,2.25a47.91,47.91,0,0,1,9.4,3.72,29.17,29.17,0,0,1,10.63,9.78c2.66,4.1,1.46,11.32-2.52,13.94a13.42,13.42,0,0,1-11.61,2,36.79,36.79,0,0,1-4.14-1.65,19.23,19.23,0,0,0-4.46-1.2c-.86-.15-1.63-.12-1.74,1a.79.79,0,0,1-.14.31.89.89,0,0,1-1,.49.81.81,0,0,1-.65-.89C122.47,427.82,122.61,426.8,122.69,425.77Zm-12.89-6.51a22,22,0,0,1-4.5,3.42c-.71.4-.85.75-.39,1.47a22.26,22.26,0,0,1,2.61,6c.2.71.59,1.61-.28,2s-1.33-.48-1.7-1.1c-1-1.62-1.91-3.26-2.83-4.91-.8-1.41-.8-1.46-2.13-.62A33.48,33.48,0,0,1,93.17,429c-.65.22-1.55.86-2,.06-.35-.63.58-1.16,1.09-1.54,2.28-1.73,4.6-3.41,6.92-5.08,1.29-.93,1.13-.88.49-2a38.57,38.57,0,0,1-3.14-7c-.2-.59-.61-1.25.23-1.61s1.16.26,1.49.82c.78,1.34,1.54,2.68,2.3,4,.54.95,1.1,1.88,1.61,2.84.32.58.66.7,1.23.32,1.28-.86,2.59-1.68,3.89-2.52a3.48,3.48,0,0,1,2.24-.72,1.05,1.05,0,0,1,1.08,1.08A2.14,2.14,0,0,1,109.8,419.26Zm3.8-36.49c.6-.41,1.29-.88,2-.29.51.42.41,1.2-.29,2.18A9.49,9.49,0,0,1,114,386.2a1,1,0,0,0-.2,1.45,12.51,12.51,0,0,1,.43,11.86,1.73,1.73,0,0,1-.16.3c-3.07,4.31-9.49,8.69-16,4.2a10.53,10.53,0,0,1-3.13-3.38,16.23,16.23,0,0,1-2.34-9.34c.07-1-.18-1.33-1.08-1.55a15.33,15.33,0,0,1-4.31-1.68c-.28-.17-.69-.35-.63-.72.09-.56.62-.36,1-.4a5.27,5.27,0,0,1,.67,0c2.19.18,4.14.68,6.13.91,3.92.45,7.86.7,11.74-.44a13.83,13.83,0,0,0,5-2.66C111.84,384.05,112.7,383.38,113.6,382.77Z" transform="translate(-36.86 -68.57)" fill="#60cb2d"/><path d="M173.47,274.63c4.86,4.06,9.92,7.77,15.9,10,2.47.93,4.93,1.84,7.43,2.65,8.31,2.7,16.91,3.46,25.87,3.76a91.55,91.55,0,0,0,39.06-9.57,47.73,47.73,0,0,0,7.66-4.87,6.88,6.88,0,0,0,1.88-2.21,1.19,1.19,0,0,0-.08-1.41,16.93,16.93,0,0,1-2.58-13.91c1.67-7.57,4.33-14.83,6.83-22.14.75-2.21,1.78-4.34,2.34-6.63a2.92,2.92,0,0,0-1.36-3.4,58.7,58.7,0,0,0-12.09-6.06,137.13,137.13,0,0,0-18.62-5.35,140.5,140.5,0,0,0-19.78-3.29,84.1,84.1,0,0,0-22.57,1.34,157.39,157.39,0,0,0-23.84,7,48.17,48.17,0,0,0-9.44,4.86,1.8,1.8,0,0,0-1,2.1,60.35,60.35,0,0,0,1.46,6.36q2.29,7.38,4.5,14.78a39.66,39.66,0,0,1,1.65,7.71c.44,4.94,0,9.61-3.64,13.48C171.85,271.21,171.52,273,173.47,274.63Zm8.93-25c.1-1,1.21-.56,1.85-.5,4,.39,8.09.41,12.11.9,2,.24,4,.39,6,.49,3.87.21,7.77.14,11.63.59.17,0,.34,0,.51,0,4.41.1,8.81.07,13.21.3,5.09.27,10.18-.24,15.26-.38,3.4-.1,6.83-.36,10.23-.79,2.54-.32,5.21-.92,7.89.37a12.09,12.09,0,0,1-2,.8c-2.9.59-5.83,1.06-8.77,1.47-10.7,1.48-21.46,1.09-32.2.93-4.62-.08-9.25-.31-13.86-.66-6.77-.5-13.47-1.59-20.15-2.72C183.45,250.38,182.33,250.34,182.4,249.67Zm78.08,19a38.8,38.8,0,0,1-7.15,2.86,82.58,82.58,0,0,1-10.68,2.32c-1.35.2-2.73.3-4.09.37a80.09,80.09,0,0,1-11.48.35c-3.64-.33-7.31-.12-10.94-.66-2.14-.32-4.27-.71-6.41-1-4.85-.71-9.62-1.88-14.45-2.67a27.9,27.9,0,0,1-3.95-1.13c-1.57-.52-3.13-1.09-4.74-1.49a7.87,7.87,0,0,1-3.05-1.51c-.19-.15-.38-.31-.3-.55a.58.58,0,0,1,.69-.38,5.31,5.31,0,0,1,.65.19c3.55.83,7.07,1.83,10.66,2.46,4.76.83,9.54,1.64,14.31,2.44a116.28,116.28,0,0,0,20,1.31c1.21,0,2.37.47,3.58.3,2.77-.38,5.58-.34,8.36-.56s5.56-.63,8.3-1.12a37.36,37.36,0,0,0,9-2.64,5.91,5.91,0,0,1,3-.5C261.86,268,261.1,268.29,260.48,268.62Zm-81.39-38.08a56.54,56.54,0,0,1,9-3.2,109.15,109.15,0,0,1,16.6-3.23c3.12-.36,6.24-.73,9.38-.86,3.31-.15,6.62-.63,9.92-.5s6.41.12,9.6.29a118.29,118.29,0,0,1,14.75,1.9c3.7.67,7.4,1.36,11.07,2.21,3.35.78,6.42,2.38,9.59,3.67.52.21,1.18.48,1.32,1.31a4.94,4.94,0,0,1-2.84-.44c-2.86-.8-5.59-2-8.53-2.57-2.63-.47-5.28-.89-7.93-1.29-2.87-.45-5.74-.89-8.62-1.25-1.47-.19-2.94-.4-4.43-.51-4.28-.3-8.59-.1-12.86-.41a105.15,105.15,0,0,0-10.95.2c-4.09.13-8.18.66-12.26,1.17a150.28,150.28,0,0,0-22.42,4.67c-.48.14-1.15.53-1.39,0C177.83,231,178.6,230.77,179.09,230.54Z" transform="translate(-36.86 -68.57)" fill="#e7fdf4"/><path d="M279.52,308.5a101.07,101.07,0,0,0,16.34-11.66,106.48,106.48,0,0,0,35-61.17,3,3,0,0,0,0-1.8,49.87,49.87,0,0,0-4,3.21,9.48,9.48,0,0,1-.73,7.13c-1.83,3.75-2.94,7.78-4.81,11.52-.83,1.67-1,3.62-1.68,5.38A67.2,67.2,0,0,1,314,271.46c-1.79,2.93-3.76,5.73-5.65,8.6a73.58,73.58,0,0,1-8.2,10.32,10.57,10.57,0,0,1-5.86,3.35,5.63,5.63,0,0,1-1.53.09A1.7,1.7,0,0,1,291,292a6.57,6.57,0,0,1,.75-3.64c1.4-2.64,2.26-5.5,3.62-8.15a20.34,20.34,0,0,0,1.3-4.43c.76-3,1.61-5.94,2.38-8.92a14.76,14.76,0,0,0,.14-5.3c-.11-1-.24-2-.29-3.06h0c-.47.32-.95.62-1.41,1-3.57,2.68-7.1,5.43-10.73,8-6.59,4.73-12.64,10.22-19.88,14-4.05,2.13-7.87,4.7-12.13,6.41a88,88,0,0,1-25.87,5.8,90.33,90.33,0,0,1-27.46-2.26,82.56,82.56,0,0,1-22.1-8.26c-.23,2.33-.5,4.65-.67,7-.24,3.16.59,6.25.79,9.38,0,.34.13.67.16,1,.2,2.79-1.88,4.28-4.56,3.28a10.9,10.9,0,0,1-4.8-4c-1.15-1.54-1.6-3.41-2.38-5.12-1.7-3.75-3.5-7.46-5.2-11.2q-3.73-8.21-7.4-16.43a36.36,36.36,0,0,1-2-6.36,5.59,5.59,0,0,0-.45-.52q-14.87-13-29.74-26c-.23-.19-.42-.58-.84-.35a2,2,0,0,0,0,.34,5.43,5.43,0,0,0,.09.69c3.76,20.1,12.07,38,25.84,53.24,18.52,20.5,41.7,31.67,69.11,34.17a108.55,108.55,0,0,0,62.23-13.81Z" transform="translate(-36.86 -68.57)" fill="#5c9ae3"/><path d="M149.5,191c2.74,4,5.53,8,8.3,12,1.14-.69,2.22,0,3.29.22s2.07.67,3.14.89a4.43,4.43,0,0,0,5.22-2.32,10.36,10.36,0,0,0,1.51-5.57,5.18,5.18,0,0,1,2.21-4.59,26,26,0,0,0,6.73-7.94,21.62,21.62,0,0,1,6.83-7.58,44.72,44.72,0,0,0,4-3.28,31.13,31.13,0,0,1,4.89-3.47,12.24,12.24,0,0,0,3.49-2.76,5.24,5.24,0,0,0,.39-6.76,19.93,19.93,0,0,0-2.56-3.21c-2.31-2.41-4-5.31-6.1-7.86s-4.06-3.06-7.18-1.32c-2.19,1.22-4.35,2.61-7,2.35-.66-.06-1.48.14-1.85-.6s.3-1.36.74-1.94a15.49,15.49,0,0,1,3.82-3.67,13.66,13.66,0,0,0,2-1.84c.81-.84,1.63-1.71,1.1-3-.44-1.08-2.21-1.86-3.62-1.79a18.29,18.29,0,0,0-5.51,1.19c-1.29.47-2.6.9-3.91,1.31-2.22.68-2.77.51-4-1.34s-2.74-3.25-3.53-5.25c-.37.25-.77.48-1.12.76a107.52,107.52,0,0,0-26.81,31.91,2.25,2.25,0,0,0,.15,2.75C139.22,175.87,144.34,183.47,149.5,191Z" transform="translate(-36.86 -68.57)" fill="#79da7c"/><path d="M169.39,139.49c1.31-.41,2.62-.84,3.91-1.31a18.29,18.29,0,0,1,5.51-1.19c1.41-.07,3.18.71,3.62,1.79.53,1.31-.29,2.18-1.1,3a13.66,13.66,0,0,1-2,1.84,15.49,15.49,0,0,0-3.82,3.67c-.44.58-1.15,1.11-.74,1.94s1.19.54,1.85.6c2.7.26,4.86-1.13,7-2.35,3.12-1.74,4.93-1.37,7.18,1.32s3.79,5.45,6.1,7.86a19.93,19.93,0,0,1,2.56,3.21,5.24,5.24,0,0,1-.39,6.76,12.24,12.24,0,0,1-3.49,2.76,31.13,31.13,0,0,0-4.89,3.47,44.72,44.72,0,0,1-4,3.28,21.62,21.62,0,0,0-6.83,7.58,26,26,0,0,1-6.73,7.94,5.18,5.18,0,0,0-2.21,4.59,10.36,10.36,0,0,1-1.51,5.57,4.43,4.43,0,0,1-5.22,2.32c-1.07-.22-2.08-.66-3.14-.89s-2.15-.91-3.29-.22h0c2.2.12,4.2,1,6.31,1.52a4.73,4.73,0,0,0,5.67-2.39,9.69,9.69,0,0,0,1.57-5.7,5,5,0,0,1,2.2-4.56,26.93,26.93,0,0,0,6.82-8.09,20.1,20.1,0,0,1,6-6.92,38.47,38.47,0,0,0,3.88-3.1,26.5,26.5,0,0,1,5.54-4,11.93,11.93,0,0,0,3.52-2.72,5.57,5.57,0,0,0,.53-7.33,20.87,20.87,0,0,0-2.18-2.85,25.66,25.66,0,0,1-2.88-3.4c-1.18-1.84-2.55-3.51-3.88-5.23-2-2.54-4.28-3-7.1-1.4-1.05.59-2.13,1.12-3.18,1.7a8.68,8.68,0,0,1-4.83.88c-.33,0-.72,0-.88-.36s.09-.66.31-.92a20.69,20.69,0,0,1,4.28-4.18,15.82,15.82,0,0,0,2.56-2.28,2.86,2.86,0,0,0,.85-3.13,4.62,4.62,0,0,0-3.51-2.14c-2,.34-4,.36-5.85,1.18-1.41.62-2.92,1-4.39,1.48-2.12.69-2.25.6-3.54-1.17a34.64,34.64,0,0,0-3.85-5c.79,2,2.33,3.51,3.53,5.25S167.17,140.17,169.39,139.49Z" transform="translate(-36.86 -68.57)" fill="#79da7c"/><path d="M281.31,127.75c-1.65,1.51-3.19,3.12-4.76,4.71a8.38,8.38,0,0,0-2.23,3.63,21.1,21.1,0,0,1-3.61,7,16.2,16.2,0,0,0-1.61,2.64c-.54,1.11-.94,2.31,0,3.39a3.44,3.44,0,0,0,3.61,1,11.39,11.39,0,0,0,5-2.94,25.09,25.09,0,0,0,5.43-6.61,8.32,8.32,0,0,1,2-2.51c1.21-1,2.26-.79,2.85.68a24.45,24.45,0,0,1,1.72,6.63,2.75,2.75,0,0,1-1.37,2.76,6.92,6.92,0,0,1-3.06,1.06,2.68,2.68,0,0,0-2.48,2,8.66,8.66,0,0,0,0,6.06c.78,1.8.47,3.74.42,5.61-.06,2.33.39,4.23,2.63,5.51,1.45.83,1.29,1.82-.15,2.75a8.72,8.72,0,0,1-1.21.64c-2.21,1-2.52,1.55-2.15,4a40.85,40.85,0,0,1,.59,4.94c.11,4.2,1.47,5.93,5.6,5.9,4.64,0,8-1.27,8.74-6.49a21.47,21.47,0,0,0,.23-2.39,3.91,3.91,0,0,1,2.06-3.37c1.17-.72,1.76-.51,2.15.83,1,3.47,2.06,6.92,1.2,10.62a4.17,4.17,0,0,0,1.51,4.14c2-2.12,3.66-4.49,5.51-6.73a6.28,6.28,0,0,0,.62-1.18,24.61,24.61,0,0,0,.55-4.45c1,.33,1.39,1.09,2,1.61h0c.38-.41.78-.82,1.14-1.26,2.07-2.52,4.11-5.07,6.2-7.57,1.06-1.26,1.08-.94.27-2.49a106.09,106.09,0,0,0-37.12-40.8,3.72,3.72,0,0,0-1.34-.73h0C282.27,127.08,281.73,127.37,281.31,127.75Z" transform="translate(-36.86 -68.57)" fill="#79da7c"/><path d="M276.26,132a8.33,8.33,0,0,0-2.32,3.76,21,21,0,0,1-3.78,7.25,11.69,11.69,0,0,0-2,3.61,2.73,2.73,0,0,0,1.17,3.43,4.45,4.45,0,0,0,3.8.41,13,13,0,0,0,3.32-1.74,26.33,26.33,0,0,0,7.17-8.23,8.34,8.34,0,0,1,1.83-2.26c.94-.83,1.65-.7,2.08.5a29.26,29.26,0,0,1,1.72,6.77,2.13,2.13,0,0,1-1.18,2.29,6.13,6.13,0,0,1-2.9.93,2.61,2.61,0,0,0-2.68,1.78c-.74,2.31-1.29,4.66-.12,7a4.94,4.94,0,0,1,.46,2.33c0,1.49,0,3-.07,4.47a4.21,4.21,0,0,0,2.43,4.19,4.35,4.35,0,0,1,.87.54c.68.57.65,1-.1,1.44a11.12,11.12,0,0,1-2.29,1.14c-1.72.59-2,1.09-2,2.92a6,6,0,0,0,.1,1.2,21.68,21.68,0,0,1,.62,5.26,9,9,0,0,0,.74,3.33c.62,1.52,1.61,2.64,3.47,2.54a3.49,3.49,0,0,1,1,.16,6.12,6.12,0,0,0,4-.36,3.27,3.27,0,0,1,1.63-.49,2.51,2.51,0,0,0,1.95-.9c2.13-1.94,2.58-4.52,2.63-7.19a3.65,3.65,0,0,1,1.92-3.38c1.06-.63,1.31-.56,1.51.72a10,10,0,0,0,.65,2.65,11.86,11.86,0,0,1,.58,6.74,11.45,11.45,0,0,0-.12,2.74c.1,1.21.54,2.24,2,2.4a4.17,4.17,0,0,1-1.51-4.14c.86-3.7-.19-7.15-1.2-10.62-.39-1.34-1-1.55-2.15-.83a3.91,3.91,0,0,0-2.06,3.37,21.47,21.47,0,0,1-.23,2.39c-.7,5.22-4.1,6.46-8.74,6.49-4.13,0-5.49-1.7-5.6-5.9a40.85,40.85,0,0,0-.59-4.94c-.37-2.44-.06-3,2.15-4a8.72,8.72,0,0,0,1.21-.64c1.44-.93,1.6-1.92.15-2.75-2.24-1.28-2.69-3.18-2.63-5.51.05-1.87.36-3.81-.42-5.61a8.66,8.66,0,0,1,0-6.06,2.68,2.68,0,0,1,2.48-2,6.92,6.92,0,0,0,3.06-1.06,2.75,2.75,0,0,0,1.37-2.76,24.45,24.45,0,0,0-1.72-6.63c-.59-1.47-1.64-1.68-2.85-.68a8.32,8.32,0,0,0-2,2.51,25.09,25.09,0,0,1-5.43,6.61,11.39,11.39,0,0,1-5,2.94,3.44,3.44,0,0,1-3.61-1c-.92-1.08-.52-2.28,0-3.39a16.2,16.2,0,0,1,1.61-2.64,21.1,21.1,0,0,0,3.61-7,8.38,8.38,0,0,1,2.23-3.63c1.57-1.59,3.11-3.2,4.76-4.71.42-.38,1-.67.95-1.35h0A60.38,60.38,0,0,0,276.26,132Z" transform="translate(-36.86 -68.57)" fill="#79da7c"/><path d="M329.25,220.63a64.46,64.46,0,0,0-1.13-12.09,24.49,24.49,0,0,0-1.33-4.07,3.5,3.5,0,0,0-1-1.34,21,21,0,0,0-7.41-4.53,8.32,8.32,0,0,1-4.8-3.9,2.62,2.62,0,0,0-1.46-1.37h0a5.51,5.51,0,0,0-1.16,1.25q-10,12-19.95,24c-3.09,3.73-6.14,7.52-9.2,11.28a60.3,60.3,0,0,0,1,10.2,10.41,10.41,0,0,0,4.41,6.5,42.1,42.1,0,0,0,5.63,3.27,6,6,0,0,1,2.37,1.65h0a9.49,9.49,0,0,0,.83-.58q13.53-10.92,27-21.86c2.08-1.69,4.13-3.43,6.19-5.14C329.26,222.8,329.21,221.71,329.25,220.63Z" transform="translate(-36.86 -68.57)" fill="#79da7c"/><path d="M329,258.94c1.35.31,2.47-.12,3.61-.1,5.15.09,10.31.05,15.46.14,9,.14,18,.33,27,.72,4.81.2,9.63.09,14.44.12,3.95,0,7.88-.35,11.82-.69s6.37-2.49,7.48-6.22c.12-.38.24-.76.33-1.15a27.25,27.25,0,0,0,.62-4.93c.13-3.16-.24-6.29-.36-9.44-.14-3.71-.39-7.43-.73-11.13a164.8,164.8,0,0,1-.89-16.63c0-.8,0-1.6,0-2.4s-.4-1.11-1.16-1c-3.13.48-6.29.18-9.43.52-1.49.16-1.52.08-1.52,1.54,0,2.58-.07,5.16,0,7.73.11,4.41,0,8.82.25,13.23.18,4.1.24,8.23-.88,12.28a5.28,5.28,0,0,1-4.44,4.19,36.55,36.55,0,0,1-5.8.59c-13.64.34-27.27,0-40.9-.32-.51,0-1-.07-1.54-.12-2.56-.25-5.15-.07-7.71-.48a1,1,0,0,0-1.34.93c-.2.9-.51,1.76-.76,2.64C331.52,252.31,330.25,255.56,329,258.94Z" transform="translate(-36.86 -68.57)" fill="#6a6a6a"/><path d="M133.13,195.27a3.88,3.88,0,0,0,.32,1c1.37,2.29,1.26,4.8,1.2,7.32a12.79,12.79,0,0,0,2.2,8c.8,1.13,1.46,2.31,2.18,3.48a1.68,1.68,0,0,1,.09,2.06.83.83,0,0,0-.14.32c-.3,3.68-2.26,7-2,10.87a36.44,36.44,0,0,0,1.38,7.72,6,6,0,0,1,.46,1.82h0c.27.29.53.6.82.86l17.69,16q6.67,6.06,13.33,12.15c.85.78.89.77,1.5-.21.24-.39.45-.79.66-1.2,1.48-3,1.3-6.11.9-9.26a46.47,46.47,0,0,0-2.35-9.12c-2.16-6.34-4.33-12.68-5-19.39a2.46,2.46,0,0,0-.61-1.2c-1.76-2.4-3.5-4.81-5.27-7.21s-3.45-5-5.43-7.28c-1.22-.25-2.41-.64-3.67-.79a5.27,5.27,0,0,1-3.74-2.47,16.51,16.51,0,0,1-2.52-5.78c-.29-1.34-.15-1.56,1.28-2a2,2,0,0,0,.44-.26h0c-1.24-2.05-2.74-3.91-4.14-5.84-3-4.1-6-8.16-9-12.24a10,10,0,0,1-.47,1.81C131.56,188,132.13,191.64,133.13,195.27Z" transform="translate(-36.86 -68.57)" fill="#79da7c"/><path d="M117.44,193.76c-7.16-5.63-14.33-11.24-21.44-16.92a112.34,112.34,0,0,1-11.36-10.23A14.22,14.22,0,0,1,80.91,160a12.93,12.93,0,0,1,1-8.37A203.21,203.21,0,0,1,93.11,130.3c.69-1.15.67-1.15-.36-1.85-1.89-1.29-4.11-2-6-3.32-1.11-.82-1.32-.67-2,.51-3.63,6.63-7.47,13.14-11.43,19.58a34.51,34.51,0,0,0-5,12.89,16.51,16.51,0,0,0,.2,6.82c1.14,4.22,3.81,7.38,7,10.13,4.77,4,9.7,7.86,14.62,11.7,6.37,5,12.68,10,19.07,15a54.64,54.64,0,0,0,7.25,4.82c.35-4,.93-7.71,1.62-11.41C118.34,194.37,117.89,194.12,117.44,193.76Z" transform="translate(-36.86 -68.57)" fill="#6a6a6a"/><path d="M150.87,297.11c-2.14-2.16-4.3-3.68-7.45-3.32a7.41,7.41,0,0,1-1.52-.21c-7.38-.8-14.76-1.7-22-3.18-5.27-1.07-10.59-1.84-15.9-2.61a20.79,20.79,0,0,0-7.17-.12,5.2,5.2,0,0,0-3.53,2.16,10.77,10.77,0,0,0-1.89,6.48,70.28,70.28,0,0,0,.42,7.54c.18,1.65.19,3.31.38,5,.43,3.87.91,7.72,1.26,11.6.3,3.36.78,6.7,1.23,10,.18,1.34.29,1.47,1.47,1.18a19.24,19.24,0,0,1,7-.36,1.75,1.75,0,0,0,.47-.13c.27-1-.18-1.83-.28-2.72-.37-3.29-.84-6.58-1.14-9.88-.43-4.61-.94-9.22-1.25-13.84a35.39,35.39,0,0,1,0-4.12c.08-1.5.7-2.05,2.21-1.91s2.94.45,4.41.62c6.6.74,13.09,2.12,19.65,3,4.3.61,8.56,1.48,12.86,2.14,7.63,1.18,15.19,2.72,22.74,4.31a10.2,10.2,0,0,0,3.45.48l-1.58-1.11A93,93,0,0,1,150.87,297.11Z" transform="translate(-36.86 -68.57)" fill="#6a6a6a"/><path d="M272.38,420.22a77.38,77.38,0,0,0-9.6-4.57c-2-.81-4-1.53-5.94-2.49a3.19,3.19,0,0,1-1.73-2.56c-.69-4.55-.43-9.12-.45-13.68a23.65,23.65,0,0,0-.26-5.11,3.29,3.29,0,0,0-1.71-2.4,11.88,11.88,0,0,0-4.73-1.34,46.94,46.94,0,0,0-9.55.44c-3,.35-3.77,1.33-4.07,4.38a35.92,35.92,0,0,0,.09,6.31,123.94,123.94,0,0,1,.36,13.07,57.52,57.52,0,0,0,.46,7.42c.19,2,1.67,3.16,3.27,4.14,2.32,1.4,5,1.68,7.56,2.07,4.2.62,8.45.56,12.69.77h5.67a29.52,29.52,0,0,0,6.83-.45,3.76,3.76,0,0,0,2.57-3.11A2.78,2.78,0,0,0,272.38,420.22Z" transform="translate(-36.86 -68.57)" fill="#5c9ae3"/><path d="M97.58,334.19a14.17,14.17,0,0,0-4.77,1.35c-1.59.83-2.75,1.92-2.64,4,.17,3.25.71,6.46,1,9.7a62.53,62.53,0,0,1,.36,8.32,3.18,3.18,0,0,1-1.41,2.61,58.6,58.6,0,0,1-5.56,3c-3.14,1.63-6.41,3.05-9.19,5.31a3.26,3.26,0,0,0-1,3.82,3.23,3.23,0,0,0,2.86,2.33,40.9,40.9,0,0,0,7.17-.21,121.23,121.23,0,0,0,13.44-1.68,48.26,48.26,0,0,0,13.24-4,1,1,0,0,0,.72-1.13c-.06-1.72,0-3.44,0-5.16h-.1c-.12-2.57-.26-5.15-.36-7.72-.15-3.95-.25-7.9-.42-11.85a19.52,19.52,0,0,0-1.08-6.23,2.8,2.8,0,0,0-1.49-1.79,9.49,9.49,0,0,0-2.95-.88A39.72,39.72,0,0,0,97.58,334.19Z" transform="translate(-36.86 -68.57)" fill="#5c9ae3"/><path d="M299.49,267.07c-1.69,7-3.46,14-6.82,20.46a8.8,8.8,0,0,0-1.11,3.23c-.19,2.17.56,2.89,2.67,2.5a10.42,10.42,0,0,0,5.81-3.44c7-7.69,12.36-16.59,17.67-25.48a11,11,0,0,0,1.22-2.65c1.31-4.63,3.38-9,5-13.48a17.56,17.56,0,0,1,1.06-2.53,12.8,12.8,0,0,0,1.74-7.25,4.71,4.71,0,0,1,.16-1.35c-.42.28-.85.55-1.26.86l-18.17,14q-4.28,3.28-8.53,6.59h0A14.09,14.09,0,0,1,299.49,267.07Z" transform="translate(-36.86 -68.57)" fill="#79da7c"/><path d="M299.09,266.88c-.77,3-1.62,5.93-2.38,8.92a20.34,20.34,0,0,1-1.3,4.43c-1.36,2.65-2.22,5.51-3.62,8.15A6.57,6.57,0,0,0,291,292a1.7,1.7,0,0,0,1.69,1.8,5.63,5.63,0,0,0,1.53-.09,10.57,10.57,0,0,0,5.86-3.35,73.58,73.58,0,0,0,8.2-10.32c1.89-2.87,3.86-5.67,5.65-8.6a67.2,67.2,0,0,0,5.71-10.35c.69-1.76.85-3.71,1.68-5.38,1.87-3.74,3-7.77,4.81-11.52a9.48,9.48,0,0,0,.73-7.13,4.71,4.71,0,0,0-.16,1.35,12.8,12.8,0,0,1-1.74,7.25,17.56,17.56,0,0,0-1.06,2.53c-1.63,4.51-3.7,8.85-5,13.48a11,11,0,0,1-1.22,2.65c-5.31,8.89-10.62,17.79-17.67,25.48a10.42,10.42,0,0,1-5.81,3.44c-2.11.39-2.86-.33-2.67-2.5a8.8,8.8,0,0,1,1.11-3.23c3.36-6.46,5.13-13.45,6.82-20.46a14.09,14.09,0,0,0-.55-8.55c.05,1,.18,2,.29,3.06A14.76,14.76,0,0,1,299.09,266.88Z" transform="translate(-36.86 -68.57)" fill="#79da7c"/><path d="M238.65,385.86c3.1-.36,6.19-.93,9.33-.52.7.09.86-.3.9-.92a57.5,57.5,0,0,0,.16-9.09c-.41-4.45-.28-8.92-.47-13.38-.3-7-.16-14.07-.43-21.11-.19-5-.52-10-.34-14.94a4.39,4.39,0,0,0-.14-.66c-3.33.46-6.51,1.18-9.77,1.34-.77,0-1.09.32-1,1.18.34,3.76.54,7.53.56,11.31,0,4.87.12,9.74.06,14.61-.14,10.3.09,20.61.33,30.91v.51C237.8,385.69,238.05,385.93,238.65,385.86Z" transform="translate(-36.86 -68.57)" fill="#6a6a6a"/><path d="M121.73,222.6c2.15,1.89,4.27,3.82,6.4,5.72l10.64,9.47h0a20.38,20.38,0,0,1-1.43-15.49c.54-1.88.82-3.8,1.37-5.66a2.18,2.18,0,0,0-.29-1.65,12.39,12.39,0,0,0-1.1-2,15.66,15.66,0,0,1-3.18-10.8,13,13,0,0,0-.93-5.34c-1.61-4.22-2.24-8.53-.38-12.89.22-.51.28-1.12.84-1.44-.75-1.08-1.47-2.19-2.27-3.23a14.78,14.78,0,0,0-2.52-3.16,6.27,6.27,0,0,0-.37.71,104.8,104.8,0,0,0-7.7,43.81A2.44,2.44,0,0,0,121.73,222.6Z" transform="translate(-36.86 -68.57)" fill="#5c9ae3"/><path d="M132.83,184c-1.86,4.36-1.23,8.67.38,12.89a13,13,0,0,1,.93,5.34,15.66,15.66,0,0,0,3.18,10.8,12.39,12.39,0,0,1,1.1,2,2.18,2.18,0,0,1,.29,1.65c-.55,1.86-.83,3.78-1.37,5.66a20.38,20.38,0,0,0,1.43,15.49,6,6,0,0,0-.46-1.82,36.44,36.44,0,0,1-1.38-7.72c-.21-3.84,1.75-7.19,2-10.87a.83.83,0,0,1,.14-.32A1.68,1.68,0,0,0,139,215c-.72-1.17-1.38-2.35-2.18-3.48a12.79,12.79,0,0,1-2.2-8c.06-2.52.17-5-1.2-7.32a3.88,3.88,0,0,1-.32-1c-1-3.63-1.57-7.26.07-10.89a10,10,0,0,0,.47-1.81C133.11,182.89,133.05,183.5,132.83,184Z" transform="translate(-36.86 -68.57)" fill="#5c9ae3"/><path d="M392.62,200c2.92-.13,5.83-.22,8.76-.21,2.28,0,4.57-.18,6.86-.23.84,0,1.16-.37,1.37-1.16,1-3.71,1.85-7.44,3.06-11.08a10.21,10.21,0,0,0,.8-4.27c-3.55.25-6.86.3-8-4.13-2.53,4.95-7.81,6-10.74,2.83-.27.42-.44.72-.64,1-1.65,2.25-4,2.73-6.57,2.46-2.14-.22-3-1.86-3.57-3.7a1.34,1.34,0,0,0-.83-1c-.74-.32-.43-.79-.1-1.23a1.37,1.37,0,0,1,.92-.41,17.72,17.72,0,0,1,3.9-.55,21.84,21.84,0,0,0,6.29-.72c2-.54,4-1.15,5.38-2.82a2.29,2.29,0,0,0,.62-1c.31-1.78-1.73-4.68-3.52-5.09a17.35,17.35,0,0,0-6.14,0,38,38,0,0,0-7.52,1.64,4.35,4.35,0,0,0-3.22,4.37,33.88,33.88,0,0,0,.23,4.62,18.84,18.84,0,0,0,5.94,11.34,21,21,0,0,1,5.21,8.37A1.24,1.24,0,0,0,392.62,200Z" transform="translate(-36.86 -68.57)" fill="#5c9ae3"/><path d="M86.19,116.44a1,1,0,0,0,.62,1.22c4.26,2,8.22,4.51,12.38,6.69.44.23.75.37,1.22,0,3.61-2.69,7.84-4.21,11.83-6.17a26.23,26.23,0,0,0,4.71-3.06c2.25-1.8,3.58-4.29,5-6.68a4,4,0,0,0,.38-3.78,10.25,10.25,0,0,0-2.76-3.44c-1.5-1.23-3-2.42-4.54-3.6a17.56,17.56,0,0,0-4.34-2.39,3.49,3.49,0,0,0-3-.31,9.68,9.68,0,0,0-3.08,2.43,1.14,1.14,0,0,0-.27,1.11,10.31,10.31,0,0,0,1.39,3.3,23,23,0,0,0,7.44,5.95,35.07,35.07,0,0,1,3.37,2.56c.31.21.37.76,0,.84-1.07.23-1.45,1.23-2.21,1.79a4.48,4.48,0,0,1-5.83.16c-2.05-1.37-3.58-3-3.21-5.87-2.39,1-4.17.34-5.83-1.35a7.75,7.75,0,0,1-2.1-6.18c-3.25,3.45-6.12,1.91-9.07-.09a7.35,7.35,0,0,0-.43,1c-.93,3.46-2,6.9-1.7,10.57A21.94,21.94,0,0,1,86.19,116.44Z" transform="translate(-36.86 -68.57)" fill="#5c9ae3"/><path d="M188.54,120.67c3.1,2.26,5.41,5,6.08,9,.43,2.54,2.45,3.61,4.89,2.73,4.31-1.55,8.61-3.13,13-4.6,4-1.36,5.42-4,4.66-8.13a30.36,30.36,0,0,0-2.59-6.71c-.22-.51-.64-1-.5-1.59a97.71,97.71,0,0,0-17.44,3.54,74.74,74.74,0,0,0-11.4,4.16h0C186.57,119.06,187.54,120,188.54,120.67Z" transform="translate(-36.86 -68.57)" fill="#79da7c"/><path d="M188.66,121.29c2.88,2.16,5,4.78,5.5,8.55A3.58,3.58,0,0,0,196.9,133a4.69,4.69,0,0,0,3.16-.32l6.29-2.29c2.62-1,5.31-1.78,7.86-2.92a6.36,6.36,0,0,0,3.51-7.13,25.9,25.9,0,0,0-3.69-9c-.14.63.28,1.08.5,1.59a30.36,30.36,0,0,1,2.59,6.71c.76,4.13-.65,6.77-4.66,8.13-4.34,1.47-8.64,3-13,4.6-2.44.88-4.46-.19-4.89-2.73-.67-3.95-3-6.74-6.08-9-1-.72-2-1.61-3.35-1.6h0C186.35,119.81,187.57,120.47,188.66,121.29Z" transform="translate(-36.86 -68.57)" fill="#79da7c"/><path d="M154.1,262.08c1.68,6.43,5.16,12.1,7.62,18.2,2.33,5.79,5.49,11.21,7.69,17.06a12.14,12.14,0,0,0,3.83,5,5.72,5.72,0,0,0,2.43,1.23c2.27.51,3.76-.78,3.47-3.07s-.63-4.65-.81-7a23.92,23.92,0,0,1,1-10.28c-.91-.69-1.8-1.39-2.72-2.07a79.75,79.75,0,0,1-7.36-6.4c-3.68-3.5-7.6-6.76-11.43-10.1-1.5-1.31-2.91-2.73-4.54-3.9h0A3.59,3.59,0,0,1,154.1,262.08Z" transform="translate(-36.86 -68.57)" fill="#79da7c"/><path d="M162.7,283.56c1.7,3.74,3.5,7.45,5.2,11.2.78,1.71,1.23,3.58,2.38,5.12a10.9,10.9,0,0,0,4.8,4c2.68,1,4.76-.49,4.56-3.28,0-.34-.14-.67-.16-1-.2-3.13-1-6.22-.79-9.38.17-2.33.44-4.65.67-7a23.92,23.92,0,0,0-1,10.28c.18,2.33.52,4.66.81,7s-1.2,3.58-3.47,3.07a5.72,5.72,0,0,1-2.43-1.23,12.14,12.14,0,0,1-3.83-5c-2.2-5.85-5.36-11.27-7.69-17.06-2.46-6.1-5.94-11.77-7.62-18.2a3.59,3.59,0,0,0-.79-1.31h0a36.36,36.36,0,0,0,2,6.36Q159,275.37,162.7,283.56Z" transform="translate(-36.86 -68.57)" fill="#79da7c"/><path d="M299.84,191.28a10.24,10.24,0,0,0-7.08-1.22c-1.61.37-3.27-.36-4.94-.29a9.67,9.67,0,0,0-3.19.54,3.1,3.1,0,0,0-1.95,2c-2,6.26-4.49,12.34-5,19a15.46,15.46,0,0,0,1.37,8.48,2.31,2.31,0,0,1,.43,1.44,5.72,5.72,0,0,0,1.24-1.4q8.51-10.62,17-21.25c1.88-2.36,3.74-4.74,5.61-7.11h0A3.62,3.62,0,0,1,299.84,191.28Z" transform="translate(-36.86 -68.57)" fill="#79da7c"/><path d="M298.24,190.07a6.22,6.22,0,0,0-4.47-.58,8.48,8.48,0,0,1-3.58,0,11.09,11.09,0,0,0-4.1-.07c-2.07.32-3.81,1.1-4.13,3.62a19.84,19.84,0,0,1-1.2,3.74c-.71,2-1.52,4.06-2.1,6.17a61.56,61.56,0,0,0-1.59,9.61,11.56,11.56,0,0,0,2.37,8.71,2.31,2.31,0,0,0-.43-1.44,15.46,15.46,0,0,1-1.37-8.48c.55-6.65,3.08-12.73,5-19a3.1,3.1,0,0,1,1.95-2,9.67,9.67,0,0,1,3.19-.54c1.67-.07,3.33.66,4.94.29a10.24,10.24,0,0,1,7.08,1.22,3.62,3.62,0,0,0,3.45.19h0A9.74,9.74,0,0,1,298.24,190.07Z" transform="translate(-36.86 -68.57)" fill="#79da7c"/><path d="M282,238.48c-.34-2.1-.25-4.22-.62-6.31a3.38,3.38,0,0,1,.39-2.32,2.54,2.54,0,0,0-1.12,1.44c-2.21,6.73-4.49,13.44-6.68,20.19a61.69,61.69,0,0,0-2.61,10.3,15.2,15.2,0,0,0,1.38,8.32,6.5,6.5,0,0,0,.6-.36c4.54-4.12,9.33-7.93,14.07-11.82l7.8-6.45h0a41.2,41.2,0,0,1-9.06-5.16C283.63,244.34,282.5,241.59,282,238.48Z" transform="translate(-36.86 -68.57)" fill="#5c9ae3"/><path d="M292.84,249.82a42.1,42.1,0,0,1-5.63-3.27,10.41,10.41,0,0,1-4.41-6.5,60.3,60.3,0,0,1-1-10.2,3.38,3.38,0,0,0-.39,2.32c.37,2.09.28,4.21.62,6.31.5,3.11,1.63,5.86,4.15,7.83a41.2,41.2,0,0,0,9.06,5.16A6,6,0,0,0,292.84,249.82Z" transform="translate(-36.86 -68.57)" fill="#5c9ae3"/><path d="M312.08,193.33c.94-.26,1.38.39,1.77,1a9.23,9.23,0,0,0,5,4,27.14,27.14,0,0,1,4.42,2.27c3.19,1.84,4.73,4.72,5.33,8.2a64.41,64.41,0,0,1,1.1,13.15,3.65,3.65,0,0,1-.45,2c.41-.3.85-.58,1.25-.9,2.07-1.61,2.06-1.61,2.11-4.25a107.35,107.35,0,0,0-6.87-39.5c-.19-.52-.24-1.14-.77-1.49a4.35,4.35,0,0,0-1.18,1.24q-5.49,6.6-10.95,13.23C312.58,192.57,312.34,193,312.08,193.33Z" transform="translate(-36.86 -68.57)" fill="#5c9ae3"/><path d="M328.62,208.77c-.6-3.48-2.14-6.36-5.33-8.2a27.14,27.14,0,0,0-4.42-2.27,9.23,9.23,0,0,1-5-4c-.39-.63-.83-1.28-1.77-1h0a2.62,2.62,0,0,1,1.46,1.37,8.32,8.32,0,0,0,4.8,3.9,21,21,0,0,1,7.41,4.53,3.5,3.5,0,0,1,1,1.34,24.49,24.49,0,0,1,1.33,4.07,64.46,64.46,0,0,1,1.13,12.09c0,1.08,0,2.17,0,3.26a3.65,3.65,0,0,0,.45-2A64.41,64.41,0,0,0,328.62,208.77Z" transform="translate(-36.86 -68.57)" fill="#5c9ae3"/><path d="M411.14,181.06l1,.05a2.8,2.8,0,0,0,2.73-1.44,9.14,9.14,0,0,0,1.39-3.83c.66-5.11,1.21-10.22,1.39-15.51a19.73,19.73,0,0,0-.63-6.48c-.5-1.81-1.56-2.72-3.05-2.79a4,4,0,0,0-4,2.59c-.28.81-.41,1.66-.61,2.49-.76,3.25-.64,6.59-1,9.88a73.87,73.87,0,0,0-.78,8.53,17.32,17.32,0,0,0,.51,4.07A2.89,2.89,0,0,0,411.14,181.06Z" transform="translate(-36.86 -68.57)" fill="#5c9ae3"/><path d="M91.83,99.28a2.69,2.69,0,0,0,3.09-.77,14.15,14.15,0,0,0,3-4.32c2.21-5.3,4.44-10.59,6.63-15.9a7.25,7.25,0,0,0,.47-2.94,3.15,3.15,0,0,0-.61-2.51c-1.7-1.87-4.71-2.39-6.25.49A145.4,145.4,0,0,0,90.5,88.86a22.33,22.33,0,0,0-1.78,5.51C88.4,97.09,89.23,98.42,91.83,99.28Z" transform="translate(-36.86 -68.57)" fill="#5c9ae3"/><path d="M397.94,166.14a3.54,3.54,0,0,1,1.42.57,9.61,9.61,0,0,1,3.39,5,4.09,4.09,0,0,1-.74,3.9,12.47,12.47,0,0,1-4.14,3.28,3.56,3.56,0,0,0-1.52.85c1.09,1.76,2.56,1.81,4.27,1.36a4.81,4.81,0,0,0,3.25-3,28,28,0,0,0,1.74-6.45,71.32,71.32,0,0,0,.61-13.54,15.81,15.81,0,0,0-.94-4.88,3.54,3.54,0,0,0-3.25-2.59,4.87,4.87,0,0,0-4.78,4.1,73.4,73.4,0,0,0-.61,9.59C396.59,165.79,396.59,165.8,397.94,166.14Z" transform="translate(-36.86 -68.57)" fill="#5c9ae3"/><path d="M99.13,101.14a4.19,4.19,0,0,0,5.92,3.67,14.16,14.16,0,0,1-3-5.68,4.88,4.88,0,0,1,.34-3.31c1-1.9,5.38-4.71,7.91-3.6.85.37,1.27,0,1.59-.73,1.39-3.18,3.34-6.09,4.2-9.52a4.37,4.37,0,0,0-1.63-4.82,3.73,3.73,0,0,0-4.74.43A13.64,13.64,0,0,0,106.62,81c-2.41,4.27-4.84,8.54-6.25,13.26A18.91,18.91,0,0,0,99.13,101.14Z" transform="translate(-36.86 -68.57)" fill="#5c9ae3"/><path d="M123.14,231.16c14.63,13.1,29.22,26.27,44,39.25.46.41.93.8,1.47,1.26a12.8,12.8,0,0,1,1.49-2.64l-48.88-43.41c.08.94.17,1.51.16,2.08A4.37,4.37,0,0,0,123.14,231.16Z" transform="translate(-36.86 -68.57)" fill="#e6fcf3"/><path d="M331.38,225.83q-7.59,6.06-15.17,12.12c-12.6,10.1-25.14,20.28-37.91,30.18-1.13.87-2.21,1.8-3.26,2.77s-1.36,1.71-.6,2.88a3.28,3.28,0,0,0,1.27-.84c18.26-14.3,36.47-28.67,55-42.57.36-.28.81-.49.94-1a17.6,17.6,0,0,0,.49-4.14C331.74,225.57,331.55,225.69,331.38,225.83Z" transform="translate(-36.86 -68.57)" fill="#e6fcf3"/><path d="M166.13,223.31c.28.39.44.94.82,1l1.76-1.48c-12.16-17.85-24.51-35.47-37-53.17a16,16,0,0,1-.8,1.49c-.83,1.22-.55,2.17.3,3.36Q148.74,198.89,166.13,223.31Z" transform="translate(-36.86 -68.57)" fill="#e6fcf3"/><path d="M279.85,225c-.39.48-.6.82-.09,1.29.29.27.33.75.84.91.16-.18.36-.37.53-.58l41.15-49.33c1.88-2.25,1.86-2.26.46-4.92a2.41,2.41,0,0,0-.28-.27c-.75.93-1.44,1.76-2.11,2.61Q300.34,200.06,279.85,225Z" transform="translate(-36.86 -68.57)" fill="#e6fcf3"/><path d="M114.18,94a46.79,46.79,0,0,1,7.49,5.32,28.38,28.38,0,0,0,5.52-12.09,3.53,3.53,0,0,0-.4-2.14,5.46,5.46,0,0,0-3.32-2.78,3.14,3.14,0,0,0-3.6.82c-2.64,2.76-4.24,6.19-6.08,9.46C113.47,93.13,113.53,93.55,114.18,94Z" transform="translate(-36.86 -68.57)" fill="#5c9ae3"/><path d="M387.54,166.27a41.71,41.71,0,0,1,5.8-.44c.74,0,1-.28,1-1,0-1.31-.07-2.63,0-3.94.16-2.62-.65-5.08-1.21-7.57a2.8,2.8,0,0,0-2.61-2.32,5.09,5.09,0,0,0-5.78,3.65,24.3,24.3,0,0,0-.66,3.7,70.42,70.42,0,0,0-.23,8.63C385.21,166.71,386.37,166.46,387.54,166.27Z" transform="translate(-36.86 -68.57)" fill="#5c9ae3"/><path d="M141.42,441.77a40.2,40.2,0,0,1-5.66,2.4c-2,.68-4,1.32-6,2-1.2.38-1.27.59-.46,1.56a5.52,5.52,0,0,0,2.2,1.58,9.66,9.66,0,0,0,3.37.41,15.28,15.28,0,0,0,6.17-1.13c3.09-1.53,3.77-3.56,1.93-6.33C142.54,441.59,142.14,441.4,141.42,441.77Z" transform="translate(-36.86 -68.57)" fill="#60ca2d"/><path d="M87.55,449.19a11,11,0,0,0,3.6,1.55,29.66,29.66,0,0,0,4.59.48,4.93,4.93,0,0,0,5-3.46A64.89,64.89,0,0,1,86,443.48C84.93,446,85.43,447.78,87.55,449.19Z" transform="translate(-36.86 -68.57)" fill="#5fca2d"/><path d="M146.24,205.31c1.23,3.1,3,5.55,6.75,5.72a3.4,3.4,0,0,1,2,.94c-2.6-3.86-5.35-7.63-8.2-11.32C144.9,202,145.6,203.67,146.24,205.31Z" transform="translate(-36.86 -68.57)" fill="#5c9ae2"/><path d="M146.33,200.91c-1.43.46-1.57.68-1.28,2a16.51,16.51,0,0,0,2.52,5.78,5.27,5.27,0,0,0,3.74,2.47c1.26.15,2.45.54,3.67.79a3.4,3.4,0,0,0-2-.94c-3.74-.17-5.52-2.62-6.75-5.72-.64-1.64-1.34-3.3.54-4.66h0A2.28,2.28,0,0,1,146.33,200.91Z" transform="translate(-36.86 -68.57)" fill="#5c9ae2"/><path d="M166,214.83c1.35,2,2.72,4.07,4,6.13.38.59.72.57,1.23.24a50.48,50.48,0,0,1,6.06-3.16h0a19.53,19.53,0,0,0-10.52-2.91A2.44,2.44,0,0,1,166,214.83Z" transform="translate(-36.86 -68.57)" fill="#79d97c"/><path d="M172.27,215.21a20.58,20.58,0,0,0-6.32-.38,2.44,2.44,0,0,0,.8.3A19.53,19.53,0,0,1,177.27,218,9.14,9.14,0,0,0,172.27,215.21Z" transform="translate(-36.86 -68.57)" fill="#79d97c"/><path d="M394.05,203.68c2.62-.15,5.25-.08,7.86-.28,2.16-.16,4.33-.19,6.49-.31.84-.05.87-.51.87-1.14s-.32-.9-1-.84c-.91.08-1.82.15-2.73.16-4.5.06-9,.34-13.66.06a4.82,4.82,0,0,0,0,.69C392.31,203.7,392.32,203.79,394.05,203.68Z" transform="translate(-36.86 -68.57)" fill="#5a98e1"/><path d="M86,121.27c1.9,1,3.61,2.4,5.59,3.31a45.71,45.71,0,0,1,4.5,2.47c.56.35.89.35,1.31-.11a8.76,8.76,0,0,1,1-.79l-12.55-6.79C85.85,120.12,85,120.74,86,121.27Z" transform="translate(-36.86 -68.57)" fill="#5a97df"/><path d="M389.07,183.17c1.9,0,3.43-.57,4.25-2.66-2.62.33-5.1.18-7.73.29C386.54,182.89,387.06,183.19,389.07,183.17Z" transform="translate(-36.86 -68.57)" fill="#5996de"/><path d="M113.7,110.84c-2.1-1.31-4.34-2.41-6.46-3.91a4.28,4.28,0,0,0,2.83,4.51A2.72,2.72,0,0,0,113.7,110.84Z" transform="translate(-36.86 -68.57)" fill="#5995dc"/><path d="M311.61,178.63c-.33,1.14-.07,2.5-1,3.46,1.22-.62,1.76-1.83,2.53-2.84h0C312.54,179.3,312.26,178.7,311.61,178.63Z" transform="translate(-36.86 -68.57)" fill="#5d9ad8"/><path d="M311.13,177.64a24.61,24.61,0,0,1-.55,4.45c1-1,.7-2.32,1-3.46.65.07.93.67,1.5.62C312.52,178.73,312.09,178,311.13,177.64Z" transform="translate(-36.86 -68.57)" fill="#5d9ad8"/><path d="M243,199.68a2.22,2.22,0,0,0,2.3-1.16,7.54,7.54,0,0,0,.83-2.06,48.16,48.16,0,0,1,1.86-5.71,8.84,8.84,0,0,1,4.9-4.54,6.4,6.4,0,0,1,8.46,3,19.37,19.37,0,0,1,2.27,7.85c.12,1.54.21,3.09.41,4.62a2.06,2.06,0,0,0,1.81,2,2.12,2.12,0,0,0,2-1.59,8.73,8.73,0,0,0,.51-3.72c-.07-.72-.13-2-.32-3.23a20.5,20.5,0,0,0-3.88-10c-2.55-3.24-5.95-5-10.06-4.38a13.34,13.34,0,0,0-10.8,7.78,23.79,23.79,0,0,0-2,6.91,8.25,8.25,0,0,0,0,2.22A2.15,2.15,0,0,0,243,199.68Z" transform="translate(-36.86 -68.57)"/><path d="M184.89,185.49c-2.83,3.84-3.69,8.31-3.95,12.94a10.08,10.08,0,0,0,.24,2.9c.42,1.6,1.25,2.45,2.31,2.35s1.63-.88,1.82-2.54c.21-1.88.3-3.77.55-5.64a15.71,15.71,0,0,1,2.68-7.16,6.12,6.12,0,0,1,7.09-2.4,8.87,8.87,0,0,1,6.14,6c.53,1.63,1,3.28,1.5,4.92a5.7,5.7,0,0,0,.94,2,2.07,2.07,0,0,0,2.11.84,2,2,0,0,0,1.55-1.66,5.65,5.65,0,0,0,.1-2,20.67,20.67,0,0,0-2.66-8.62A13.26,13.26,0,0,0,195,180.78C190.78,180.28,187.37,182.11,184.89,185.49Z" transform="translate(-36.86 -68.57)"/><path d="M182.24,207.54a5.66,5.66,0,0,0-1.8-.95c-2.7-.92-5.29-.26-7.8.74a3.23,3.23,0,0,0-1.9,3c.13,1.22,1,2,2.53,2.39a7.54,7.54,0,0,0,2.36.3,19.26,19.26,0,0,0,5.84-1C183.77,211.21,184.11,209.1,182.24,207.54Z" transform="translate(-36.86 -68.57)" fill="#96c3f9"/><path d="M264,211.48a2.9,2.9,0,0,0,1.78,2.52,8.38,8.38,0,0,0,3.41.42,10.46,10.46,0,0,0,4.35-.51,2.62,2.62,0,0,0,1.7-3.16,2.65,2.65,0,0,0-1.86-2.07,13.19,13.19,0,0,0-7.42,0A3.37,3.37,0,0,0,264,211.48Z" transform="translate(-36.86 -68.57)" fill="#96c3f9"/><path d="M123.07,429.74a.89.89,0,0,0,1-.49.79.79,0,0,0,.14-.31c.11-1.14.88-1.17,1.74-1a19.23,19.23,0,0,1,4.46,1.2,36.79,36.79,0,0,0,4.14,1.65,13.42,13.42,0,0,0,11.61-2c4-2.62,5.18-9.84,2.52-13.94A29.17,29.17,0,0,0,138.05,405a47.91,47.91,0,0,0-9.4-3.72c-1.63-.5-1.66-.51-1.49-2.25a52.46,52.46,0,0,0-.44-11.13,2.21,2.21,0,0,0-.54-1.48c-.54.12-.52.53-.6.83a17.22,17.22,0,0,0-.55,3.9c-.11,2.52-.33,5-.64,7.53a69.16,69.16,0,0,0-.73,10.95c.19,5.4-.57,10.74-1,16.1-.08,1-.22,2.05-.27,3.08A.81.81,0,0,0,123.07,429.74Zm2-5.94c.15-1,.26-2,.42-3.06.28-1.8.58-3.6.91-5.65a50.46,50.46,0,0,1,6.14,2.75c1.89,1.06,4.05,1.66,5.61,3.28a.48.48,0,0,0,.45.07.47.47,0,0,0,.14-.61,5.55,5.55,0,0,0-1.84-2,42.41,42.41,0,0,0-9-5.37c-1.3-.58-1.3-.59-1.23-2,.12-2.61.24-5.23.36-7.82.18,0,.24-.07.29-.05,5.53,2.38,11,4.91,15.28,9.31a39.34,39.34,0,0,1,2.72,3.32c3,3.7,1.26,9.76-3.39,11.53a8.85,8.85,0,0,1-7.3,0c-2.81-1.32-5.64-2.57-8.8-2.69C125.13,424.74,124.93,424.44,125,423.8Z" transform="translate(-36.86 -68.57)"/><path d="M94.31,387.84c-2-.23-3.94-.73-6.13-.91a5.27,5.27,0,0,0-.67,0c-.36,0-.89-.16-1,.4-.06.37.35.55.63.72a15.33,15.33,0,0,0,4.31,1.68c.9.22,1.15.6,1.08,1.55a16.23,16.23,0,0,0,2.34,9.34A10.53,10.53,0,0,0,98,404c6.54,4.49,13,.11,16-4.2a1.73,1.73,0,0,0,.16-.3,12.51,12.51,0,0,0-.43-11.86,1,1,0,0,1,.2-1.45,9.49,9.49,0,0,0,1.36-1.54c.7-1,.8-1.76.29-2.18-.74-.59-1.43-.12-2,.29-.9.61-1.76,1.28-2.6,2a13.83,13.83,0,0,1-5,2.66C102.17,388.54,98.23,388.29,94.31,387.84Zm12.72,4a13.87,13.87,0,0,0-.53-1.31,26.85,26.85,0,0,0,4.26-1.81c.58-.36.84,0,1.07.43a7.64,7.64,0,0,1,1,4.63,10.17,10.17,0,0,1-3.34,6.38c-4,3.5-9.94,2.55-12.83-2.49a22.59,22.59,0,0,1-1.91-6.89,16.66,16.66,0,0,0,4.06.41c.83,0,1,.29,1.09,1.09a4.19,4.19,0,0,0,2,3.4,3.38,3.38,0,0,0,5.13-3.84Z" transform="translate(-36.86 -68.57)"/><path d="M109.54,416.54a3.48,3.48,0,0,0-2.24.72c-1.3.84-2.61,1.66-3.89,2.52-.57.38-.91.26-1.23-.32-.51-1-1.07-1.89-1.61-2.84-.76-1.34-1.52-2.68-2.3-4-.33-.56-.74-1.14-1.49-.82s-.43,1-.23,1.61a38.57,38.57,0,0,0,3.14,7c.64,1.14.8,1.09-.49,2-2.32,1.67-4.64,3.35-6.92,5.08-.51.38-1.44.91-1.09,1.54.43.8,1.33.16,2-.06a33.48,33.48,0,0,0,7.41-3.56c1.33-.84,1.33-.79,2.13.62.92,1.65,1.85,3.29,2.83,4.91.37.62.87,1.47,1.7,1.1s.48-1.27.28-2a22.26,22.26,0,0,0-2.61-6c-.46-.72-.32-1.07.39-1.47a22,22,0,0,0,4.5-3.42,2.14,2.14,0,0,0,.82-1.64A1.05,1.05,0,0,0,109.54,416.54Z" transform="translate(-36.86 -68.57)" fill="#010100"/><path d="M179.53,231.7A150.28,150.28,0,0,1,202,227c4.08-.51,8.17-1,12.26-1.17a105.15,105.15,0,0,1,10.95-.2c4.27.31,8.58.11,12.86.41,1.49.11,3,.32,4.43.51,2.88.36,5.75.8,8.62,1.25,2.65.4,5.3.82,7.93,1.29,2.94.53,5.67,1.77,8.53,2.57a4.94,4.94,0,0,0,2.84.44c-.14-.83-.8-1.1-1.32-1.31-3.17-1.29-6.24-2.89-9.59-3.67-3.67-.85-7.37-1.54-11.07-2.21a118.29,118.29,0,0,0-14.75-1.9c-3.19-.17-6.4-.16-9.6-.29s-6.61.35-9.92.5c-3.14.13-6.26.5-9.38.86a109.15,109.15,0,0,0-16.6,3.23,56.54,56.54,0,0,0-9,3.2c-.49.23-1.26.5-1,1.17C178.38,232.23,179.05,231.84,179.53,231.7Z" transform="translate(-36.86 -68.57)" fill="#9bcfb5"/><path d="M258.79,267.48a37.36,37.36,0,0,1-9,2.64c-2.74.49-5.5.89-8.3,1.12s-5.59.18-8.36.56c-1.21.17-2.37-.3-3.58-.3a116.28,116.28,0,0,1-20-1.31c-4.77-.8-9.55-1.61-14.31-2.44-3.59-.63-7.11-1.63-10.66-2.46a5.31,5.31,0,0,0-.65-.19.58.58,0,0,0-.69.38c-.08.24.11.4.3.55a7.87,7.87,0,0,0,3.05,1.51c1.61.4,3.17,1,4.74,1.49a27.9,27.9,0,0,0,3.95,1.13c4.83.79,9.6,2,14.45,2.67,2.14.32,4.27.71,6.41,1,3.63.54,7.3.33,10.94.66a80.09,80.09,0,0,0,11.48-.35c1.36-.07,2.74-.17,4.09-.37a82.58,82.58,0,0,0,10.68-2.32,38.8,38.8,0,0,0,7.15-2.86c.62-.33,1.38-.65,1.31-1.64A5.91,5.91,0,0,0,258.79,267.48Z" transform="translate(-36.86 -68.57)" fill="#9acfb5"/><path d="M204.24,253.21c4.61.35,9.24.58,13.86.66,10.74.16,21.5.55,32.2-.93,2.94-.41,5.87-.88,8.77-1.47a12.09,12.09,0,0,0,2-.8c-2.68-1.29-5.35-.69-7.89-.37-3.4.43-6.83.69-10.23.79-5.08.14-10.17.65-15.26.38-4.4-.23-8.8-.2-13.21-.3-.17,0-.34,0-.51,0-3.86-.45-7.76-.38-11.63-.59-2-.1-4-.25-6-.49-4-.49-8.08-.51-12.11-.9-.64-.06-1.75-.51-1.85.5-.07.67,1,.71,1.69.82C190.77,251.62,197.47,252.71,204.24,253.21Z" transform="translate(-36.86 -68.57)" fill="#9bcfb5"/><path d="M125.83,424.77c3.16.12,6,1.37,8.8,2.69a8.85,8.85,0,0,0,7.3,0c4.65-1.77,6.34-7.83,3.39-11.53a39.34,39.34,0,0,0-2.72-3.32c-4.31-4.4-9.75-6.93-15.28-9.31,0,0-.11,0-.29.05-.12,2.59-.24,5.21-.36,7.82-.07,1.41-.07,1.42,1.23,2a42.41,42.41,0,0,1,9,5.37,5.55,5.55,0,0,1,1.84,2,.47.47,0,0,1-.14.61.48.48,0,0,1-.45-.07c-1.56-1.62-3.72-2.22-5.61-3.28a50.46,50.46,0,0,0-6.14-2.75c-.33,2.05-.63,3.85-.91,5.65-.16,1-.27,2-.42,3.06C124.93,424.44,125.13,424.74,125.83,424.77Z" transform="translate(-36.86 -68.57)" fill="#fd6d6d"/><path d="M105.92,395.6a3.47,3.47,0,0,1-4,.12,4.19,4.19,0,0,1-2-3.4c0-.8-.26-1.1-1.09-1.09a16.66,16.66,0,0,1-4.06-.41,22.59,22.59,0,0,0,1.91,6.89c2.89,5,8.83,6,12.83,2.49a10.17,10.17,0,0,0,3.34-6.38,7.64,7.64,0,0,0-1-4.63c-.23-.42-.49-.79-1.07-.43a26.85,26.85,0,0,1-4.26,1.81,13.87,13.87,0,0,1,.53,1.31A3.5,3.5,0,0,1,105.92,395.6Z" transform="translate(-36.86 -68.57)" fill="#fff"/><path d="M383.6,369.84c-.56.48-1.06,1-1.62,1.54a2.28,2.28,0,0,1-1.16.78c-.06-1.87.11-3.7-.87-5.47-1.42,1.38-1.12,3.23-1.78,4.84a27.88,27.88,0,0,0-2.9-2.65c-.32-.2-.6-.68-1-.41s-.33.81-.21,1.25a6.54,6.54,0,0,0,.39.95A9.35,9.35,0,0,0,376.8,374a2,2,0,0,1,.63,2.42,44,44,0,0,1-4.82,10.41,19.72,19.72,0,0,1-4.09,4.6c-.45.37-.88.87-1.59.79,0-.7-.06-1.33-.06-2,0-5.27-.11-10.54-.52-15.8a4.9,4.9,0,0,0-2.74-4.24,19.12,19.12,0,0,0-3.85-1.43,54.17,54.17,0,0,0-9.12-1.56,97,97,0,0,0-23.65-.08,27.72,27.72,0,0,0-9.68,2.79,4.22,4.22,0,0,0-2.53,2.64.78.78,0,0,1-1,.71c-1.85-.32-3.64.25-5.47.27s-2.09.42-2.4,2.07a11.69,11.69,0,0,0-.11,1.19,71.88,71.88,0,0,0-.11,10.48,4.1,4.1,0,0,1-.19,2.33,3.83,3.83,0,0,1-.52-.37c-4.32-4.07-6.1-9.29-6.81-15a1.56,1.56,0,0,1,.55-1.36,50.75,50.75,0,0,0,4.28-6,3.06,3.06,0,0,0,.59-2.89c-2.71.79-3.84,3.34-5.9,5.05-.06-.62-.09-1.11-.17-1.58a10.45,10.45,0,0,0-.36-1.68,1,1,0,0,0-2-.07,4,4,0,0,0-.36,1.67c0,.47.16,1-.25,1.49a6.5,6.5,0,0,1-1.75-1.63,6.16,6.16,0,0,0-1.4-1.25.81.81,0,0,0-1.21,1c.14.31.28.63.44.93a12.31,12.31,0,0,0,2.26,3,8.79,8.79,0,0,1,2.64,5.34,23.71,23.71,0,0,0,8.74,15.48,3.34,3.34,0,0,1,1.38,3c-.17,5.21-.27,10.42-.35,15.63-.06,3.49-.17,7,0,10.48.09,1.43.25,1.59,1.66,2a29.8,29.8,0,0,0,3.87.78,12.59,12.59,0,0,0,3.41.29c1.39-.18,2,1.21,3.1,1.58,2.6.85,5,2.19,7.76,2.71,1.28.25,1.26.35,1.17,1.59a65.16,65.16,0,0,0-.34,7.9c0,.7-.19,1.05-.87,1.16-1.67.27-2.35,1.5-2.74,3a17,17,0,0,0-.57,4.07,1.21,1.21,0,0,1-.91,1.25c-1.44.55-2.85,1.19-4.27,1.79a4.51,4.51,0,0,0-2.2,2.09c-.82,1.51-.47,2.61,1.1,3.36.57.27,1.14.52,1.72.77,1.47.05,2.95.13,4.43.13a30.56,30.56,0,0,0,6.6-.81c2.17-.49,3.17-1.54,3.36-3.74.15-1.75.09-3.53.14-5.29A3,3,0,0,1,332,444c0-.69,0-1.37,0-2.06-.1-2.46-.62-3.08-3.13-3.64a79,79,0,0,0,.06-9,66,66,0,0,0,16.76.9c-.16,2.62-.3,5-.44,7.4,0,.39,0,.83-.51.95-1.7.39-1.95,1.79-2.05,3.16-.14,2.15-.13,4.32-.19,6.47,0,.85,0,1.7.06,2.55a3.71,3.71,0,0,0,2.87,3.71,33.13,33.13,0,0,0,9.39,1.32h0a8.74,8.74,0,0,0,4-.84,2.1,2.1,0,0,0,.91-3.28,5.05,5.05,0,0,0-2.13-2.14c-1-.48-2-1.06-3.08-1.45-1.24-.45-2.31-1-1.91-2.68a5,5,0,0,0-.09-1.53c-.2-2.36-.89-4.38-3.55-5-.06,0-.1-.08-.15-.09-.74-.1-.81-.55-.79-1.21.06-2,.06-4,.06-6,0-1.33-.36-1.56,1.5-1.8a55.87,55.87,0,0,0,14.48-4.12c1.57-.66,2.45-1.58,2.22-3.35,0-.11,0-.22,0-.34-.1-6.19.27-12.37.44-18.55.07-2.47.15-4.93.2-7.39,0-.56.07-1,.71-1.19a10.69,10.69,0,0,0,4.67-3.4A37.9,37.9,0,0,0,380,377.1a3.16,3.16,0,0,1,1.27-1.91,16,16,0,0,0,3-2.8,11.33,11.33,0,0,0,1-1.21c.37-.55,1-1.19.31-1.82S384.15,369.38,383.6,369.84Zm-69.54,27.63q0,10.57.22,21.13c0,1.07,0,2.15-.09,3.3a25.68,25.68,0,0,1-6.21-1.54c-.6-.19-.47-.72-.48-1.15,0-2.06-.08-4.12,0-6.18.13-5.84.3-11.68.46-17.51a2.16,2.16,0,0,1,.24-1.23,9.48,9.48,0,0,0,5.28,1.21c.46-.07.61.2.62.6S314.06,397,314.06,397.47Zm.14-14.54c-.11,3,0,6.05-.1,9.08-.06,1.57-.16,1.64-1.72,1.32-.39-.08-.78-.19-1.16-.3-3-.88-3.27-1.32-3.18-4.4.1-3.82.16-7.65.25-11.47,0-1.36,0-1.39,1.42-1.49,1.64-.12,3.23-.7,5-.44A74.53,74.53,0,0,0,314.2,382.93Zm4.13-10.53a24.34,24.34,0,0,1,7.91-2.71,71.12,71.12,0,0,1,11.09-1,102.78,102.78,0,0,1,15.59.7,35.25,35.25,0,0,1,6,1.42,11.69,11.69,0,0,1,3.36,1.7c1.29.94,1.36,2,.23,3.16a6.43,6.43,0,0,1-2.46,1.5,30.09,30.09,0,0,1-11.33,1.48q-6.09-.15-12.18-.42a86.15,86.15,0,0,1-13.09-1.67,23,23,0,0,1-3.77-1.13,7.65,7.65,0,0,1-1.38-.67C317,373.89,317,373.18,318.33,372.4Zm11.1,71.08c-.12,2.34-.2,4.69-.35,7-.1,1.43-.17,1.5-1.6,1.75-1.24.21-2.5.32-3.75.47a23.61,23.61,0,0,1-6.66-.3c-.34-.06-.74-.1-.82-.48a1,1,0,0,1,.43-.89,3.55,3.55,0,0,1,1.37-.69c1.44-.56,2.88-1.12,4.33-1.63a2.11,2.11,0,0,0,1.58-2c.1-1.2.23-2.39.27-3.6.06-1.65.2-1.78,1.79-2.15l.33-.11C329.18,440.31,329.58,440.66,329.43,443.48Zm20.9.72c0,4.11,0,4.12,3.76,5.77.83.37,1.68.69,2.51,1.06a5.07,5.07,0,0,1,1,.64.79.79,0,0,1,.31.9c-.12.32-.45.29-.72.35a17.21,17.21,0,0,1-5.77.13c-1.59-.17-3.16-.43-4.73-.72-1.19-.21-1.46-.57-1.5-1.69-.05-1.36-.09-2.73-.13-4.09h.05c0-1.59.05-3.19.06-4.79,0-.62.22-1,.92-.9.39,0,.8,0,1.2,0C350,441.11,350.33,441.43,350.33,444.2Zm14-64.37c-.33,6.75-.25,13.51-.33,20.26,0,4.75-.38,9.5-.5,14.25-.06,2.46,0,4.92.14,7.38a1.25,1.25,0,0,1-.91,1.4,50.33,50.33,0,0,1-18.43,4.35,69.33,69.33,0,0,1-15.23-.86,62.21,62.21,0,0,1-10.85-3.11c-1.3-.49-1.22-.51-1.35-2-.68-7.78-.39-15.57-.35-23.35,0-6.7.2-13.4.15-20.1a1.29,1.29,0,0,1,.3-1.14c4.46,2.38,9.35,3.05,14.22,3.71a103.62,103.62,0,0,0,22.61.78,25.07,25.07,0,0,0,7.8-1.92,22.84,22.84,0,0,0,2.61-1.57A4.82,4.82,0,0,1,364.29,379.83Z" transform="translate(-36.86 -68.57)"/><path d="M354.82,455.73a19.16,19.16,0,0,1-9.44-.83,4.21,4.21,0,0,1-3.25-4.29c-.05-.8-.09-1.6-.08-2.4v-.11c-3-.38-6-.54-9.05-.63a1.14,1.14,0,0,1-.28,0l-.38,0,0,.34a11.52,11.52,0,0,1-.32,3.75,4.51,4.51,0,0,1-3.37,3.34,24.69,24.69,0,0,1-11.37.27c.43.58,1.08.55,1.7.62,3.63.47,7.3.46,10.94.58,4.69.16,9.37.5,14.06.38a9.71,9.71,0,0,1,1.2.1,29.52,29.52,0,0,0,9.62-1.13Z" transform="translate(-36.86 -68.57)" fill="#d1d1d1"/><path d="M332.33,447.36l-.47-.05-.17,3.45c-.19,2.2-1.19,3.25-3.36,3.74a30.56,30.56,0,0,1-6.6.81c-1.48,0-3-.08-4.43-.13a24.69,24.69,0,0,0,11.37-.27,4.51,4.51,0,0,0,3.37-3.34,11.52,11.52,0,0,0,.32-3.75Z" transform="translate(-36.86 -68.57)" fill="#d1d1d1"/><path d="M345.43,454.41a3.71,3.71,0,0,1-2.87-3.71c-.05-.85,0-1.7-.06-2.55l-.46,0v.11c0,.8,0,1.6.08,2.4a4.21,4.21,0,0,0,3.25,4.29,19.16,19.16,0,0,0,9.44.83h0A33.13,33.13,0,0,1,345.43,454.41Z" transform="translate(-36.86 -68.57)" fill="#d1d1d1"/><path d="M361.56,379.5a25.07,25.07,0,0,1-7.8,1.92,103.62,103.62,0,0,1-22.61-.78c-4.87-.66-9.76-1.33-14.22-3.71a1.29,1.29,0,0,0-.3,1.14c.05,6.7-.12,13.4-.15,20.1,0,7.78-.33,15.57.35,23.35.13,1.47.05,1.49,1.35,2A62.21,62.21,0,0,0,329,426.61a69.33,69.33,0,0,0,15.23.86,50.33,50.33,0,0,0,18.43-4.35,1.25,1.25,0,0,0,.91-1.4c-.1-2.46-.2-4.92-.14-7.38.12-4.75.45-9.5.5-14.25.08-6.75,0-13.51.33-20.26a4.82,4.82,0,0,0-.12-1.9A22.84,22.84,0,0,1,361.56,379.5Zm-32.17,25.29a2.8,2.8,0,0,1-1.83,1.84,9.59,9.59,0,0,1-3.85.19c-1.33-.32-2.09-.84-2.16-1.8a2.48,2.48,0,0,1,1.8-2.22,6.53,6.53,0,0,1,1.81-.18,6,6,0,0,1,2.58.22C328.64,403.19,329.43,404.09,329.39,404.79Zm.38-6.6a1.71,1.71,0,0,1-1.73,1.15,1.58,1.58,0,0,1-1.62-1.26,8.44,8.44,0,0,1,.11-4.06c.27-1.2,1.57-1.38,2.38-.4a5.86,5.86,0,0,1,1,3.19A2.94,2.94,0,0,1,329.77,398.19Zm14,4.09a1.9,1.9,0,0,1-.31.6,37.23,37.23,0,0,1-3.4,4.31c-.9,1-1.51,1-2.49.14a31.32,31.32,0,0,1-3.14-3.17c-.14-.17-.29-.35-.42-.54-.64-1-.7-1.77-.12-2.15.79-.52,1.41-.09,2,.46.9.89,1.78,1.78,2.78,2.79,1-1,1.88-1.94,2.76-2.83a5.61,5.61,0,0,1,.87-.82,1,1,0,0,1,1.27.1A1,1,0,0,1,343.76,402.28Zm4.85-8.7a1.74,1.74,0,0,1,3.27-.28,5.43,5.43,0,0,1,.62,3.14,2.41,2.41,0,0,1-2.35,2.43c-1.19,0-1.82-.92-1.85-2.71A11,11,0,0,1,348.61,393.58ZM356,406.09a8.65,8.65,0,0,1-3.87,1.17,3.66,3.66,0,0,1-1.67-.24,2.39,2.39,0,0,1-1.77-2.24,2.29,2.29,0,0,1,1.71-2.1,10.15,10.15,0,0,1,5.22,0,1.66,1.66,0,0,1,1.31,1.57A1.79,1.79,0,0,1,356,406.09Z" transform="translate(-36.86 -68.57)" fill="#eafff6"/><path d="M318.29,374.75a7.65,7.65,0,0,0,1.38.67,23,23,0,0,0,3.77,1.13,86.15,86.15,0,0,0,13.09,1.67q6.09.27,12.18.42A30.09,30.09,0,0,0,360,377.16a6.43,6.43,0,0,0,2.46-1.5c1.13-1.16,1.06-2.22-.23-3.16a11.69,11.69,0,0,0-3.36-1.7,35.25,35.25,0,0,0-6-1.42,102.78,102.78,0,0,0-15.59-.7,71.12,71.12,0,0,0-11.09,1,24.34,24.34,0,0,0-7.91,2.71C317,373.18,317,373.89,318.29,374.75Zm16.47-2.69a3.78,3.78,0,0,1,1.9-.71,25.72,25.72,0,0,1,10.18.69,7.83,7.83,0,0,1,1.58.65c1.3.72,1.34,1.6.17,2.49a3.2,3.2,0,0,1-1.38.65c-.45.08-.89.22-1.34.28-.68.08-1.36.12-1.94.16a28.89,28.89,0,0,1-6.23-.57,7,7,0,0,1-3-1.22A1.37,1.37,0,0,1,334.76,372.06Z" transform="translate(-36.86 -68.57)" fill="#b6dbcb"/><path d="M313.44,395.5a9.48,9.48,0,0,1-5.28-1.21,2.16,2.16,0,0,0-.24,1.23c-.16,5.83-.33,11.67-.46,17.51,0,2.06,0,4.12,0,6.18,0,.43-.12,1,.48,1.15a25.68,25.68,0,0,0,6.21,1.54c0-1.15.11-2.23.09-3.3q-.25-10.56-.22-21.13c0-.45,0-.91,0-1.37S313.9,395.43,313.44,395.5Z" transform="translate(-36.86 -68.57)" fill="#b6dbcb"/><path d="M309.71,375.67c-1.39.1-1.4.13-1.42,1.49-.09,3.82-.15,7.65-.25,11.47-.09,3.08.2,3.52,3.18,4.4.38.11.77.22,1.16.3,1.56.32,1.66.25,1.72-1.32.12-3,0-6.05.1-9.08a74.53,74.53,0,0,1,.53-7.7C312.94,375,311.35,375.55,309.71,375.67Z" transform="translate(-36.86 -68.57)" fill="#b6dbcb"/><path d="M326.35,440.89,326,441c-1.59.37-1.73.5-1.79,2.15,0,1.21-.17,2.4-.27,3.6a2.11,2.11,0,0,1-1.58,2c-1.45.51-2.89,1.07-4.33,1.63a3.55,3.55,0,0,0-1.37.69,1,1,0,0,0-.43.89c.08.38.48.42.82.48a23.61,23.61,0,0,0,6.66.3c1.25-.15,2.51-.26,3.75-.47,1.43-.25,1.5-.32,1.6-1.75.15-2.34.23-4.69.35-7C329.58,440.66,329.18,440.31,326.35,440.89Z" transform="translate(-36.86 -68.57)" fill="#5c9ae2"/><path d="M346.1,440.85c-.7-.07-.91.28-.92.9,0,1.6,0,3.2-.06,4.79h-.05c0,1.36.08,2.73.13,4.09,0,1.12.31,1.48,1.5,1.69,1.57.29,3.14.55,4.73.72a17.21,17.21,0,0,0,5.77-.13c.27-.06.6,0,.72-.35a.79.79,0,0,0-.31-.9,5.07,5.07,0,0,0-1-.64c-.83-.37-1.68-.69-2.51-1.06-3.75-1.65-3.75-1.66-3.76-5.77,0-2.77-.29-3.09-3-3.34C346.9,440.82,346.49,440.9,346.1,440.85Z" transform="translate(-36.86 -68.57)" fill="#5c9ae3"/><path d="M342.25,401.07a5.61,5.61,0,0,0-.87.82c-.88.89-1.75,1.79-2.76,2.83-1-1-1.88-1.9-2.78-2.79-.55-.55-1.17-1-2-.46-.58.38-.52,1.19.12,2.15.13.19.28.37.42.54a31.32,31.32,0,0,0,3.14,3.17c1,.86,1.59.84,2.49-.14a37.23,37.23,0,0,0,3.4-4.31,1.9,1.9,0,0,0,.31-.6,1,1,0,0,0-.24-1.11A1,1,0,0,0,342.25,401.07Z" transform="translate(-36.86 -68.57)" fill="#020202"/><path d="M355.66,402.66a10.15,10.15,0,0,0-5.22,0,2.29,2.29,0,0,0-1.71,2.1A2.39,2.39,0,0,0,350.5,407a3.66,3.66,0,0,0,1.67.24,8.65,8.65,0,0,0,3.87-1.17,1.79,1.79,0,0,0,.93-1.86A1.66,1.66,0,0,0,355.66,402.66Z" transform="translate(-36.86 -68.57)" fill="#b6dbcb"/><path d="M327.74,402.84a6,6,0,0,0-2.58-.22,6.53,6.53,0,0,0-1.81.18,2.48,2.48,0,0,0-1.8,2.22c.07,1,.83,1.48,2.16,1.8a9.59,9.59,0,0,0,3.85-.19,2.8,2.8,0,0,0,1.83-1.84C329.43,404.09,328.64,403.19,327.74,402.84Z" transform="translate(-36.86 -68.57)" fill="#b7dbcb"/><path d="M350.15,398.87a2.41,2.41,0,0,0,2.35-2.43,5.43,5.43,0,0,0-.62-3.14,1.74,1.74,0,0,0-3.27.28,11,11,0,0,0-.31,2.58C348.33,398,349,398.83,350.15,398.87Z" transform="translate(-36.86 -68.57)" fill="#040403"/><path d="M328.91,393.62c-.81-1-2.11-.8-2.38.4a8.44,8.44,0,0,0-.11,4.06,1.58,1.58,0,0,0,1.62,1.26,1.71,1.71,0,0,0,1.73-1.15,2.94,2.94,0,0,0,.12-1.38A5.86,5.86,0,0,0,328.91,393.62Z" transform="translate(-36.86 -68.57)" fill="#040404"/><path d="M334.71,374.48a7,7,0,0,0,3,1.22,28.89,28.89,0,0,0,6.23.57c.58,0,1.26-.08,1.94-.16.45-.06.89-.2,1.34-.28a3.2,3.2,0,0,0,1.38-.65c1.17-.89,1.13-1.77-.17-2.49a7.83,7.83,0,0,0-1.58-.65,25.72,25.72,0,0,0-10.18-.69,3.78,3.78,0,0,0-1.9.71A1.37,1.37,0,0,0,334.71,374.48Zm7.21-1.94c1.14,0,2.28.12,3.41.23a3.51,3.51,0,0,1,2.55,1.17c-2,1-9,.48-11-.76A13.75,13.75,0,0,1,341.92,372.54Z" transform="translate(-36.86 -68.57)" fill="#030202"/><path d="M347.88,373.94a3.51,3.51,0,0,0-2.55-1.17c-1.13-.11-2.27-.19-3.41-.23a13.75,13.75,0,0,0-5,.64C338.85,374.42,345.88,374.91,347.88,373.94Z" transform="translate(-36.86 -68.57)" fill="#759689"/><path d="M480.54,342.38c-.37-.6-1-.72-1.82-.29s-1.44.93-2.2,1.33a2.81,2.81,0,0,1-1.7.6c.86-5.07.86-5.07-.19-6.53-1.73,1.41-1.4,3.78-2.46,5.5-.44-.22-.55-.62-.72-1a19.69,19.69,0,0,0-2.24-3c-.27-.34-.59-.59-1-.38s-.41.64-.36,1a2.55,2.55,0,0,0,.18.67,21.71,21.71,0,0,0,2.34,4.76,2.64,2.64,0,0,1,.41,2.81A62.77,62.77,0,0,1,462.09,364a28.26,28.26,0,0,1-6.17,6.18c-.34.25-.63.7-1.22.48,0-2.64-.3-5.25-.47-7.88a33.82,33.82,0,0,0-.58-4.94c-1-4.42-3.38-7.58-8-8.73a21.57,21.57,0,0,0-2.51-.54c-.76-.08-.94-.46-.91-1.13.07-1.37.13-2.75.16-4.12a17.13,17.13,0,0,0-.41-4.95c-.63-2.33-1.74-3.24-4.12-3.4a8.19,8.19,0,0,0-.86,0c-.57,0-.8-.24-.82-.82,0-1.48-.15-3-.23-4.49.84-.13,1.68-.2,2.51-.38a5.1,5.1,0,0,0,3-8,2.79,2.79,0,0,0-2.12-1.3,28.58,28.58,0,0,0-2.92-.17q-6.51.29-13,.68a14.45,14.45,0,0,0-4.35.92c-2.24.86-4.48,1.74-6.74,2.54-2.68.94-3,1.52-2,4.14s1.68,3.07,4.53,2.47a41.24,41.24,0,0,1,6.43-1c2.09-.1,4.18,0,6.29.15a21.21,21.21,0,0,0-.1,4.68c.08.8-.11,1.07-1,1.17-3.14.35-4.67,1.86-5.22,4.95a52.9,52.9,0,0,0-.73,7,1.12,1.12,0,0,1-1,1.24,12.06,12.06,0,0,0-5.07,2.43,16.05,16.05,0,0,0-5.12,8c-.94,3.33-1,6.79-1.43,10.2-.14,1.09-.21,2.2-.34,3.59-1.37-1-2.52-1.76-3.56-2.63-6.59-5.5-10.29-12.75-12.56-20.86a1.15,1.15,0,0,1,.07-1.15c1.33-1.53,1.93-3.51,3.11-5.13a10.72,10.72,0,0,0,.71-1.17.91.91,0,0,0-.19-1.11,1,1,0,0,0-1.12-.11,4.17,4.17,0,0,0-1.52,1.37c-.68.9-1.32,1.82-2.18,3-.36-1.78-.68-3.27-1-4.77-.11-.58-.16-1.25-.94-1.15s-.77.76-.69,1.34c.09.74.27,1.46.4,2.2s.28,1.77.42,2.63c-.46.16-.65-.09-.87-.25-1.39-1-2.76-2.05-4.16-3.05-.35-.26-.82-.64-1.23-.25s-.1.94.17,1.38c.1.15.2.28.31.42a21.48,21.48,0,0,0,5.45,5.18,2.67,2.67,0,0,1,1.22,1.73A44.5,44.5,0,0,0,397.65,367a30,30,0,0,0,9.05,7.81,1.34,1.34,0,0,1,.75,1.5c-.46,8.48-.22,17-.23,25.44,0,4.81.1,9.63.08,14.44,0,3.95,3.09,6.95,6.13,7.09,1.36.06,2.72.33,4.1.35s1.24,0,1.17,1.22c-.24,3.72-.11,7.45-.12,11.17,0,.92.39,2.05,0,2.69s-1.7.22-2.59.31a1.77,1.77,0,0,0-1.84,1.83c-.05.8,0,1.61,0,2.41.11,2.79.09,2.73-2.4,4-1.65.83-3.44,1.5-4.37,3.36-.75,1.49-.56,2.39.89,3.29.34.2.66.42,1,.63,1.76,0,3.5.16,5.26,0a33.54,33.54,0,0,0,7.16-1.43,3.86,3.86,0,0,0,2.81-4,11.26,11.26,0,0,1,0-2.9,39.85,39.85,0,0,1-.26-4.76c-.06-2.22-.67-2.69-2.66-2.54-.17,0-.35.09-.62-.35a64.82,64.82,0,0,0,.3-14.67c5.52,0,10.93,0,16.49-.43,0,1.51,0,2.92,0,4.32-.11,3.32-.22,6.65-.08,10,0,.75-.09,1.09-1,1.16-1.43.11-1.69.47-1.82,2-.09,1.08-.11,2.16-.16,3.25a13,13,0,0,1-.08,3.41,10.06,10.06,0,0,0,0,2.39,3.65,3.65,0,0,0,2.58,3.09,32.37,32.37,0,0,0,9.38,1.59,8.64,8.64,0,0,0,5.05-1.21h0a3.5,3.5,0,0,0-1.44-4.55c-1.16-.72-2.38-1.32-3.6-1.95-2-1-1.88-.38-1.76-2.72,0-.68.08-1.37.1-2.06.06-2,.05-3.31-3-3.12-.11,0-.23,0-.34,0-1.31,0-1.32.15-1.34-1.28-.08-4.59.2-9.17-.05-13.75,0-.61.19-.8.77-.82a36.84,36.84,0,0,0,6.45-1c3.38-.74,5.79-2.63,6.65-6.16a21.4,21.4,0,0,0,.62-4.42c.15-5.21.32-10.42.34-15.64,0-7-.09-14-.19-21,0-1,.16-1.52,1.24-1.82a9,9,0,0,0,3.18-2,32.56,32.56,0,0,0,5.09-5.34,57.4,57.4,0,0,0,9-16.73,2.3,2.3,0,0,1,1.54-1.62,22.72,22.72,0,0,0,5.35-3.39A1.14,1.14,0,0,0,480.54,342.38ZM422.69,327.8a46.36,46.36,0,0,0-7.95,1.18c-2,.41-2,.42-2.82-1.34-.19-.41-.36-.83-.61-1.42,3.36-1.15,6.52-2.31,9.73-3.3a21.71,21.71,0,0,1,5.11-.47c3.48-.22,7-.38,10.45-.56l.86,0c1.87,0,2.55.55,2.85,2.4.23,1.38-.5,2.39-2.07,2.89a20.94,20.94,0,0,1-6,.49C429.09,327.71,425.89,327.71,422.69,327.8Zm11.44,7a22.35,22.35,0,0,1-4.56.35c-.11-1.85-.21-3.63-.32-5.57l4.13-.13c.49,0,.76.14.75.67Zm-11.07,12.63c.2-2.16-.05-4.34.33-6.49a3.17,3.17,0,0,1,2.68-2.92,53.64,53.64,0,0,1,8-.87c1.2-.05,2.4.07,3.6,0a2.07,2.07,0,0,1,2.17,1.58,6.93,6.93,0,0,1,.33,1.5,70.84,70.84,0,0,1,.07,7.87,95.18,95.18,0,0,0-13.4,0c-1,0-2.06,0-3.09,0C423.23,348.17,423,348,423.06,347.44Zm-1.38,94.78c-.05,1.25,0,2.51,0,3.76h.16v3.41c0,.74-.23,1.38-1,1.57a31.94,31.94,0,0,1-10.48,1,3,3,0,0,1-.68-.05c-.58-.19-.68-.61-.33-1.06a3.08,3.08,0,0,1,1.21-.91c1.65-.75,3.26-1.59,4.92-2.33a1.52,1.52,0,0,0,.95-1.46,26.2,26.2,0,0,0,.07-3.76c0-.7.23-1.05,1-1.08a29.44,29.44,0,0,1,3.25-.14C421.36,441.24,421.71,441.46,421.68,442.22Zm20.1-.86c.69.05.84.5.78,1.07a29,29,0,0,0,.05,3.73,1.46,1.46,0,0,0,.93,1.46c1.6.74,3.17,1.53,4.75,2.29a4.54,4.54,0,0,1,.77.36c.37.33.92.61.75,1.23s-.72.43-1.15.48a31.33,31.33,0,0,1-10.47-1,1.36,1.36,0,0,1-1-1.56c0-1.14,0-2.29,0-3.9,0-.84.14-2.14.18-3.45,0-.6.31-.78.83-.83A21.65,21.65,0,0,1,441.78,441.36ZM452,405.07a100.64,100.64,0,0,1-.71,10.27c-.36,2.58-1,3.34-3.54,4a41.12,41.12,0,0,1-8.46,1.36,165.32,165.32,0,0,1-19.91.12c-1.26-.08-2.52-.07-3.78-.08a7.51,7.51,0,0,1-2.36-.42,4.55,4.55,0,0,1-3.23-4.73c0-8.59,0-17.18.05-25.77,0-6.53-.24-13.07.26-19.58.24-3.2.59-6.39,1-9.57a9.31,9.31,0,0,1,1.69-4.6h0A9.13,9.13,0,0,1,419.3,351a31.33,31.33,0,0,1,8.13-.94c4.91-.06,9.83-.39,14.7.54a21.27,21.27,0,0,1,4.44,1.27,6.16,6.16,0,0,1,3.73,3.54c1.35,2.25,1.44,4.79,1.56,7.28.28,5.55.51,11.1.63,16.65C452.66,387.89,452.32,396.48,452,405.07Z" transform="translate(-36.86 -68.57)"/><path d="M434.56,444.23l0,.06.13-.18S434.57,444.18,434.56,444.23Z" transform="translate(-36.86 -68.57)"/><path d="M447.1,455a31.18,31.18,0,0,1-9.3-1.28,4.89,4.89,0,0,1-3.79-5.69c.08-.6.15-1.2.2-1.8-.39,0-.77,0-1.16-.09h-.92c-1.15,0-2.31.14-3.46.19a1,1,0,0,1-.66-.2h-3.1c0,1.09,0,2.19,0,3.29a3.87,3.87,0,0,1-2.61,3.85c-4.21,1.42-8.53,2.42-13,1.19a1.05,1.05,0,0,0,.94.64c1.52.21,3,.53,4.57.62,5.07.28,10.14.57,15.22.7,4.34.11,8.69,0,13,0a22.82,22.82,0,0,0,6.84-1.44c.78-.24,1.67-.57,1.69-1.67C450.44,454.92,448.74,455,447.1,455Z" transform="translate(-36.86 -68.57)" fill="#d1d1d1"/><path d="M422.29,453.31a3.87,3.87,0,0,0,2.61-3.85c0-1.1,0-2.2,0-3.29h-.45a11.26,11.26,0,0,0,0,2.9,3.86,3.86,0,0,1-2.81,4,33.54,33.54,0,0,1-7.16,1.43c-1.76.16-3.5,0-5.26,0C413.76,455.73,418.08,454.73,422.29,453.31Z" transform="translate(-36.86 -68.57)" fill="#d1d1d1"/><path d="M446.51,454.59a32.37,32.37,0,0,1-9.38-1.59,3.65,3.65,0,0,1-2.58-3.09,10.06,10.06,0,0,1,0-2.39c0-.43.08-.86.12-1.29l-.49-.06c-.05.63-.13,1.27-.21,1.9a4.89,4.89,0,0,0,3.79,5.69,31.18,31.18,0,0,0,9.3,1.28c1.64,0,3.34-.12,4.46-1.66h0A8.64,8.64,0,0,1,446.51,454.59Z" transform="translate(-36.86 -68.57)" fill="#d1d1d1"/><path d="M451.86,362.65c-.12-2.49-.21-5-1.56-7.28-.35.41-.82.35-1.27.34a27.51,27.51,0,0,1-5.13-.21c-1.08-.24-2.15.21-3.23.21-4.8,0-9.6,0-14.4,0-1.25,0-2.5-.25-3.76-.25a52.56,52.56,0,0,0-8.68.69c-.28.05-.55.18-.81-.05h0a9.31,9.31,0,0,0-1.69,4.6c-.4,3.18-.75,6.37-1,9.57-.5,6.51-.25,13.05-.26,19.58,0,8.59-.05,17.18-.05,25.77a4.55,4.55,0,0,0,3.23,4.73,7.51,7.51,0,0,0,2.36.42c1.26,0,2.52,0,3.78.08a165.32,165.32,0,0,0,19.91-.12,41.12,41.12,0,0,0,8.46-1.36c2.51-.66,3.18-1.42,3.54-4a100.64,100.64,0,0,0,.71-10.27c.3-8.59.64-17.18.47-25.77C452.37,373.75,452.14,368.2,451.86,362.65Zm-30.67,23a3.8,3.8,0,0,1-2.67,1.35,20.71,20.71,0,0,1-2.73,0,2.71,2.71,0,0,1-2.35-1.91,2.3,2.3,0,0,1,1.47-2.59,1.77,1.77,0,0,1,.63-.25c.74,0,1.48,0,2.22,0,1.24-.06,2.51-.26,3.42,1A1.72,1.72,0,0,1,421.19,385.67Zm1.2-8.55A2.4,2.4,0,0,1,420,375.3a5.9,5.9,0,0,1,0-1.19h-.07c.08-.57.12-1.14.23-1.69a1.46,1.46,0,0,1,1.23-1.26,1.63,1.63,0,0,1,1.76.78A6,6,0,0,1,424,375,1.91,1.91,0,0,1,422.39,377.12Zm15.39,5.58a9,9,0,0,1-1.27,4.18,4.94,4.94,0,0,1-4.91,2.51,4.44,4.44,0,0,1-4-3.24c-.47-1.34-1-2.7-.5-4.18.14-.4.25-.78.75-.79s.67.36.77.77a12.56,12.56,0,0,0,.88,2.59,2.82,2.82,0,0,0,1.88,1.62,2.16,2.16,0,0,0,3-1.37,5.48,5.48,0,0,0,.5-1.82c0-.34,0-.68.07-1,.16-1.49.65-2.18,1.5-2.12s1.27.85,1.31,2.29ZM440.91,371a1.51,1.51,0,0,1,1.31-1.37,1.64,1.64,0,0,1,1.72.86,4.88,4.88,0,0,1,.66,2.1,2.21,2.21,0,0,1-1.89,2.73c-1.19,0-2-1-2-2.65C440.74,372.19,440.82,371.57,440.91,371Zm5.35,17.47h-1.2v0a13,13,0,0,1-1.87,0,2.6,2.6,0,0,1-2.28-2.72,2.56,2.56,0,0,1,2.46-2.37,18.51,18.51,0,0,1,3.07,0,3.07,3.07,0,0,1,2.73,2.62C449.13,387.33,448,388.34,446.26,388.42Z" transform="translate(-36.86 -68.57)" fill="#79e7f8"/><path d="M423.74,348.16c1,0,2.06,0,3.09,0a95.18,95.18,0,0,1,13.4,0,70.84,70.84,0,0,0-.07-7.87,6.93,6.93,0,0,0-.33-1.5,2.07,2.07,0,0,0-2.17-1.58c-1.2,0-2.4-.09-3.6,0a53.64,53.64,0,0,0-8,.87,3.17,3.17,0,0,0-2.68,2.92c-.38,2.15-.13,4.33-.33,6.49C423,348,423.23,348.17,423.74,348.16Z" transform="translate(-36.86 -68.57)" fill="#eafff6"/><path d="M423.82,354.91a116.62,116.62,0,0,0,16.08.23c3.48-.08,6.93.1,10.4.23a6.16,6.16,0,0,0-3.73-3.54,21.27,21.27,0,0,0-4.44-1.27c-4.87-.93-9.79-.6-14.7-.54a31.33,31.33,0,0,0-8.13.94,9.13,9.13,0,0,0-6.28,5.11h0c2.15-1.22,4.58-.78,6.86-1.14A14.85,14.85,0,0,1,423.82,354.91Z" transform="translate(-36.86 -68.57)" fill="#feffff"/><path d="M413.83,356.12a52.56,52.56,0,0,1,8.68-.69c1.26,0,2.51.24,3.76.25,4.8,0,9.6,0,14.4,0,1.08,0,2.15-.45,3.23-.21a27.51,27.51,0,0,0,5.13.21c.45,0,.92.07,1.27-.34-3.47-.13-6.92-.31-10.4-.23a116.62,116.62,0,0,1-16.08-.23,14.85,14.85,0,0,0-3.94,0c-2.28.36-4.71-.08-6.86,1.14C413.28,356.3,413.55,356.17,413.83,356.12Z" transform="translate(-36.86 -68.57)" fill="#feffff"/><path d="M438.24,327.14c1.57-.5,2.3-1.51,2.07-2.89-.3-1.85-1-2.42-2.85-2.4l-.86,0c-3.49.18-7,.34-10.45.56a21.71,21.71,0,0,0-5.11.47c-3.21,1-6.37,2.15-9.73,3.3.25.59.42,1,.61,1.42.84,1.76.84,1.75,2.82,1.34a46.36,46.36,0,0,1,7.95-1.18c3.2-.09,6.4-.09,9.59-.17A20.94,20.94,0,0,0,438.24,327.14Z" transform="translate(-36.86 -68.57)" fill="#eafff6"/><path d="M438.18,441.21c-.52.05-.82.23-.83.83,0,1.31-.14,2.61-.18,3.45,0,1.61,0,2.76,0,3.9a1.36,1.36,0,0,0,1,1.56,31.33,31.33,0,0,0,10.47,1c.43-.05,1,.11,1.15-.48s-.38-.9-.75-1.23a4.54,4.54,0,0,0-.77-.36c-1.58-.76-3.15-1.55-4.75-2.29a1.46,1.46,0,0,1-.93-1.46,29,29,0,0,1-.05-3.73c.06-.57-.09-1-.78-1.07A21.65,21.65,0,0,0,438.18,441.21Z" transform="translate(-36.86 -68.57)" fill="#5c99e2"/><path d="M417.42,441.33c-.73,0-1,.38-1,1.08a26.2,26.2,0,0,1-.07,3.76,1.52,1.52,0,0,1-.95,1.46c-1.66.74-3.27,1.58-4.92,2.33a3.08,3.08,0,0,0-1.21.91c-.35.45-.25.87.33,1.06a3,3,0,0,0,.68.05,31.94,31.94,0,0,0,10.48-1c.8-.19,1-.83,1-1.57V446h-.16c0-1.25,0-2.51,0-3.76,0-.76-.32-1-1-1A29.44,29.44,0,0,0,417.42,441.33Z" transform="translate(-36.86 -68.57)" fill="#5c9ae3"/><path d="M433.38,329.46l-4.13.13c.11,1.94.21,3.72.32,5.57a22.35,22.35,0,0,0,4.56-.35v-4.68C434.14,329.6,433.87,329.44,433.38,329.46Z" transform="translate(-36.86 -68.57)" fill="#e6fbf2"/><path d="M436.47,379.83c-.85-.06-1.34.63-1.5,2.12,0,.34,0,.68-.07,1a5.48,5.48,0,0,1-.5,1.82,2.16,2.16,0,0,1-3,1.37,2.82,2.82,0,0,1-1.88-1.62,12.56,12.56,0,0,1-.88-2.59c-.1-.41-.26-.78-.77-.77s-.61.39-.75.79c-.51,1.48,0,2.84.5,4.18a4.44,4.44,0,0,0,4,3.24,4.94,4.94,0,0,0,4.91-2.51,9,9,0,0,0,1.27-4.18v-.58C437.74,380.68,437.28,379.88,436.47,379.83Z" transform="translate(-36.86 -68.57)" fill="#010202"/><path d="M446.44,383.29a18.51,18.51,0,0,0-3.07,0,2.56,2.56,0,0,0-2.46,2.37,2.6,2.6,0,0,0,2.28,2.72,13,13,0,0,0,1.87,0v0h1.2c1.7-.08,2.87-1.09,2.91-2.51A3.07,3.07,0,0,0,446.44,383.29Z" transform="translate(-36.86 -68.57)" fill="#cff8fe"/><path d="M417.76,382.28c-.74,0-1.48,0-2.22,0a1.77,1.77,0,0,0-.63.25,2.3,2.3,0,0,0-1.47,2.59,2.71,2.71,0,0,0,2.35,1.91,20.71,20.71,0,0,0,2.73,0,3.8,3.8,0,0,0,2.67-1.35,1.72,1.72,0,0,0,0-2.44C420.27,382,419,382.22,417.76,382.28Z" transform="translate(-36.86 -68.57)" fill="#cff8fe"/><path d="M421.4,371.16a1.46,1.46,0,0,0-1.23,1.26c-.11.55-.15,1.12-.23,1.69H420a5.9,5.9,0,0,0,0,1.19,2.4,2.4,0,0,0,2.37,1.82A1.91,1.91,0,0,0,424,375a6,6,0,0,0-.85-3.1A1.63,1.63,0,0,0,421.4,371.16Z" transform="translate(-36.86 -68.57)" fill="#020404"/><path d="M442.71,375.27a2.21,2.21,0,0,0,1.89-2.73,4.88,4.88,0,0,0-.66-2.1,1.64,1.64,0,0,0-1.72-.86,1.51,1.51,0,0,0-1.31,1.37c-.09.62-.17,1.24-.23,1.67C440.69,374.3,441.52,375.31,442.71,375.27Z" transform="translate(-36.86 -68.57)" fill="#020405"/></g></svg>